<?xml version="1.0" encoding="UTF-8" standalone="no"?>
<!-- Created with Inkscape (http://www.inkscape.org/) -->

<svg
   xmlns:dc="http://purl.org/dc/elements/1.1/"
   xmlns:cc="http://creativecommons.org/ns#"
   xmlns:rdf="http://www.w3.org/1999/02/22-rdf-syntax-ns#"
   xmlns:svg="http://www.w3.org/2000/svg"
   xmlns="http://www.w3.org/2000/svg"
   xmlns:sodipodi="http://sodipodi.sourceforge.net/DTD/sodipodi-0.dtd"
   xmlns:inkscape="http://www.inkscape.org/namespaces/inkscape"
   id="svg2"
   version="1.1"
   inkscape:version="0.48.4 r9939"
   width="354.325"
   height="205.5125"
   xml:space="preserve"
   sodipodi:docname="chain_0.pdf"><metadata
     id="metadata8"><rdf:RDF><cc:Work
         rdf:about=""><dc:format>image/svg+xml</dc:format><dc:type
           rdf:resource="http://purl.org/dc/dcmitype/StillImage" /><dc:title></dc:title></cc:Work></rdf:RDF></metadata><defs
     id="defs6"><clipPath
       clipPathUnits="userSpaceOnUse"
       id="clipPath20"><path
         d="m 0,0 2384,0 0,3370 L 0,3370 0,0 z"
         id="path22" /></clipPath></defs><sodipodi:namedview
     pagecolor="#ffffff"
     bordercolor="#666666"
     borderopacity="1"
     objecttolerance="10"
     gridtolerance="10"
     guidetolerance="10"
     inkscape:pageopacity="0"
     inkscape:pageshadow="2"
     inkscape:window-width="640"
     inkscape:window-height="480"
     id="namedview4"
     showgrid="false"
     inkscape:zoom="0.87208069"
     inkscape:cx="177.16251"
     inkscape:cy="102.75625"
     inkscape:window-x="65"
     inkscape:window-y="24"
     inkscape:window-maximized="0"
     inkscape:current-layer="g10" /><g
     id="g10"
     inkscape:groupmode="layer"
     inkscape:label="chain_0"
     transform="matrix(1.25,0,0,-1.25,0,205.5125)"><g
       id="g12"
       transform="translate(72,92.41)"><g
         id="g14"
         transform="translate(-72,-92.41)"><g
           id="g16"><g
             id="g18"
             clip-path="url(#clipPath20)"><g
               id="g24"
               transform="scale(0.229721,0.229721)"><path
                 d="M 123.344,297.801 172.699,51.0117"
                 style="fill:none;stroke:#000000;stroke-opacity:1;stroke-width:3.46948;stroke-linecap:butt;stroke-linejoin:miter;stroke-miterlimit:10;stroke-dasharray:none"
                 id="path26" /><path
                 d="M 493.527,297.801 444.168,51.0117"
                 style="fill:none;stroke:#000000;stroke-opacity:1;stroke-width:3.46948;stroke-linecap:butt;stroke-linejoin:miter;stroke-miterlimit:10;stroke-dasharray:none"
                 id="path28" /><path
                 d="m 491.793,297.801 c 0,46.746 -82.094,84.644 -183.355,84.644 -101.266,0 -183.36,-37.898 -183.36,-84.644 0,-46.742 82.094,-84.641 183.36,-84.641 101.261,0 183.355,37.899 183.355,84.641"
                 style="fill:#ffffff;fill-opacity:1;fill-rule:nonzero;stroke:none"
                 id="path30" /><path
                 d="m 491.793,297.801 c 0,46.746 -82.094,84.644 -183.355,84.644 -101.266,0 -183.36,-37.898 -183.36,-84.644 0,-46.742 82.094,-84.641 183.36,-84.641 101.261,0 183.355,37.899 183.355,84.641 z"
                 style="fill:none;stroke:#000000;stroke-opacity:1;stroke-width:3.46948;stroke-linecap:butt;stroke-linejoin:miter;stroke-miterlimit:10;stroke-dasharray:none"
                 id="path32" /><path
                 d="m 479.453,297.801 c 0,39.929 -76.566,72.304 -171.015,72.304 -94.45,0 -171.02,-32.375 -171.02,-72.304 0,-39.93 76.57,-72.301 171.02,-72.301 94.449,0 171.015,32.371 171.015,72.301"
                 style="fill:#000000;fill-opacity:1;fill-rule:nonzero;stroke:none"
                 id="path34" /><path
                 d="m 479.453,297.801 c 0,39.929 -76.566,72.304 -171.015,72.304 -94.45,0 -171.02,-32.375 -171.02,-72.304 0,-39.93 76.57,-72.301 171.02,-72.301 94.449,0 171.015,32.371 171.015,72.301 z"
                 style="fill:none;stroke:#000000;stroke-opacity:1;stroke-width:3.46948;stroke-linecap:butt;stroke-linejoin:miter;stroke-miterlimit:10;stroke-dasharray:none"
                 id="path36" /><path
                 d="m 174.434,51.0117 c 0,-26.2969 59.996,-47.62108 134.004,-47.62108 74.003,0 134,21.32418 134,47.62108"
                 style="fill:none;stroke:#000000;stroke-opacity:1;stroke-width:3.46948;stroke-linecap:butt;stroke-linejoin:miter;stroke-miterlimit:10;stroke-dasharray:none"
                 id="path38" /><path
                 d="m 296.094,421.199 c 0,0 78.75,59.785 123.398,86.375 40.891,24.356 79.156,44.153 123.395,61.699 41.308,16.383 80.527,25.235 123.394,37.016 42.324,11.633 80.356,22.262 123.395,30.852 42.222,8.421 80.469,15.304 123.394,18.507 42.453,3.164 80.817,0 123.4,0 42.58,0 123.39,0 123.39,0"
                 style="fill:none;stroke:#000000;stroke-opacity:1;stroke-width:3.46948;stroke-linecap:butt;stroke-linejoin:miter;stroke-miterlimit:10;stroke-dasharray:none"
                 id="path40" /><path
                 d="m 405.414,359.5 c 0,26.301 -21.32,47.621 -47.621,47.621 -26.301,0 -47.621,-21.32 -47.621,-47.621 0,-26.301 21.32,-47.621 47.621,-47.621 26.301,0 47.621,21.32 47.621,47.621"
                 style="fill:#808080;fill-opacity:1;fill-rule:nonzero;stroke:none"
                 id="path42" /><path
                 d="m 405.414,359.5 c 0,26.301 -21.32,47.621 -47.621,47.621 -26.301,0 -47.621,-21.32 -47.621,-47.621 0,-26.301 21.32,-47.621 47.621,-47.621 26.301,0 47.621,21.32 47.621,47.621 z"
                 style="fill:none;stroke:#000000;stroke-opacity:1;stroke-width:3.46948;stroke-linecap:butt;stroke-linejoin:miter;stroke-miterlimit:10;stroke-dasharray:none"
                 id="path44" /><path
                 d="m 282.02,359.5 c 0,26.301 -21.321,47.621 -47.622,47.621 -26.3,0 -47.625,-21.32 -47.625,-47.621 0,-26.301 21.325,-47.621 47.625,-47.621 26.301,0 47.622,21.32 47.622,47.621"
                 style="fill:#808080;fill-opacity:1;fill-rule:nonzero;stroke:none"
                 id="path46" /><path
                 d="m 282.02,359.5 c 0,26.301 -21.321,47.621 -47.622,47.621 -26.3,0 -47.625,-21.32 -47.625,-47.621 0,-26.301 21.325,-47.621 47.625,-47.621 26.301,0 47.622,21.32 47.622,47.621 z"
                 style="fill:none;stroke:#000000;stroke-opacity:1;stroke-width:3.46948;stroke-linecap:butt;stroke-linejoin:miter;stroke-miterlimit:10;stroke-dasharray:none"
                 id="path48" /><path
                 d="m 467.113,359.5 c 0,26.301 -21.32,47.621 -47.621,47.621 -26.301,0 -47.625,-21.32 -47.625,-47.621 0,-26.301 21.324,-47.621 47.625,-47.621 26.301,0 47.621,21.32 47.621,47.621"
                 style="fill:#000000;fill-opacity:1;fill-rule:nonzero;stroke:none"
                 id="path50" /><path
                 d="m 467.113,359.5 c 0,26.301 -21.32,47.621 -47.621,47.621 -26.301,0 -47.625,-21.32 -47.625,-47.621 0,-26.301 21.324,-47.621 47.625,-47.621 26.301,0 47.621,21.32 47.621,47.621 z"
                 style="fill:none;stroke:#000000;stroke-opacity:1;stroke-width:3.46948;stroke-linecap:butt;stroke-linejoin:miter;stroke-miterlimit:10;stroke-dasharray:none"
                 id="path52" /><path
                 d="m 331.379,384.18 c 0,26.3 -21.324,47.621 -47.625,47.621 -26.301,0 -47.621,-21.321 -47.621,-47.621 0,-26.301 21.32,-47.625 47.621,-47.625 26.301,0 47.625,21.324 47.625,47.625"
                 style="fill:#ffffff;fill-opacity:1;fill-rule:nonzero;stroke:none"
                 id="path54" /><path
                 d="m 331.379,384.18 c 0,26.3 -21.324,47.621 -47.625,47.621 -26.301,0 -47.621,-21.321 -47.621,-47.621 0,-26.301 21.32,-47.625 47.621,-47.625 26.301,0 47.625,21.324 47.625,47.625 z"
                 style="fill:none;stroke:#000000;stroke-opacity:1;stroke-width:3.46948;stroke-linecap:butt;stroke-linejoin:miter;stroke-miterlimit:10;stroke-dasharray:none"
                 id="path56" /><path
                 d="m 368.398,328.652 c 0,26.301 -21.324,47.621 -47.625,47.621 -26.3,0 -47.621,-21.32 -47.621,-47.621 0,-26.3 21.321,-47.625 47.621,-47.625 26.301,0 47.625,21.325 47.625,47.625"
                 style="fill:#808080;fill-opacity:1;fill-rule:nonzero;stroke:none"
                 id="path58" /><path
                 d="m 368.398,328.652 c 0,26.301 -21.324,47.621 -47.625,47.621 -26.3,0 -47.621,-21.32 -47.621,-47.621 0,-26.3 21.321,-47.625 47.621,-47.625 26.301,0 47.625,21.325 47.625,47.625 z"
                 style="fill:none;stroke:#000000;stroke-opacity:1;stroke-width:3.46948;stroke-linecap:butt;stroke-linejoin:miter;stroke-miterlimit:10;stroke-dasharray:none"
                 id="path60" /><path
                 d="m 245,328.652 c 0,26.301 -21.32,47.621 -47.621,47.621 -26.301,0 -47.621,-21.32 -47.621,-47.621 0,-26.3 21.32,-47.625 47.621,-47.625 26.301,0 47.621,21.325 47.621,47.625"
                 style="fill:#ffffff;fill-opacity:1;fill-rule:nonzero;stroke:none"
                 id="path62" /><path
                 d="m 245,328.652 c 0,26.301 -21.32,47.621 -47.621,47.621 -26.301,0 -47.621,-21.32 -47.621,-47.621 0,-26.3 21.32,-47.625 47.621,-47.625 26.301,0 47.621,21.325 47.621,47.625 z"
                 style="fill:none;stroke:#000000;stroke-opacity:1;stroke-width:3.46948;stroke-linecap:butt;stroke-linejoin:miter;stroke-miterlimit:10;stroke-dasharray:none"
                 id="path64" /><path
                 d="m 368.398,421.199 c 0,26.301 -21.324,47.621 -47.625,47.621 -26.3,0 -47.621,-21.32 -47.621,-47.621 0,-26.301 21.321,-47.625 47.621,-47.625 26.301,0 47.625,21.324 47.625,47.625"
                 style="fill:#808080;fill-opacity:1;fill-rule:nonzero;stroke:none"
                 id="path66" /><path
                 d="m 368.398,421.199 c 0,26.301 -21.324,47.621 -47.625,47.621 -26.3,0 -47.621,-21.32 -47.621,-47.621 0,-26.301 21.321,-47.625 47.621,-47.625 26.301,0 47.625,21.324 47.625,47.625 z"
                 style="fill:none;stroke:#000000;stroke-opacity:1;stroke-width:3.46948;stroke-linecap:butt;stroke-linejoin:miter;stroke-miterlimit:10;stroke-dasharray:none"
                 id="path68" /><path
                 d="m 467.113,328.652 c 0,26.301 -21.32,47.621 -47.621,47.621 -26.301,0 -47.625,-21.32 -47.625,-47.621 0,-26.3 21.324,-47.625 47.625,-47.625 26.301,0 47.621,21.325 47.621,47.625"
                 style="fill:#808080;fill-opacity:1;fill-rule:nonzero;stroke:none"
                 id="path70" /><path
                 d="m 467.113,328.652 c 0,26.301 -21.32,47.621 -47.621,47.621 -26.301,0 -47.625,-21.32 -47.625,-47.621 0,-26.3 21.324,-47.625 47.625,-47.625 26.301,0 47.621,21.325 47.621,47.625 z"
                 style="fill:none;stroke:#000000;stroke-opacity:1;stroke-width:3.46948;stroke-linecap:butt;stroke-linejoin:miter;stroke-miterlimit:10;stroke-dasharray:none"
                 id="path72" /><path
                 d="m 393.074,347.16 c 0,26.301 -21.32,47.621 -47.621,47.621 -26.301,0 -47.625,-21.32 -47.625,-47.621 0,-26.301 21.324,-47.625 47.625,-47.625 26.301,0 47.621,21.324 47.621,47.625"
                 style="fill:#bfbfbf;fill-opacity:1;fill-rule:nonzero;stroke:none"
                 id="path74" /><path
                 d="m 393.074,347.16 c 0,26.301 -21.32,47.621 -47.621,47.621 -26.301,0 -47.625,-21.32 -47.625,-47.621 0,-26.301 21.324,-47.625 47.625,-47.625 26.301,0 47.621,21.324 47.621,47.625 z"
                 style="fill:none;stroke:#000000;stroke-opacity:1;stroke-width:3.46948;stroke-linecap:butt;stroke-linejoin:miter;stroke-miterlimit:10;stroke-dasharray:none"
                 id="path76" /><path
                 d="m 294.359,359.5 c 0,26.301 -21.32,47.621 -47.621,47.621 -26.3,0 -47.621,-21.32 -47.621,-47.621 0,-26.301 21.321,-47.621 47.621,-47.621 26.301,0 47.621,21.32 47.621,47.621"
                 style="fill:#000000;fill-opacity:1;fill-rule:nonzero;stroke:none"
                 id="path78" /><path
                 d="m 294.359,359.5 c 0,26.301 -21.32,47.621 -47.621,47.621 -26.3,0 -47.621,-21.32 -47.621,-47.621 0,-26.301 21.321,-47.621 47.621,-47.621 26.301,0 47.621,21.32 47.621,47.621 z"
                 style="fill:none;stroke:#000000;stroke-opacity:1;stroke-width:3.46948;stroke-linecap:butt;stroke-linejoin:miter;stroke-miterlimit:10;stroke-dasharray:none"
                 id="path80" /><path
                 d="m 343.719,273.125 c 0,26.301 -21.324,47.621 -47.625,47.621 -26.301,0 -47.621,-21.32 -47.621,-47.621 0,-26.301 21.32,-47.625 47.621,-47.625 26.301,0 47.625,21.324 47.625,47.625"
                 style="fill:#ffffff;fill-opacity:1;fill-rule:nonzero;stroke:none"
                 id="path82" /><path
                 d="m 343.719,273.125 c 0,26.301 -21.324,47.621 -47.625,47.621 -26.301,0 -47.621,-21.32 -47.621,-47.621 0,-26.301 21.32,-47.625 47.621,-47.625 26.301,0 47.625,21.324 47.625,47.625 z"
                 style="fill:none;stroke:#000000;stroke-opacity:1;stroke-width:3.46948;stroke-linecap:butt;stroke-linejoin:miter;stroke-miterlimit:10;stroke-dasharray:none"
                 id="path84" /><path
                 d="m 245,297.801 c 0,26.301 -21.32,47.625 -47.621,47.625 -26.301,0 -47.621,-21.324 -47.621,-47.625 0,-26.301 21.32,-47.621 47.621,-47.621 26.301,0 47.621,21.32 47.621,47.621"
                 style="fill:#bfbfbf;fill-opacity:1;fill-rule:nonzero;stroke:none"
                 id="path86" /><path
                 d="m 245,297.801 c 0,26.301 -21.32,47.625 -47.621,47.625 -26.301,0 -47.621,-21.324 -47.621,-47.625 0,-26.301 21.32,-47.621 47.621,-47.621 26.301,0 47.621,21.32 47.621,47.621 z"
                 style="fill:none;stroke:#000000;stroke-opacity:1;stroke-width:3.46948;stroke-linecap:butt;stroke-linejoin:miter;stroke-miterlimit:10;stroke-dasharray:none"
                 id="path88" /><path
                 d="m 442.434,297.801 c 0,26.301 -21.321,47.625 -47.622,47.625 -26.3,0 -47.624,-21.324 -47.624,-47.625 0,-26.301 21.324,-47.621 47.624,-47.621 26.301,0 47.622,21.32 47.622,47.621"
                 style="fill:#ffffff;fill-opacity:1;fill-rule:nonzero;stroke:none"
                 id="path90" /><path
                 d="m 442.434,297.801 c 0,26.301 -21.321,47.625 -47.622,47.625 -26.3,0 -47.624,-21.324 -47.624,-47.625 0,-26.301 21.324,-47.621 47.624,-47.621 26.301,0 47.622,21.32 47.622,47.621 z"
                 style="fill:none;stroke:#000000;stroke-opacity:1;stroke-width:3.46948;stroke-linecap:butt;stroke-linejoin:miter;stroke-miterlimit:10;stroke-dasharray:none"
                 id="path92" /><path
                 d="m 467.113,507.574 c 0,26.301 -21.32,47.621 -47.621,47.621 -26.301,0 -47.625,-21.32 -47.625,-47.621 0,-26.301 21.324,-47.621 47.625,-47.621 26.301,0 47.621,21.32 47.621,47.621"
                 style="fill:#000000;fill-opacity:1;fill-rule:nonzero;stroke:none"
                 id="path94" /><path
                 d="m 467.113,507.574 c 0,26.301 -21.32,47.621 -47.621,47.621 -26.301,0 -47.625,-21.32 -47.625,-47.621 0,-26.301 21.324,-47.621 47.625,-47.621 26.301,0 47.621,21.32 47.621,47.621 z"
                 style="fill:none;stroke:#000000;stroke-opacity:1;stroke-width:3.46948;stroke-linecap:butt;stroke-linejoin:miter;stroke-miterlimit:10;stroke-dasharray:none"
                 id="path96" /><path
                 d="m 590.508,569.273 c 0,26.301 -21.32,47.622 -47.621,47.622 -26.301,0 -47.625,-21.321 -47.625,-47.622 0,-26.3 21.324,-47.625 47.625,-47.625 26.301,0 47.621,21.325 47.621,47.625"
                 style="fill:#bfbfbf;fill-opacity:1;fill-rule:nonzero;stroke:none"
                 id="path98" /><path
                 d="m 590.508,569.273 c 0,26.301 -21.32,47.622 -47.621,47.622 -26.301,0 -47.625,-21.321 -47.625,-47.622 0,-26.3 21.324,-47.625 47.625,-47.625 26.301,0 47.621,21.325 47.621,47.625 z"
                 style="fill:none;stroke:#000000;stroke-opacity:1;stroke-width:3.46948;stroke-linecap:butt;stroke-linejoin:miter;stroke-miterlimit:10;stroke-dasharray:none"
                 id="path100" /><path
                 d="m 713.902,606.289 c 0,26.301 -21.32,47.625 -47.621,47.625 -26.301,0 -47.621,-21.324 -47.621,-47.625 0,-26.301 21.32,-47.621 47.621,-47.621 26.301,0 47.621,21.32 47.621,47.621"
                 style="fill:#ffffff;fill-opacity:1;fill-rule:nonzero;stroke:none"
                 id="path102" /><path
                 d="m 713.902,606.289 c 0,26.301 -21.32,47.625 -47.621,47.625 -26.301,0 -47.621,-21.324 -47.621,-47.625 0,-26.301 21.32,-47.621 47.621,-47.621 26.301,0 47.621,21.32 47.621,47.621 z"
                 style="fill:none;stroke:#000000;stroke-opacity:1;stroke-width:3.46948;stroke-linecap:butt;stroke-linejoin:miter;stroke-miterlimit:10;stroke-dasharray:none"
                 id="path104" /><path
                 d="m 837.301,637.141 c 0,26.3 -21.324,47.621 -47.625,47.621 -26.301,0 -47.621,-21.321 -47.621,-47.621 0,-26.301 21.32,-47.625 47.621,-47.625 26.301,0 47.625,21.324 47.625,47.625"
                 style="fill:#808080;fill-opacity:1;fill-rule:nonzero;stroke:none"
                 id="path106" /><path
                 d="m 837.301,637.141 c 0,26.3 -21.324,47.621 -47.625,47.621 -26.301,0 -47.621,-21.321 -47.621,-47.621 0,-26.301 21.32,-47.625 47.621,-47.625 26.301,0 47.625,21.324 47.625,47.625 z"
                 style="fill:none;stroke:#000000;stroke-opacity:1;stroke-width:3.46948;stroke-linecap:butt;stroke-linejoin:miter;stroke-miterlimit:10;stroke-dasharray:none"
                 id="path108" /><path
                 d="m 960.695,655.648 c 0,26.301 -21.324,47.622 -47.625,47.622 -26.3,0 -47.621,-21.321 -47.621,-47.622 0,-26.3 21.321,-47.621 47.621,-47.621 26.301,0 47.625,21.321 47.625,47.621"
                 style="fill:#ffffff;fill-opacity:1;fill-rule:nonzero;stroke:none"
                 id="path110" /><path
                 d="m 960.695,655.648 c 0,26.301 -21.324,47.622 -47.625,47.622 -26.3,0 -47.621,-21.321 -47.621,-47.622 0,-26.3 21.321,-47.621 47.621,-47.621 26.301,0 47.625,21.321 47.625,47.621 z"
                 style="fill:none;stroke:#000000;stroke-opacity:1;stroke-width:3.46948;stroke-linecap:butt;stroke-linejoin:miter;stroke-miterlimit:10;stroke-dasharray:none"
                 id="path112" /><path
                 d="m 1084.09,655.648 c 0,26.301 -21.32,47.622 -47.62,47.622 -26.3,0 -47.626,-21.321 -47.626,-47.622 0,-26.3 21.326,-47.621 47.626,-47.621 26.3,0 47.62,21.321 47.62,47.621"
                 style="fill:#000000;fill-opacity:1;fill-rule:nonzero;stroke:none"
                 id="path114" /><path
                 d="m 1084.09,655.648 c 0,26.301 -21.32,47.622 -47.62,47.622 -26.3,0 -47.626,-21.321 -47.626,-47.622 0,-26.3 21.326,-47.621 47.626,-47.621 26.3,0 47.62,21.321 47.62,47.621 z"
                 style="fill:none;stroke:#000000;stroke-opacity:1;stroke-width:3.46948;stroke-linecap:butt;stroke-linejoin:miter;stroke-miterlimit:10;stroke-dasharray:none"
                 id="path116" /></g></g></g></g></g></g></svg>