<?xml version="1.0" encoding="UTF-8" standalone="no"?>
<!-- Created with Inkscape (http://www.inkscape.org/) -->

<svg
   xmlns:dc="http://purl.org/dc/elements/1.1/"
   xmlns:cc="http://creativecommons.org/ns#"
   xmlns:rdf="http://www.w3.org/1999/02/22-rdf-syntax-ns#"
   xmlns:svg="http://www.w3.org/2000/svg"
   xmlns="http://www.w3.org/2000/svg"
   xmlns:sodipodi="http://sodipodi.sourceforge.net/DTD/sodipodi-0.dtd"
   xmlns:inkscape="http://www.inkscape.org/namespaces/inkscape"
   id="svg2"
   version="1.1"
   inkscape:version="0.48.4 r9939"
   width="1120.5718"
   height="720.12146"
   xml:space="preserve"
   sodipodi:docname="ross-durie-workflow.pdf"><metadata
     id="metadata8"><rdf:RDF><cc:Work
         rdf:about=""><dc:format>image/svg+xml</dc:format><dc:type
           rdf:resource="http://purl.org/dc/dcmitype/StillImage" /><dc:title></dc:title></cc:Work></rdf:RDF></metadata><defs
     id="defs6"><clipPath
       clipPathUnits="userSpaceOnUse"
       id="clipPath18"><path
         d="m 61,-0.902832 756,0 0,207.000002 -756,0 0,-207.000002 z"
         id="path20" /></clipPath><mask
       maskUnits="userSpaceOnUse"
       x="0"
       y="0"
       width="1"
       height="1"
       id="mask22"><g
         id="g24"><g
           clip-path="url(#clipPath18)"
           id="g26"><path
             d="m 61,-0.902832 756,0 0,207.000002 -756,0 0,-207.000002 z"
             style="fill:#000000;fill-opacity:0.29;fill-rule:nonzero;stroke:none"
             id="path28" /></g></g></mask><clipPath
       clipPathUnits="userSpaceOnUse"
       id="clipPath34"><path
         d="m 61,-0.902832 756,0 0,207.000002 -756,0 0,-207.000002 z"
         id="path36" /></clipPath><clipPath
       clipPathUnits="userSpaceOnUse"
       id="clipPath38"><path
         d="M 61,0 817,0 817,207 61,207 61,0 z"
         id="path40" /></clipPath><clipPath
       clipPathUnits="userSpaceOnUse"
       id="clipPath60"><path
         d="m 57,254.09717 494,0 0,207 -494,0 0,-207 z"
         id="path62" /></clipPath><mask
       maskUnits="userSpaceOnUse"
       x="0"
       y="0"
       width="1"
       height="1"
       id="mask64"><g
         id="g66"><g
           clip-path="url(#clipPath60)"
           id="g68"><path
             d="m 57,254.09717 494,0 0,207 -494,0 0,-207 z"
             style="fill:#000000;fill-opacity:0.29;fill-rule:nonzero;stroke:none"
             id="path70" /></g></g></mask><clipPath
       clipPathUnits="userSpaceOnUse"
       id="clipPath76"><path
         d="m 57,254.09717 494,0 0,207 -494,0 0,-207 z"
         id="path78" /></clipPath><clipPath
       clipPathUnits="userSpaceOnUse"
       id="clipPath80"><path
         d="m 57,255 494,0 0,207 -494,0 0,-207 z"
         id="path82" /></clipPath><clipPath
       clipPathUnits="userSpaceOnUse"
       id="clipPath102"><path
         d="m 70.387,146.355 198.004,0 c 4.117,0 7.425,-3.313 7.425,-7.426 l 0,-66.164 c 0,-4.113 -3.308,-7.422 -7.425,-7.422 l -198.004,0 c -4.114,0 -7.426,3.309 -7.426,7.422 l 0,66.164 c 0,4.113 3.312,7.426 7.426,7.426 z"
         id="path104" /></clipPath><clipPath
       clipPathUnits="userSpaceOnUse"
       id="clipPath110"><path
         d="m -166.00687,223.44215 267.5,0 0,102.5 -267.5,0 0,-102.5 z"
         id="path112" /></clipPath><linearGradient
       x1="-166.30389"
       y1="275.99689"
       x2="57.096497"
       y2="275.99689"
       gradientUnits="userSpaceOnUse"
       spreadMethod="pad"
       id="linearGradient114"><stop
         style="stop-opacity:1;stop-color:#ffffff"
         offset="0"
         id="stop116" /><stop
         style="stop-opacity:0;stop-color:#ffffff"
         offset="1"
         id="stop118" /></linearGradient><mask
       maskUnits="userSpaceOnUse"
       x="0"
       y="0"
       width="1"
       height="1"
       id="mask120"><g
         id="g122"><g
           clip-path="url(#clipPath110)"
           id="g124"><path
             d="m -166.00687,223.44215 267.5,0 0,102.5 -267.5,0 0,-102.5 z"
             style="fill:url(#linearGradient114);stroke:none"
             id="path126" /></g></g></mask><linearGradient
       x1="-166.30389"
       y1="275.99689"
       x2="57.096497"
       y2="275.99689"
       gradientUnits="userSpaceOnUse"
       spreadMethod="pad"
       id="linearGradient130"><stop
         style="stop-opacity:1;stop-color:#cccccc"
         offset="0"
         id="stop132" /><stop
         style="stop-opacity:1;stop-color:#cccccc"
         offset="1"
         id="stop134" /></linearGradient><clipPath
       clipPathUnits="userSpaceOnUse"
       id="clipPath154"><path
         d="m 347.512,146.355 198.004,0 c 4.113,0 7.425,-3.313 7.425,-7.426 l 0,-66.164 c 0,-4.113 -3.312,-7.422 -7.425,-7.422 l -198.004,0 c -4.114,0 -7.426,3.309 -7.426,7.422 l 0,66.164 c 0,4.113 3.312,7.426 7.426,7.426 z"
         id="path156" /></clipPath><clipPath
       clipPathUnits="userSpaceOnUse"
       id="clipPath162"><path
         d="m -164.91269,223.44216 266.25,0 0,102.5 -266.25,0 0,-102.5 z"
         id="path164" /></clipPath><linearGradient
       x1="-166.30389"
       y1="275.99689"
       x2="57.096497"
       y2="275.99689"
       gradientUnits="userSpaceOnUse"
       spreadMethod="pad"
       id="linearGradient166"><stop
         style="stop-opacity:1;stop-color:#ffffff"
         offset="0"
         id="stop168" /><stop
         style="stop-opacity:0;stop-color:#ffffff"
         offset="1"
         id="stop170" /></linearGradient><mask
       maskUnits="userSpaceOnUse"
       x="0"
       y="0"
       width="1"
       height="1"
       id="mask172"><g
         id="g174"><g
           clip-path="url(#clipPath162)"
           id="g176"><path
             d="m -164.91269,223.44216 266.25,0 0,102.5 -266.25,0 0,-102.5 z"
             style="fill:url(#linearGradient166);stroke:none"
             id="path178" /></g></g></mask><linearGradient
       x1="-166.30389"
       y1="275.99689"
       x2="57.096497"
       y2="275.99689"
       gradientUnits="userSpaceOnUse"
       spreadMethod="pad"
       id="linearGradient182"><stop
         style="stop-opacity:1;stop-color:#cccccc"
         offset="0"
         id="stop184" /><stop
         style="stop-opacity:1;stop-color:#cccccc"
         offset="1"
         id="stop186" /></linearGradient><clipPath
       clipPathUnits="userSpaceOnUse"
       id="clipPath206"><path
         d="m 609.652,146.355 198.004,0 c 4.114,0 7.426,-3.313 7.426,-7.426 l 0,-66.164 c 0,-4.113 -3.312,-7.422 -7.426,-7.422 l -198.004,0 c -4.113,0 -7.425,3.309 -7.425,7.422 l 0,66.164 c 0,4.113 3.312,7.426 7.425,7.426 z"
         id="path208" /></clipPath><clipPath
       clipPathUnits="userSpaceOnUse"
       id="clipPath214"><path
         d="m -165.08587,223.44214 267.5,0 0,102.5 -267.5,0 0,-102.5 z"
         id="path216" /></clipPath><linearGradient
       x1="-166.30389"
       y1="275.99689"
       x2="57.096497"
       y2="275.99689"
       gradientUnits="userSpaceOnUse"
       spreadMethod="pad"
       id="linearGradient218"><stop
         style="stop-opacity:1;stop-color:#ffffff"
         offset="0"
         id="stop220" /><stop
         style="stop-opacity:0;stop-color:#ffffff"
         offset="1"
         id="stop222" /></linearGradient><mask
       maskUnits="userSpaceOnUse"
       x="0"
       y="0"
       width="1"
       height="1"
       id="mask224"><g
         id="g226"><g
           clip-path="url(#clipPath214)"
           id="g228"><path
             d="m -165.08587,223.44214 267.5,0 0,102.5 -267.5,0 0,-102.5 z"
             style="fill:url(#linearGradient218);stroke:none"
             id="path230" /></g></g></mask><linearGradient
       x1="-166.30389"
       y1="275.99689"
       x2="57.096497"
       y2="275.99689"
       gradientUnits="userSpaceOnUse"
       spreadMethod="pad"
       id="linearGradient234"><stop
         style="stop-opacity:1;stop-color:#cccccc"
         offset="0"
         id="stop236" /><stop
         style="stop-opacity:1;stop-color:#cccccc"
         offset="1"
         id="stop238" /></linearGradient><clipPath
       clipPathUnits="userSpaceOnUse"
       id="clipPath258"><path
         d="m 605.699,574.898 198.004,0 c 4.113,0 7.426,-3.313 7.426,-7.426 l 0,-66.16 c 0,-4.113 -3.313,-7.426 -7.426,-7.426 l -198.004,0 c -4.113,0 -7.426,3.313 -7.426,7.426 l 0,66.16 c 0,4.113 3.313,7.426 7.426,7.426 z"
         id="path260" /></clipPath><clipPath
       clipPathUnits="userSpaceOnUse"
       id="clipPath266"><path
         d="m -165.14516,224.12157 267.5,0 0,102.5 -267.5,0 0,-102.5 z"
         id="path268" /></clipPath><linearGradient
       x1="-166.30389"
       y1="275.99689"
       x2="57.096497"
       y2="275.99689"
       gradientUnits="userSpaceOnUse"
       spreadMethod="pad"
       id="linearGradient270"><stop
         style="stop-opacity:1;stop-color:#ffffff"
         offset="0"
         id="stop272" /><stop
         style="stop-opacity:0;stop-color:#ffffff"
         offset="1"
         id="stop274" /></linearGradient><mask
       maskUnits="userSpaceOnUse"
       x="0"
       y="0"
       width="1"
       height="1"
       id="mask276"><g
         id="g278"><g
           clip-path="url(#clipPath266)"
           id="g280"><path
             d="m -165.14516,224.12157 267.5,0 0,102.5 -267.5,0 0,-102.5 z"
             style="fill:url(#linearGradient270);stroke:none"
             id="path282" /></g></g></mask><linearGradient
       x1="-166.30389"
       y1="275.99689"
       x2="57.096497"
       y2="275.99689"
       gradientUnits="userSpaceOnUse"
       spreadMethod="pad"
       id="linearGradient286"><stop
         style="stop-opacity:1;stop-color:#cccccc"
         offset="0"
         id="stop288" /><stop
         style="stop-opacity:1;stop-color:#cccccc"
         offset="1"
         id="stop290" /></linearGradient><clipPath
       clipPathUnits="userSpaceOnUse"
       id="clipPath310"><path
         d="m 67.598,574.898 198.004,0 c 4.113,0 7.425,-3.313 7.425,-7.426 l 0,-66.16 c 0,-4.113 -3.312,-7.426 -7.425,-7.426 l -198.004,0 c -4.114,0 -7.426,3.313 -7.426,7.426 l 0,66.16 c 0,4.113 3.312,7.426 7.426,7.426 z"
         id="path312" /></clipPath><clipPath
       clipPathUnits="userSpaceOnUse"
       id="clipPath318"><path
         d="m -165.01739,224.12156 267.5,0 0,102.5 -267.5,0 0,-102.5 z"
         id="path320" /></clipPath><linearGradient
       x1="-166.30389"
       y1="275.99689"
       x2="57.096497"
       y2="275.99689"
       gradientUnits="userSpaceOnUse"
       spreadMethod="pad"
       id="linearGradient322"><stop
         style="stop-opacity:1;stop-color:#ffffff"
         offset="0"
         id="stop324" /><stop
         style="stop-opacity:0;stop-color:#ffffff"
         offset="1"
         id="stop326" /></linearGradient><mask
       maskUnits="userSpaceOnUse"
       x="0"
       y="0"
       width="1"
       height="1"
       id="mask328"><g
         id="g330"><g
           clip-path="url(#clipPath318)"
           id="g332"><path
             d="m -165.01739,224.12156 267.5,0 0,102.5 -267.5,0 0,-102.5 z"
             style="fill:url(#linearGradient322);stroke:none"
             id="path334" /></g></g></mask><linearGradient
       x1="-166.30389"
       y1="275.99689"
       x2="57.096497"
       y2="275.99689"
       gradientUnits="userSpaceOnUse"
       spreadMethod="pad"
       id="linearGradient338"><stop
         style="stop-opacity:1;stop-color:#cccccc"
         offset="0"
         id="stop340" /><stop
         style="stop-opacity:1;stop-color:#cccccc"
         offset="1"
         id="stop342" /></linearGradient><clipPath
       clipPathUnits="userSpaceOnUse"
       id="clipPath362"><path
         d="m 344.883,397.425 198.004,0 c 4.113,0 7.425,-3.312 7.425,-7.425 l 0,-66.161 c 0,-4.113 -3.312,-7.425 -7.425,-7.425 l -198.004,0 c -4.113,0 -7.426,3.312 -7.426,7.425 l 0,66.161 c 0,4.113 3.313,7.425 7.426,7.425 z"
         id="path364" /></clipPath><clipPath
       clipPathUnits="userSpaceOnUse"
       id="clipPath370"><path
         d="m -165.37427,223.53179 267.5,0 0,102.5 -267.5,0 0,-102.5 z"
         id="path372" /></clipPath><linearGradient
       x1="-166.30389"
       y1="275.99689"
       x2="57.096497"
       y2="275.99689"
       gradientUnits="userSpaceOnUse"
       spreadMethod="pad"
       id="linearGradient374"><stop
         style="stop-opacity:1;stop-color:#ffffff"
         offset="0"
         id="stop376" /><stop
         style="stop-opacity:0;stop-color:#ffffff"
         offset="1"
         id="stop378" /></linearGradient><mask
       maskUnits="userSpaceOnUse"
       x="0"
       y="0"
       width="1"
       height="1"
       id="mask380"><g
         id="g382"><g
           clip-path="url(#clipPath370)"
           id="g384"><path
             d="m -165.37427,223.53179 267.5,0 0,102.5 -267.5,0 0,-102.5 z"
             style="fill:url(#linearGradient374);stroke:none"
             id="path386" /></g></g></mask><linearGradient
       x1="-166.30389"
       y1="275.99689"
       x2="57.096497"
       y2="275.99689"
       gradientUnits="userSpaceOnUse"
       spreadMethod="pad"
       id="linearGradient390"><stop
         style="stop-opacity:1;stop-color:#cccccc"
         offset="0"
         id="stop392" /><stop
         style="stop-opacity:1;stop-color:#cccccc"
         offset="1"
         id="stop394" /></linearGradient><clipPath
       clipPathUnits="userSpaceOnUse"
       id="clipPath414"><path
         d="m 66.73,397.425 198.004,0 c 4.114,0 7.426,-3.312 7.426,-7.425 l 0,-66.161 c 0,-4.113 -3.312,-7.425 -7.426,-7.425 l -198.004,0 c -4.113,0 -7.425,3.312 -7.425,7.425 l 0,66.161 c 0,4.113 3.312,7.425 7.425,7.425 z"
         id="path416" /></clipPath><clipPath
       clipPathUnits="userSpaceOnUse"
       id="clipPath422"><path
         d="m -165.18543,223.53179 267.5,0 0,102.5 -267.5,0 0,-102.5 z"
         id="path424" /></clipPath><linearGradient
       x1="-166.30389"
       y1="275.99689"
       x2="57.096497"
       y2="275.99689"
       gradientUnits="userSpaceOnUse"
       spreadMethod="pad"
       id="linearGradient426"><stop
         style="stop-opacity:1;stop-color:#ffffff"
         offset="0"
         id="stop428" /><stop
         style="stop-opacity:0;stop-color:#ffffff"
         offset="1"
         id="stop430" /></linearGradient><mask
       maskUnits="userSpaceOnUse"
       x="0"
       y="0"
       width="1"
       height="1"
       id="mask432"><g
         id="g434"><g
           clip-path="url(#clipPath422)"
           id="g436"><path
             d="m -165.18543,223.53179 267.5,0 0,102.5 -267.5,0 0,-102.5 z"
             style="fill:url(#linearGradient426);stroke:none"
             id="path438" /></g></g></mask><linearGradient
       x1="-166.30389"
       y1="275.99689"
       x2="57.096497"
       y2="275.99689"
       gradientUnits="userSpaceOnUse"
       spreadMethod="pad"
       id="linearGradient442"><stop
         style="stop-opacity:1;stop-color:#cccccc"
         offset="0"
         id="stop444" /><stop
         style="stop-opacity:1;stop-color:#cccccc"
         offset="1"
         id="stop446" /></linearGradient></defs><sodipodi:namedview
     pagecolor="#ffffff"
     bordercolor="#666666"
     borderopacity="1"
     objecttolerance="10"
     gridtolerance="10"
     guidetolerance="10"
     inkscape:pageopacity="0"
     inkscape:pageshadow="2"
     inkscape:window-width="640"
     inkscape:window-height="480"
     id="namedview4"
     showgrid="false"
     inkscape:zoom="0.32772249"
     inkscape:cx="560.28589"
     inkscape:cy="360.06073"
     inkscape:window-x="65"
     inkscape:window-y="24"
     inkscape:window-maximized="0"
     inkscape:current-layer="g10" /><g
     id="g10"
     inkscape:groupmode="layer"
     inkscape:label="ross-durie-workflow"
     transform="matrix(1.25,0,0,-1.25,0,720.12146)"><g
       id="g12"><g
         id="g14"><g
           id="g16" /><g
           id="g30"
           mask="url(#mask22)"><g
             id="g32" /><g
             id="g42"><g
               clip-path="url(#clipPath34)"
               id="g44"><g
                 transform="translate(0,-0.902832)"
                 id="g46"><g
                   id="g48"><g
                     clip-path="url(#clipPath38)"
                     id="g50"><g
                       id="g52"><path
                         d="m 92.203,206.797 693.547,0 c 17.262,0 31.156,-13.899 31.156,-31.16 l 0,-143.575 c 0,-17.261 -13.894,-31.16 -31.156,-31.16 l -693.547,0 c -17.262,0 -31.156,13.899 -31.156,31.16 l 0,143.575 c 0,17.261 13.894,31.16 31.156,31.16 z"
                         style="fill:#b3b3b3;fill-opacity:1;fill-rule:nonzero;stroke:none"
                         id="path54" /></g></g></g></g></g></g></g></g><g
         id="g56"><g
           id="g58" /><g
           id="g72"
           mask="url(#mask64)"><g
             id="g74" /><g
             id="g84"><g
               clip-path="url(#clipPath76)"
               id="g86"><g
                 transform="translate(0,-0.902832)"
                 id="g88"><g
                   id="g90"><g
                     clip-path="url(#clipPath80)"
                     id="g92"><g
                       id="g94"><path
                         d="m 88.633,461.812 430.847,0 c 17.262,0 31.161,-13.894 31.161,-31.156 l 0,-144.035 c 0,-17.262 -13.899,-31.16 -31.161,-31.16 l -430.847,0 c -17.262,0 -31.16,13.898 -31.16,31.16 l 0,144.035 c 0,17.262 13.898,31.156 31.16,31.156 z"
                         style="fill:#b3b3b3;fill-opacity:1;fill-rule:nonzero;stroke:none"
                         id="path96" /></g></g></g></g></g></g></g></g><g
         id="g98"><g
           id="g100"
           clip-path="url(#clipPath102)"><g
             id="g106"
             transform="matrix(0.8,0,0,-0.8,194.8055,325.85089)"><g
               id="g108" /><g
               id="g128"
               mask="url(#mask120)"><path
                 d="m 70.387,146.355 198.004,0 c 4.117,0 7.425,-3.313 7.425,-7.426 l 0,-66.164 c 0,-4.113 -3.308,-7.422 -7.425,-7.422 l -198.004,0 c -4.114,0 -7.426,3.309 -7.426,7.422 l 0,66.164 c 0,4.113 3.312,7.426 7.426,7.426 z"
                 style="fill:url(#linearGradient130);stroke:none"
                 id="path136" /></g></g></g></g><g
         id="g138"
         transform="matrix(1,0,0,-1,0,576.09717)"><path
           d="m 70.387,429.742 198.004,0 c 4.117,0 7.425,3.313 7.425,7.426 l 0,66.164 c 0,4.113 -3.308,7.422 -7.425,7.422 l -198.004,0 c -4.114,0 -7.426,-3.309 -7.426,-7.422 l 0,-66.164 c 0,-4.113 3.312,-7.426 7.426,-7.426 z"
           style="fill:none;stroke:#000000;stroke-opacity:1;stroke-width:2.4;stroke-linecap:round;stroke-linejoin:miter;stroke-miterlimit:4;stroke-dasharray:none"
           id="path140" /></g><text
         transform="matrix(1,0,0,-1,99.917989,123.10377)"
         id="text142"><tspan
           style="fill:#000000;fill-opacity:1;fill-rule:nonzero;stroke:none;font-family:Charis SIL;font-variant:normal;font-weight:normal;font-size:18;writing-mode:lr;-inkscape-font-specification:CharisSIL"
           x="0 10.422 23.796 36.936 49.914 63.054 72.594 85.734 98.226 104.166 115.434 127.548"
           y="0"
           sodipodi:role="line"
           id="tspan144">PHONOLOGICAL</tspan><tspan
           style="fill:#000000;fill-opacity:1;fill-rule:nonzero;stroke:none;font-family:Charis SIL;font-variant:normal;font-weight:normal;font-size:18;writing-mode:lr;-inkscape-font-specification:CharisSIL"
           x="-28.6875 -16.5735 -3.5955 8.9145 14.1705 29.9205 43.0605 54.7245 65.1465 78.5205 91.6605 101.2005 114.3405 126.8325 132.7725 144.0405 156.1545"
           y="22.5"
           sodipodi:role="line"
           id="tspan146">AND MORPHOLOGICAL</tspan><tspan
           style="fill:#000000;fill-opacity:1;fill-rule:nonzero;stroke:none;font-family:Charis SIL;font-variant:normal;font-weight:normal;font-size:18;writing-mode:lr;-inkscape-font-specification:CharisSIL"
           x="-10.564452 1.099548 11.593548 22.861548 36.001548 48.979548 58.339548 69.121548 80.785548 93.583548 104.851548 115.633548 121.573548 134.713548"
           y="45"
           sodipodi:role="line"
           id="tspan148">RECONSTRUCTION</tspan></text>
<g
         id="g150"><g
           id="g152"
           clip-path="url(#clipPath154)"><g
             id="g158"
             transform="matrix(0.8,0,0,-0.8,471.93015,325.8509)"><g
               id="g160" /><g
               id="g180"
               mask="url(#mask172)"><path
                 d="m 347.512,146.355 198.004,0 c 4.113,0 7.425,-3.313 7.425,-7.426 l 0,-66.164 c 0,-4.113 -3.312,-7.422 -7.425,-7.422 l -198.004,0 c -4.114,0 -7.426,3.309 -7.426,7.422 l 0,66.164 c 0,4.113 3.312,7.426 7.426,7.426 z"
                 style="fill:url(#linearGradient182);stroke:none"
                 id="path188" /></g></g></g></g><g
         id="g190"
         transform="matrix(1,0,0,-1,0,576.09717)"><path
           d="m 347.512,429.742 198.004,0 c 4.113,0 7.425,3.313 7.425,7.426 l 0,66.164 c 0,4.113 -3.312,7.422 -7.425,7.422 l -198.004,0 c -4.114,0 -7.426,-3.309 -7.426,-7.422 l 0,-66.164 c 0,-4.113 3.312,-7.426 7.426,-7.426 z"
           style="fill:none;stroke:#000000;stroke-opacity:1;stroke-width:2.4;stroke-linecap:round;stroke-linejoin:miter;stroke-miterlimit:4;stroke-dasharray:none"
           id="path192" /></g><text
         transform="matrix(1,0,0,-1,375.84626,122.88045)"
         id="text194"><tspan
           style="fill:#000000;fill-opacity:1;fill-rule:nonzero;stroke:none;font-family:Charis SIL;font-variant:normal;font-weight:normal;font-size:18;writing-mode:lr;-inkscape-font-specification:CharisSIL"
           x="0 5.94 18.45 28.944 41.922 52.704 58.644 68.382 74.322 85.59 97.704 108.486 114.426 127.566"
           y="0"
           sodipodi:role="line"
           id="tspan196">IDENTIFICATION</tspan><tspan
           style="fill:#000000;fill-opacity:1;fill-rule:nonzero;stroke:none;font-family:Charis SIL;font-variant:normal;font-weight:normal;font-size:18;writing-mode:lr;-inkscape-font-specification:CharisSIL"
           x="58.869144 72.009144"
           y="22.5"
           sodipodi:role="line"
           id="tspan198">OF</tspan><tspan
           style="fill:#000000;fill-opacity:1;fill-rule:nonzero;stroke:none;font-family:Charis SIL;font-variant:normal;font-weight:normal;font-size:18;writing-mode:lr;-inkscape-font-specification:CharisSIL"
           x="9.61524 15.55524 28.53324 41.51124 54.65124 66.63924 78.75324 89.53524 95.47524 108.61524 121.59324"
           y="45"
           sodipodi:role="line"
           id="tspan200">INNOVATIONS</tspan></text>
<g
         id="g202"><g
           id="g204"
           clip-path="url(#clipPath206)"><g
             id="g210"
             transform="matrix(0.8,0,0,-0.8,734.0687,325.85088)"><g
               id="g212" /><g
               id="g232"
               mask="url(#mask224)"><path
                 d="m 609.652,146.355 198.004,0 c 4.114,0 7.426,-3.313 7.426,-7.426 l 0,-66.164 c 0,-4.113 -3.312,-7.422 -7.426,-7.422 l -198.004,0 c -4.113,0 -7.425,3.309 -7.425,7.422 l 0,66.164 c 0,4.113 3.312,7.426 7.425,7.426 z"
                 style="fill:url(#linearGradient234);stroke:none"
                 id="path240" /></g></g></g></g><g
         id="g242"
         transform="matrix(1,0,0,-1,0,576.09717)"><path
           d="m 609.652,429.742 198.004,0 c 4.114,0 7.426,3.313 7.426,7.426 l 0,66.164 c 0,4.113 -3.312,7.422 -7.426,7.422 l -198.004,0 c -4.113,0 -7.425,-3.309 -7.425,-7.422 l 0,-66.164 c 0,-4.113 3.312,-7.426 7.425,-7.426 z"
           style="fill:none;stroke:#000000;stroke-opacity:1;stroke-width:2.4;stroke-linecap:round;stroke-linejoin:miter;stroke-miterlimit:4;stroke-dasharray:none"
           id="path244" /></g><text
         transform="matrix(1,0,0,-1,629.63999,126.28072)"
         id="text246"><tspan
           style="fill:#000000;fill-opacity:1;fill-rule:nonzero;stroke:none;font-family:Charis SIL;font-variant:normal;font-weight:normal;font-size:18;writing-mode:lr;-inkscape-font-specification:CharisSIL"
           x="0 11.664 22.158 33.426 46.566 59.544 68.904 79.686 91.35 104.148 115.416 126.198 132.138 145.278"
           y="0"
           sodipodi:role="line"
           id="tspan248">RECONSTRUCTION</tspan><tspan
           style="fill:#000000;fill-opacity:1;fill-rule:nonzero;stroke:none;font-family:Charis SIL;font-variant:normal;font-weight:normal;font-size:18;writing-mode:lr;-inkscape-font-specification:CharisSIL"
           x="67.746096 80.886096"
           y="22.5"
           sodipodi:role="line"
           id="tspan250">OF</tspan><tspan
           style="fill:#000000;fill-opacity:1;fill-rule:nonzero;stroke:none;font-family:Charis SIL;font-variant:normal;font-weight:normal;font-size:18;writing-mode:lr;-inkscape-font-specification:CharisSIL"
           x="19.35351 29.77551 43.14951 54.45351 63.99351 77.13351 89.62551 100.11951 113.09751 119.03751 129.53151"
           y="45"
           sodipodi:role="line"
           id="tspan252">PHYLOGENIES</tspan></text>
<g
         id="g254"><g
           id="g256"
           clip-path="url(#clipPath258)"><g
             id="g262"
             transform="matrix(0.8,0,0,-0.8,730.11613,754.39442)"><g
               id="g264" /><g
               id="g284"
               mask="url(#mask276)"><path
                 d="m 605.699,574.898 198.004,0 c 4.113,0 7.426,-3.313 7.426,-7.426 l 0,-66.16 c 0,-4.113 -3.313,-7.426 -7.426,-7.426 l -198.004,0 c -4.113,0 -7.426,3.313 -7.426,7.426 l 0,66.16 c 0,4.113 3.313,7.426 7.426,7.426 z"
                 style="fill:url(#linearGradient286);stroke:none"
                 id="path292" /></g></g></g></g><g
         id="g294"
         transform="matrix(1,0,0,-1,0,576.09717)"><path
           d="m 605.699,1.199 198.004,0 c 4.113,0 7.426,3.313 7.426,7.426 l 0,66.16 c 0,4.113 -3.313,7.426 -7.426,7.426 l -198.004,0 c -4.113,0 -7.426,-3.313 -7.426,-7.426 l 0,-66.16 c 0,-4.113 3.313,-7.426 7.426,-7.426 z"
           style="fill:none;stroke:#000000;stroke-opacity:1;stroke-width:2.4;stroke-linecap:round;stroke-linejoin:miter;stroke-miterlimit:4;stroke-dasharray:none"
           id="path296" /></g><text
         transform="matrix(1,0,0,-1,673.52871,553.24469)"
         id="text298"><tspan
           style="fill:#000000;fill-opacity:1;fill-rule:nonzero;stroke:none;font-family:Charis SIL;font-variant:normal;font-weight:normal;font-size:18;writing-mode:lr;-inkscape-font-specification:CharisSIL"
           x="0 10.422 23.22 34.092 43.632 49.572 58.932"
           y="0"
           sodipodi:role="line"
           id="tspan300">PUBLISH</tspan><tspan
           style="fill:#000000;fill-opacity:1;fill-rule:nonzero;stroke:none;font-family:Charis SIL;font-variant:normal;font-weight:normal;font-size:18;writing-mode:lr;-inkscape-font-specification:CharisSIL"
           x="-31.623048 -21.129048 -10.347048 0.902952 16.706952 29.846952 39.386952 52.526952 65.018952 70.958952 82.226952 94.340952"
           y="22.5"
           sodipodi:role="line"
           id="tspan302">ETYMOLOGICAL</tspan><tspan
           style="fill:#000000;fill-opacity:1;fill-rule:nonzero;stroke:none;font-family:Charis SIL;font-variant:normal;font-weight:normal;font-size:18;writing-mode:lr;-inkscape-font-specification:CharisSIL"
           x="-17.630856 -5.120856 0.819144 12.087144 22.869144 28.809144 41.949144 54.927144 67.041144 78.705144"
           y="45"
           sodipodi:role="line"
           id="tspan304">DICTIONARY</tspan></text>
<g
         id="g306"><g
           id="g308"
           clip-path="url(#clipPath310)"><g
             id="g314"
             transform="matrix(0.8,0,0,-0.8,192.01391,754.39442)"><g
               id="g316" /><g
               id="g336"
               mask="url(#mask328)"><path
                 d="m 67.598,574.898 198.004,0 c 4.113,0 7.425,-3.313 7.425,-7.426 l 0,-66.16 c 0,-4.113 -3.312,-7.426 -7.425,-7.426 l -198.004,0 c -4.114,0 -7.426,3.313 -7.426,7.426 l 0,66.16 c 0,4.113 3.312,7.426 7.426,7.426 z"
                 style="fill:url(#linearGradient338);stroke:none"
                 id="path344" /></g></g></g></g><g
         id="g346"
         transform="matrix(1,0,0,-1,0,576.09717)"><path
           d="m 67.598,1.199 198.004,0 c 4.113,0 7.425,3.313 7.425,7.426 l 0,66.16 c 0,4.113 -3.312,7.426 -7.425,7.426 l -198.004,0 c -4.114,0 -7.426,-3.313 -7.426,-7.426 l 0,-66.16 c 0,-4.113 3.312,-7.426 7.426,-7.426 z"
           style="fill:none;stroke:#000000;stroke-opacity:1;stroke-width:2.4;stroke-linecap:round;stroke-linejoin:miter;stroke-miterlimit:4;stroke-dasharray:none"
           id="path348" /></g><text
         transform="matrix(1,0,0,-1,122.59711,551.64729)"
         id="text350"><tspan
           style="fill:#000000;fill-opacity:1;fill-rule:nonzero;stroke:none;font-family:Charis SIL;font-variant:normal;font-weight:normal;font-size:18;writing-mode:lr;-inkscape-font-specification:CharisSIL"
           x="0 10.422 22.086 35.226 48.366 58.104 63.36 76.5"
           y="0"
           sodipodi:role="line"
           id="tspan352">PROOF OF</tspan><tspan
           style="fill:#000000;fill-opacity:1;fill-rule:nonzero;stroke:none;font-family:Charis SIL;font-variant:normal;font-weight:normal;font-size:18;writing-mode:lr;-inkscape-font-specification:CharisSIL"
           x="-4.412106 5.127894 17.241894 30.219894 42.711894 55.509894 67.623894 80.115894"
           y="22.5"
           sodipodi:role="line"
           id="tspan354">LANGUAGE</tspan><tspan
           style="fill:#000000;fill-opacity:1;fill-rule:nonzero;stroke:none;font-family:Charis SIL;font-variant:normal;font-weight:normal;font-size:18;writing-mode:lr;-inkscape-font-specification:CharisSIL"
           x="-19.792962 -8.128962 2.365038 11.905038 24.019038 34.801038 40.741038 53.881038 66.859038 76.219038 89.593038 95.533038"
           y="45"
           sodipodi:role="line"
           id="tspan356">RELATIONSHIP</tspan></text>
<g
         id="g358"><g
           id="g360"
           clip-path="url(#clipPath362)"><g
             id="g366"
             transform="matrix(0.8,0,0,-0.8,469.29942,576.9226)"><g
               id="g368" /><g
               id="g388"
               mask="url(#mask380)"><path
                 d="m 344.883,397.425 198.004,0 c 4.113,0 7.425,-3.312 7.425,-7.425 l 0,-66.161 c 0,-4.113 -3.312,-7.425 -7.425,-7.425 l -198.004,0 c -4.113,0 -7.426,3.312 -7.426,7.425 l 0,66.161 c 0,4.113 3.313,7.425 7.426,7.425 z"
                 style="fill:url(#linearGradient390);stroke:none"
                 id="path396" /></g></g></g></g><g
         id="g398"
         transform="matrix(1,0,0,-1,0,576.09717)"><path
           d="m 344.883,178.672 198.004,0 c 4.113,0 7.425,3.312 7.425,7.426 l 0,66.16 c 0,4.113 -3.312,7.426 -7.425,7.426 l -198.004,0 c -4.113,0 -7.426,-3.313 -7.426,-7.426 l 0,-66.16 c 0,-4.114 3.313,-7.426 7.426,-7.426 z"
           style="fill:none;stroke:#000000;stroke-opacity:1;stroke-width:2.4;stroke-linecap:round;stroke-linejoin:miter;stroke-miterlimit:4;stroke-dasharray:none"
           id="path400" /></g><text
         transform="matrix(1,0,0,-1,412.62675,374.17548)"
         id="text402"><tspan
           style="fill:#000000;fill-opacity:1;fill-rule:nonzero;stroke:none;font-family:Charis SIL;font-variant:normal;font-weight:normal;font-size:18;writing-mode:lr;-inkscape-font-specification:CharisSIL"
           x="0 9.36 22.5 35.298 48.276"
           y="0"
           sodipodi:role="line"
           id="tspan404">SOUND</tspan><tspan
           style="fill:#000000;fill-opacity:1;fill-rule:nonzero;stroke:none;font-family:Charis SIL;font-variant:normal;font-weight:normal;font-size:18;writing-mode:lr;-inkscape-font-specification:CharisSIL"
           x="-50.607414 -39.339414 -26.199414 -14.535414 -2.871414 7.622586 16.982586 27.404586 40.544586 53.522586 66.032586 76.526586 89.504586 100.772586"
           y="22.5"
           sodipodi:role="line"
           id="tspan406">CORRESPONDENCE</tspan><tspan
           style="fill:#000000;fill-opacity:1;fill-rule:nonzero;stroke:none;font-family:Charis SIL;font-variant:normal;font-weight:normal;font-size:18;writing-mode:lr;-inkscape-font-specification:CharisSIL"
           x="-39.902328 -33.962328 -21.452328 -10.958328 2.019672 12.801672 18.741672 28.479672 34.419672 45.687672 57.801672 68.583672 74.523672 87.663672"
           y="45"
           sodipodi:role="line"
           id="tspan408">IDENTIFICATION</tspan></text>
<g
         id="g410"><g
           id="g412"
           clip-path="url(#clipPath414)"><g
             id="g418"
             transform="matrix(0.8,0,0,-0.8,191.14834,576.9226)"><g
               id="g420" /><g
               id="g440"
               mask="url(#mask432)"><path
                 d="m 66.73,397.425 198.004,0 c 4.114,0 7.426,-3.312 7.426,-7.425 l 0,-66.161 c 0,-4.113 -3.312,-7.425 -7.426,-7.425 l -198.004,0 c -4.113,0 -7.425,3.312 -7.425,7.425 l 0,66.161 c 0,4.113 3.312,7.425 7.425,7.425 z"
                 style="fill:url(#linearGradient442);stroke:none"
                 id="path448" /></g></g></g></g><g
         id="g450"
         transform="matrix(1,0,0,-1,0,576.09717)"><path
           d="m 66.73,178.672 198.004,0 c 4.114,0 7.426,3.312 7.426,7.426 l 0,66.16 c 0,4.113 -3.312,7.426 -7.426,7.426 l -198.004,0 c -4.113,0 -7.425,-3.313 -7.425,-7.426 l 0,-66.16 c 0,-4.114 3.312,-7.426 7.425,-7.426 z"
           style="fill:none;stroke:#000000;stroke-opacity:1;stroke-width:2.4;stroke-linecap:round;stroke-linejoin:miter;stroke-miterlimit:4;stroke-dasharray:none"
           id="path452" /></g><text
         transform="matrix(1,0,0,-1,123.2081,374.17548)"
         id="text454"><tspan
           style="fill:#000000;fill-opacity:1;fill-rule:nonzero;stroke:none;font-family:Charis SIL;font-variant:normal;font-weight:normal;font-size:18;writing-mode:lr;-inkscape-font-specification:CharisSIL"
           x="0 11.268 24.408 36.9 49.878 61.992 72.774"
           y="0"
           sodipodi:role="line"
           id="tspan456">COGNATE</tspan><tspan
           style="fill:#000000;fill-opacity:1;fill-rule:nonzero;stroke:none;font-family:Charis SIL;font-variant:normal;font-weight:normal;font-size:18;writing-mode:lr;-inkscape-font-specification:CharisSIL"
           x="26.332038 35.692038 46.186038"
           y="22.5"
           sodipodi:role="line"
           id="tspan458">SET</tspan><tspan
           style="fill:#000000;fill-opacity:1;fill-rule:nonzero;stroke:none;font-family:Charis SIL;font-variant:normal;font-weight:normal;font-size:18;writing-mode:lr;-inkscape-font-specification:CharisSIL"
           x="-28.63476 -22.69476 -10.18476 0.30924 13.28724 24.06924 30.00924 39.74724 45.68724 56.95524 69.06924 79.85124 85.79124 98.93124"
           y="45"
           sodipodi:role="line"
           id="tspan460">IDENTIFICATION</tspan></text>
<g
         id="g462"
         transform="matrix(1,0,0,-1,0,576.09717)"><path
           d="m 196.324,169.586 c 98.071,-80.285 163.977,-44.578 228.504,0"
           style="fill:none;stroke:#ff0000;stroke-opacity:1;stroke-width:4;stroke-linecap:round;stroke-linejoin:miter;stroke-miterlimit:4;stroke-dasharray:none"
           id="path464" /></g><g
         id="g466"
         transform="matrix(-1,0.690812,0.690812,1,0,576.09717)"><path
           d="m -331.71,98.47 -39.552,-14.545 39.553,-14.546 c -6.32,8.589 -6.283,20.337 -10e-4,29.091 z"
           style="fill:#ff0000;fill-opacity:1;fill-rule:evenodd;stroke:#ff0000;stroke-opacity:1;stroke-width:2.262611;stroke-linecap:butt;stroke-linejoin:round;stroke-miterlimit:4;stroke-dasharray:none"
           id="path468" /></g><g
         id="g470"
         transform="matrix(1,0,0,-1,0,576.09717)"><path
           d="m 420.668,269.195 c -98.07,80.285 -163.977,44.578 -228.504,0"
           style="fill:none;stroke:#ff0000;stroke-opacity:1;stroke-width:4;stroke-linecap:round;stroke-linejoin:miter;stroke-miterlimit:4;stroke-dasharray:none"
           id="path472" /></g><g
         id="g474"
         transform="matrix(1,-0.690812,-0.690812,-1,0,576.09717)"><path
           d="M 291.153,106.969 251.599,92.426 291.152,77.88 c -6.318,8.587 -6.28,20.335 0.001,29.089 z"
           style="fill:#ff0000;fill-opacity:1;fill-rule:evenodd;stroke:#ff0000;stroke-opacity:1;stroke-width:2.262611;stroke-linecap:butt;stroke-linejoin:round;stroke-miterlimit:4;stroke-dasharray:none"
           id="path476" /></g><g
         id="g478"
         transform="matrix(1,0,0,-1,0,576.09717)"><path
           d="m 278.102,37.316 c 101.894,-33.859 52.089,31.481 35.039,64.891"
           style="fill:none;stroke:#008000;stroke-opacity:1;stroke-width:4;stroke-linecap:round;stroke-linejoin:miter;stroke-miterlimit:4;stroke-dasharray:none"
           id="path480" /></g><g
         id="g482"
         transform="matrix(0.510294,1,1,-0.510294,0,576.09717)"><path
           d="M 83.777,305.636 40.956,289.889 83.777,274.144 c -6.839,9.294 -6.8,22.017 0,31.492 z"
           style="fill:#008000;fill-opacity:1;fill-rule:evenodd;stroke:#008000;stroke-opacity:1;stroke-width:2.449506;stroke-linecap:butt;stroke-linejoin:round;stroke-miterlimit:4;stroke-dasharray:none"
           id="path484" /></g><g
         id="g486"
         transform="matrix(1,0,0,-1,0,576.09717)"><path
           d="m 194.199,421.805 c 98.071,-80.285 163.977,-44.578 228.504,0"
           style="fill:none;stroke:#ff0000;stroke-opacity:1;stroke-width:4;stroke-linecap:round;stroke-linejoin:miter;stroke-miterlimit:4;stroke-dasharray:none"
           id="path488" /></g><g
         id="g490"
         transform="matrix(-1,0.690812,0.690812,1,0,576.09717)"><path
           d="m -448.22,-73.263 -39.552,-14.544 39.553,-14.546 c -6.32,8.589 -6.283,20.336 -0.001,29.09 z"
           style="fill:#ff0000;fill-opacity:1;fill-rule:evenodd;stroke:#ff0000;stroke-opacity:1;stroke-width:2.262611;stroke-linecap:butt;stroke-linejoin:round;stroke-miterlimit:4;stroke-dasharray:none"
           id="path492" /></g><g
         id="g494"
         transform="matrix(1,0,0,-1,0,576.09717)"><path
           d="m 473.441,422.109 c 98.067,-80.285 163.973,-44.578 228.504,0"
           style="fill:none;stroke:#ff0000;stroke-opacity:1;stroke-width:4;stroke-linecap:round;stroke-linejoin:miter;stroke-miterlimit:4;stroke-dasharray:none"
           id="path496" /></g><g
         id="g498"
         transform="matrix(-1,0.690812,0.690812,1,0,576.09717)"><path
           d="m -637.39,57.118 -39.556,-14.546 39.555,-14.543 c -6.318,8.587 -6.284,20.336 10e-4,29.089 z"
           style="fill:#ff0000;fill-opacity:1;fill-rule:evenodd;stroke:#ff0000;stroke-opacity:1;stroke-width:2.262611;stroke-linecap:butt;stroke-linejoin:round;stroke-miterlimit:4;stroke-dasharray:none"
           id="path500" /></g><g
         id="g502"
         transform="matrix(1,0,0,-1,0,576.09717)"><path
           d="m 699.867,513.738 c -83.582,89.246 -446.23,68.09 -519.859,2.594"
           style="fill:none;stroke:#ff0000;stroke-opacity:1;stroke-width:4;stroke-linecap:round;stroke-linejoin:miter;stroke-miterlimit:4;stroke-dasharray:none"
           id="path504" /></g><g
         id="g506"
         transform="matrix(1,-0.88949,-0.88949,-1,0,576.09717)"><path
           d="m 388.852,212.135 -35.918,-13.211 35.919,-13.207 c -5.738,7.799 -5.705,18.468 -0.001,26.418 z"
           style="fill:#ff0000;fill-opacity:1;fill-rule:evenodd;stroke:#ff0000;stroke-opacity:1;stroke-width:2.054762;stroke-linecap:butt;stroke-linejoin:round;stroke-miterlimit:4;stroke-dasharray:none"
           id="path508" /></g><g
         id="g510"
         transform="matrix(1,0,0,-1,0,576.09717)"><path
           d="m 49.742,213.648 c -80.285,98.067 -44.578,163.973 0,228.504"
           style="fill:none;stroke:#0000ff;stroke-opacity:1;stroke-width:4;stroke-linecap:round;stroke-linejoin:miter;stroke-miterlimit:4;stroke-dasharray:none"
           id="path512" /></g><g
         id="g514"
         transform="matrix(-0.690812,1,1,0.690812,0,576.09717)"><path
           d="m -287.39,-158.493 -39.553,-14.547 39.552,-14.544 c -6.319,8.588 -6.283,20.336 0.001,29.091 z"
           style="fill:#0000ff;fill-opacity:1;fill-rule:evenodd;stroke:#0000ff;stroke-opacity:1;stroke-width:2.262611;stroke-linecap:butt;stroke-linejoin:round;stroke-miterlimit:4;stroke-dasharray:none"
           id="path516" /></g><g
         id="g518"
         transform="matrix(1,0,0,-1,0,576.09717)"><path
           d="M 737.215,366.777 C 738.582,233.836 668,214.73 559.184,217.195"
           style="fill:none;stroke:#0000ff;stroke-opacity:1;stroke-width:4;stroke-linecap:round;stroke-linejoin:miter;stroke-miterlimit:4;stroke-dasharray:none"
           id="path520" /></g><g
         id="g522"
         transform="matrix(1,0.0226229,0.0226229,-1,0,576.09717)"><path
           d="m 596.737,247.469 -48.061,-17.674 48.064,-17.67 c -7.677,10.432 -7.633,24.71 -0.003,35.344 z"
           style="fill:#0000ff;fill-opacity:1;fill-rule:evenodd;stroke:#0000ff;stroke-opacity:1;stroke-width:2.749297;stroke-linecap:butt;stroke-linejoin:round;stroke-miterlimit:4;stroke-dasharray:none"
           id="path524" /></g><g
         id="g526"
         transform="matrix(1,0,0,-1,0,576.09717)"><path
           d="M 811.672,377.836 C 931.785,259.203 909.328,118.969 819.93,42.883"
           style="fill:none;stroke:#008000;stroke-opacity:1;stroke-width:4;stroke-linecap:round;stroke-linejoin:miter;stroke-miterlimit:4;stroke-dasharray:none"
           id="path528" /></g><g
         id="g530"
         transform="matrix(1,-0.851135,-0.851135,-1,0,576.09717)"><path
           d="m 529.209,-366.315 -36.61,-13.461 36.608,-13.463 c -5.847,7.949 -5.812,18.822 0.002,26.924 z"
           style="fill:#008000;fill-opacity:1;fill-rule:evenodd;stroke:#008000;stroke-opacity:1;stroke-width:2.09416;stroke-linecap:butt;stroke-linejoin:round;stroke-miterlimit:4;stroke-dasharray:none"
           id="path532" /></g></g></g></svg>