<?xml version="1.0" encoding="UTF-8" standalone="no"?>
<!-- Created with Inkscape (http://www.inkscape.org/) -->

<svg
   xmlns:dc="http://purl.org/dc/elements/1.1/"
   xmlns:cc="http://creativecommons.org/ns#"
   xmlns:rdf="http://www.w3.org/1999/02/22-rdf-syntax-ns#"
   xmlns:svg="http://www.w3.org/2000/svg"
   xmlns="http://www.w3.org/2000/svg"
   xmlns:sodipodi="http://sodipodi.sourceforge.net/DTD/sodipodi-0.dtd"
   xmlns:inkscape="http://www.inkscape.org/namespaces/inkscape"
   id="svg2"
   version="1.1"
   inkscape:version="0.48.4 r9939"
   width="389.7625"
   height="318.89999"
   xml:space="preserve"
   sodipodi:docname="cm_0.pdf"><metadata
     id="metadata8"><rdf:RDF><cc:Work
         rdf:about=""><dc:format>image/svg+xml</dc:format><dc:type
           rdf:resource="http://purl.org/dc/dcmitype/StillImage" /><dc:title></dc:title></cc:Work></rdf:RDF></metadata><defs
     id="defs6"><clipPath
       clipPathUnits="userSpaceOnUse"
       id="clipPath22"><path
         d="m 100,212 75,0 0,38 -75,0 0,-38 z"
         id="path24" /></clipPath><clipPath
       clipPathUnits="userSpaceOnUse"
       id="clipPath44"><path
         d="m 10,118 81,0 0,38 -81,0 0,-38 z"
         id="path46" /></clipPath><clipPath
       clipPathUnits="userSpaceOnUse"
       id="clipPath74"><path
         d="m 179,118 129,0 0,38 -129,0 0,-38 z"
         id="path76" /></clipPath><clipPath
       clipPathUnits="userSpaceOnUse"
       id="clipPath104"><path
         d="M 6,24 95,24 95,62 6,62 6,24 z"
         id="path106" /></clipPath><clipPath
       clipPathUnits="userSpaceOnUse"
       id="clipPath126"><path
         d="m 204,24 79,0 0,38 -79,0 0,-38 z"
         id="path128" /></clipPath><clipPath
       clipPathUnits="userSpaceOnUse"
       id="clipPath156"><path
         d="m 66,155 55,0 0,59 -55,0 0,-59 z"
         id="path158" /></clipPath><clipPath
       clipPathUnits="userSpaceOnUse"
       id="clipPath174"><path
         d="m 90,152 104,0 0,13 -104,0 0,-13 z"
         id="path176" /></clipPath><clipPath
       clipPathUnits="userSpaceOnUse"
       id="clipPath196"><path
         d="m 93,110 99,0 0,13 -99,0 0,-13 z"
         id="path198" /></clipPath><clipPath
       clipPathUnits="userSpaceOnUse"
       id="clipPath218"><path
         d="m 86,61 120,0 0,60 -120,0 0,-60 z"
         id="path220" /></clipPath><clipPath
       clipPathUnits="userSpaceOnUse"
       id="clipPath236"><path
         d="m 90,134 90,0 0,8 -90,0 0,-8 z"
         id="path238" /></clipPath><clipPath
       clipPathUnits="userSpaceOnUse"
       id="clipPath254"><path
         d="m 94,39 111,0 0,9 -111,0 0,-9 z"
         id="path256" /></clipPath><clipPath
       clipPathUnits="userSpaceOnUse"
       id="clipPath272"><path
         d="m 94,58 108,0 0,12 -108,0 0,-12 z"
         id="path274" /></clipPath><clipPath
       clipPathUnits="userSpaceOnUse"
       id="clipPath294"><path
         d="m 97,17 108,0 0,13 -108,0 0,-13 z"
         id="path296" /></clipPath></defs><sodipodi:namedview
     pagecolor="#ffffff"
     bordercolor="#666666"
     borderopacity="1"
     objecttolerance="10"
     gridtolerance="10"
     guidetolerance="10"
     inkscape:pageopacity="0"
     inkscape:pageshadow="2"
     inkscape:window-width="640"
     inkscape:window-height="480"
     id="namedview4"
     showgrid="false"
     inkscape:zoom="0.74004392"
     inkscape:cx="194.88126"
     inkscape:cy="159.45"
     inkscape:window-x="65"
     inkscape:window-y="24"
     inkscape:window-maximized="0"
     inkscape:current-layer="g10" /><g
     id="g10"
     inkscape:groupmode="layer"
     inkscape:label="cm_0"
     transform="matrix(1.25,0,0,-1.25,0,318.89999)"><g
       id="g12" /><g
       id="g14"><g
         id="g16"
         transform="translate(0,-0.880005)"><g
           id="g18"><g
             id="g20"
             clip-path="url(#clipPath22)"><g
               id="g26"><g
                 id="g28"
                 transform="translate(0,256)"><path
                   d="m 100.785,-24.828 0,17.836 72.887,0 0,-35.668 -72.887,0 0,17.832 z"
                   style="fill:none;stroke:#000000;stroke-opacity:1;stroke-width:0.797012;stroke-linecap:butt;stroke-linejoin:miter;stroke-miterlimit:10;stroke-dasharray:none"
                   id="path30" /></g></g></g></g></g><text
         transform="matrix(1,0,0,-1,118.08,234.61999)"
         id="text32"><tspan
           style="fill:#000000;fill-opacity:1;fill-rule:nonzero;stroke:none;font-family:FreeSerif;font-variant:normal;font-weight:normal;font-size:11.955;writing-mode:lr;-inkscape-font-specification:FreeSerif"
           x="0 5.85795 9.77919 15.75669 21.554865 28.512675 34.322805"
           y="0"
           sodipodi:role="line"
           id="tspan34">proofof</tspan><tspan
           style="fill:#000000;fill-opacity:1;fill-rule:nonzero;stroke:none;font-family:FreeSerif;font-variant:normal;font-weight:normal;font-size:11.955;writing-mode:lr;-inkscape-font-specification:FreeSerif"
           x="-7.93000256 -3.99680756 0.83301244 3.79785244 8.99827744 12.22612745 15.37029245 21.16846745 26.90686745 31.29435245 37.17621245 40.26060245"
           y="14.440002"
           sodipodi:role="line"
           id="tspan36">relationship</tspan></text>
<g
         id="g38"
         transform="translate(0,-0.880005)"><g
           id="g40"><g
             id="g42"
             clip-path="url(#clipPath44)"><g
               id="g48"><g
                 id="g50"
                 transform="translate(0,256)"><path
                   d="m 10.93,-118.98 0,17.832 79.39,0 0,-35.664 -79.39,0 0,17.832 z"
                   style="fill:none;stroke:#000000;stroke-opacity:1;stroke-width:0.797012;stroke-linecap:butt;stroke-linejoin:miter;stroke-miterlimit:10;stroke-dasharray:none"
                   id="path52" /></g></g></g></g></g><text
         transform="matrix(1,0,0,-1,20.29,140.46999)"
         id="text54"><tspan
           style="fill:#000000;fill-opacity:1;fill-rule:nonzero;stroke:none;font-family:FreeSerif;font-variant:normal;font-weight:normal;font-size:11.955;writing-mode:lr;-inkscape-font-specification:FreeSerif"
           x="0 3.15612 9.01407 14.023215 20.000715 23.204655"
           y="0"
           sodipodi:role="line"
           id="tspan56">identi</tspan></text>
<text
         transform="matrix(1,0,0,-1,46.51927,140.46999)"
         id="text58"><tspan
           style="fill:#000000;fill-opacity:1;fill-rule:nonzero;stroke:none;font-family:FreeSerif;font-variant:normal;font-weight:normal;font-size:11.955;writing-mode:lr;-inkscape-font-specification:FreeSerif"
           x="0"
           y="0"
           id="tspan60">ﬁ</tspan></text>
<text
         transform="matrix(1,0,0,-1,52.723915,140.46999)"
         id="text62"><tspan
           style="fill:#000000;fill-opacity:1;fill-rule:nonzero;stroke:none;font-family:FreeSerif;font-variant:normal;font-weight:normal;font-size:11.955;writing-mode:lr;-inkscape-font-specification:FreeSerif"
           x="0 4.889595 10.09002 13.31787 16.462035 22.26021"
           y="0"
           sodipodi:role="line"
           id="tspan64">cation</tspan><tspan
           style="fill:#000000;fill-opacity:1;fill-rule:nonzero;stroke:none;font-family:FreeSerif;font-variant:normal;font-weight:normal;font-size:11.955;writing-mode:lr;-inkscape-font-specification:FreeSerif"
           x="-28.65391137 -22.85573637 -15.89792637 -10.81705137 -5.19820137 0.54019863 6.33837363 11.53879863 14.80251363 19.81165863"
           y="14.449997"
           sodipodi:role="line"
           id="tspan66">ofcognates</tspan></text>
<g
         id="g68"
         transform="translate(0,-0.880005)"><g
           id="g70"><g
             id="g72"
             clip-path="url(#clipPath74)"><g
               id="g78"><g
                 id="g80"
                 transform="translate(0,256)"><path
                   d="m 180.141,-118.98 0,17.832 127.078,0 0,-35.664 -127.078,0 0,17.832 z"
                   style="fill:none;stroke:#000000;stroke-opacity:1;stroke-width:0.797012;stroke-linecap:butt;stroke-linejoin:miter;stroke-miterlimit:10;stroke-dasharray:none"
                   id="path82" /></g></g></g></g></g><text
         transform="matrix(1,0,0,-1,206.96,140.46999)"
         id="text84"><tspan
           style="fill:#000000;fill-opacity:1;fill-rule:nonzero;stroke:none;font-family:FreeSerif;font-variant:normal;font-weight:normal;font-size:11.955;writing-mode:lr;-inkscape-font-specification:FreeSerif"
           x="0 3.15612 9.01407 14.023215 20.000715 23.204655"
           y="0"
           sodipodi:role="line"
           id="tspan86">identi</tspan></text>
<text
         transform="matrix(1,0,0,-1,233.18927,140.46999)"
         id="text88"><tspan
           style="fill:#000000;fill-opacity:1;fill-rule:nonzero;stroke:none;font-family:FreeSerif;font-variant:normal;font-weight:normal;font-size:11.955;writing-mode:lr;-inkscape-font-specification:FreeSerif"
           x="0"
           y="0"
           id="tspan90">ﬁ</tspan></text>
<text
         transform="matrix(1,0,0,-1,239.39391,140.46999)"
         id="text92"><tspan
           style="fill:#000000;fill-opacity:1;fill-rule:nonzero;stroke:none;font-family:FreeSerif;font-variant:normal;font-weight:normal;font-size:11.955;writing-mode:lr;-inkscape-font-specification:FreeSerif"
           x="0 4.889595 10.09002 13.31787 16.462035 22.26021 31.214505 37.024635"
           y="0"
           sodipodi:role="line"
           id="tspan94">cationof</tspan><tspan
           style="fill:#000000;fill-opacity:1;fill-rule:nonzero;stroke:none;font-family:FreeSerif;font-variant:normal;font-weight:normal;font-size:11.955;writing-mode:lr;-inkscape-font-specification:FreeSerif"
           x="-49.89391754 -45.29124254 -39.42133754 -33.63511754 -27.71739254 -18.76309754 -13.68222254 -7.81231754 -3.84325754 0.07798247 5.08712747 9.25942247 15.23692247 21.03509747 26.95282247 32.81077246 37.83187247 43.74959747 48.81851746 53.82766247"
           y="14.449997"
           sodipodi:role="line"
           id="tspan96">soundcorrespondences</tspan></text>
<g
         id="g98"
         transform="translate(0,-0.880005)"><g
           id="g100"><g
             id="g102"
             clip-path="url(#clipPath104)"><g
               id="g108"><g
                 id="g110"
                 transform="translate(0,256)"><path
                   d="m 6.93,-213.133 0,17.832 87.39,0 0,-35.664 -87.39,0 0,17.832 z"
                   style="fill:none;stroke:#000000;stroke-opacity:1;stroke-width:0.797012;stroke-linecap:butt;stroke-linejoin:miter;stroke-miterlimit:10;stroke-dasharray:none"
                   id="path112" /></g></g></g></g></g><text
         transform="matrix(1,0,0,-1,17.44,46.319995)"
         id="text114"><tspan
           style="fill:#000000;fill-opacity:1;fill-rule:nonzero;stroke:none;font-family:FreeSerif;font-variant:normal;font-weight:normal;font-size:11.955;writing-mode:lr;-inkscape-font-specification:FreeSerif"
           x="0 3.933195 9.121665 14.190585 19.98876 25.72716 30.07878 33.40227 37.383285 43.18146 48.25038 51.45432 54.598485 60.39666"
           y="0"
           sodipodi:role="line"
           id="tspan116">reconstruction</tspan><tspan
           style="fill:#000000;fill-opacity:1;fill-rule:nonzero;stroke:none;font-family:FreeSerif;font-variant:normal;font-weight:normal;font-size:11.955;writing-mode:lr;-inkscape-font-specification:FreeSerif"
           x="-1.14000011 4.65817489 11.61598489 17.48588989 21.40712989 27.27703489 30.50488489 36.48238489 40.22429989 43.96621489 49.83611989 53.80517989 62.86706989"
           y="14.449997"
           sodipodi:role="line"
           id="tspan118">ofproto-forms</tspan></text>
<g
         id="g120"
         transform="translate(0,-0.880005)"><g
           id="g122"><g
             id="g124"
             clip-path="url(#clipPath126)"><g
               id="g130"><g
                 id="g132"
                 transform="translate(0,256)"><path
                   d="m 204.914,-213.133 0,17.832 77.527,0 0,-35.664 -77.527,0 0,17.832 z"
                   style="fill:none;stroke:#000000;stroke-opacity:1;stroke-width:0.797012;stroke-linecap:butt;stroke-linejoin:miter;stroke-miterlimit:10;stroke-dasharray:none"
                   id="path134" /></g></g></g></g></g><text
         transform="matrix(1,0,0,-1,225.91,46.319995)"
         id="text136"><tspan
           style="fill:#000000;fill-opacity:1;fill-rule:nonzero;stroke:none;font-family:FreeSerif;font-variant:normal;font-weight:normal;font-size:11.955;writing-mode:lr;-inkscape-font-specification:FreeSerif"
           x="0 3.024615 9.002115 12.24192 17.370615 21.35163 27.149805 32.218725"
           y="0"
           sodipodi:role="line"
           id="tspan138">internal</tspan><tspan
           style="fill:#000000;fill-opacity:1;fill-rule:nonzero;stroke:none;font-family:FreeSerif;font-variant:normal;font-weight:normal;font-size:11.955;writing-mode:lr;-inkscape-font-specification:FreeSerif"
           x="-11.63000333 -6.78822833 -3.82338833 1.24553167 5.41782667 9.70967168"
           y="14.449997"
           sodipodi:role="line"
           id="tspan140">classi</tspan></text>
<text
         transform="matrix(1,0,0,-1,238.64429,31.869998)"
         id="text142"><tspan
           style="fill:#000000;fill-opacity:1;fill-rule:nonzero;stroke:none;font-family:FreeSerif;font-variant:normal;font-weight:normal;font-size:11.955;writing-mode:lr;-inkscape-font-specification:FreeSerif"
           x="0"
           y="0"
           id="tspan144">ﬁ</tspan></text>
<text
         transform="matrix(1,0,0,-1,244.84893,31.869998)"
         id="text146"><tspan
           style="fill:#000000;fill-opacity:1;fill-rule:nonzero;stroke:none;font-family:FreeSerif;font-variant:normal;font-weight:normal;font-size:11.955;writing-mode:lr;-inkscape-font-specification:FreeSerif"
           x="0 4.889595 10.09002 13.31787 16.462035 22.26021"
           y="0"
           sodipodi:role="line"
           id="tspan148">cation</tspan></text>
<g
         id="g150"
         transform="translate(0,-0.880005)"><g
           id="g152"><g
             id="g154"
             clip-path="url(#clipPath156)"><g
               id="g160"><path
                 d="m 71.027,165.52 -4.347,-10.27 9.871,5.191 -5.606,-0.554"
                 style="fill:#000000;fill-opacity:1;fill-rule:nonzero;stroke:none"
                 id="path162" /><g
                 id="g164"
                 transform="translate(0,256)"><path
                   d="m 70.945,-96.113 48.801,53.054"
                   style="fill:none;stroke:#000000;stroke-opacity:1;stroke-width:2.999996;stroke-linecap:butt;stroke-linejoin:miter;stroke-miterlimit:10;stroke-dasharray:none"
                   id="path166" /></g></g></g></g></g><g
         id="g168"
         transform="translate(0,-0.880005)"><g
           id="g170"><g
             id="g172"
             clip-path="url(#clipPath174)"><g
               id="g178"><path
                 d="m 97.016,157.609 -6.297,-5.218 8.176,0.047 -3.833,1.531"
                 style="fill:#000000;fill-opacity:1;fill-rule:nonzero;stroke:none"
                 id="path180" /><g
                 id="g182"
                 transform="translate(0,256)"><path
                   d="m 95.062,-102.031 5.5,1.871 5.715,1.68 5.907,1.48 6.074,1.273 6.219,1.051 6.339,0.821 6.438,0.574 6.508,0.324 6.562,0.062 6.59,-0.214 6.594,-0.496 6.574,-0.797 6.531,-1.098 6.469,-1.418 6.375,-1.746 6.266,-2.086"
                   style="fill:none;stroke:#000000;stroke-opacity:1;stroke-width:2.000004;stroke-linecap:round;stroke-linejoin:miter;stroke-miterlimit:10;stroke-dasharray:0,4.885247;stroke-dashoffset:3.885244"
                   id="path184" /></g></g></g></g></g><text
         transform="matrix(1,0,0,-1,137.62467,168.55696)"
         id="text186"><tspan
           style="fill:#000000;fill-opacity:1;fill-rule:nonzero;stroke:none;font-family:FreeSerif;font-variant:normal;font-weight:normal;font-size:7.97;writing-mode:lr;-inkscape-font-specification:FreeSerif"
           x="0 2.62213 5.88186 9.61182 11.60432 14.6648"
           y="0"
           sodipodi:role="line"
           id="tspan188">revise</tspan></text>
<g
         id="g190"
         transform="translate(0,-0.880005)"><g
           id="g192"><g
             id="g194"
             clip-path="url(#clipPath196)"><g
               id="g200"><path
                 d="m 185.156,113.57 6.297,5.219 -8.176,-0.051 3.836,-1.531"
                 style="fill:#000000;fill-opacity:1;fill-rule:nonzero;stroke:none"
                 id="path202" /><g
                 id="g204"
                 transform="translate(0,256)"><path
                   d="m 187.113,-138.793 -5.25,-1.703 -5.461,-1.375 -5.64,-1.063 -5.809,-0.754 -5.945,-0.46 -6.067,-0.176 -6.164,0.097 -6.234,0.36 -6.285,0.613 -6.317,0.856 -6.32,1.082 -6.305,1.308 -6.261,1.512 -6.207,1.715 -6.118,1.906 -6.011,2.078"
                   style="fill:none;stroke:#000000;stroke-opacity:1;stroke-width:2.000004;stroke-linecap:round;stroke-linejoin:miter;stroke-miterlimit:10;stroke-dasharray:0,4.918878;stroke-dashoffset:3.918875"
                   id="path206" /></g></g></g></g></g><text
         transform="matrix(1,0,0,-1,134.32027,102.18332)"
         id="text208"><tspan
           style="fill:#000000;fill-opacity:1;fill-rule:nonzero;stroke:none;font-family:FreeSerif;font-variant:normal;font-weight:normal;font-size:7.97;writing-mode:lr;-inkscape-font-specification:FreeSerif"
           x="0 2.62213 5.88186 9.61182 11.60432 14.6648"
           y="0"
           sodipodi:role="line"
           id="tspan210">revise</tspan></text>
<g
         id="g212"
         transform="translate(0,-0.880005)"><g
           id="g214"><g
             id="g216"
             clip-path="url(#clipPath218)"><g
               id="g222"><path
                 d="m 94.207,69.07 -7.793,-7.972 11.082,1.234 -5.418,1.527"
                 style="fill:#000000;fill-opacity:1;fill-rule:nonzero;stroke:none"
                 id="path224" /><g
                 id="g226"
                 transform="translate(0,256)"><path
                   d="M 204.703,-137.211 92.078,-192.141"
                   style="fill:none;stroke:#000000;stroke-opacity:1;stroke-width:2.999996;stroke-linecap:butt;stroke-linejoin:miter;stroke-miterlimit:10;stroke-dasharray:none"
                   id="path228" /></g></g></g></g></g><g
         id="g230"
         transform="translate(0,-0.880005)"><g
           id="g232"><g
             id="g234"
             clip-path="url(#clipPath236)"><g
               id="g240"><path
                 d="m 169.242,134.047 10.5,3.75 -10.5,3.75 4.199,-3.75"
                 style="fill:#000000;fill-opacity:1;fill-rule:nonzero;stroke:none"
                 id="path242" /><g
                 id="g244"
                 transform="translate(0,256)"><path
                   d="m 90.719,-118.203 82.722,0"
                   style="fill:none;stroke:#000000;stroke-opacity:1;stroke-width:2.999996;stroke-linecap:butt;stroke-linejoin:miter;stroke-miterlimit:10;stroke-dasharray:none"
                   id="path246" /></g></g></g></g></g><g
         id="g248"
         transform="translate(0,-0.880005)"><g
           id="g250"><g
             id="g252"
             clip-path="url(#clipPath254)"><g
               id="g258"><path
                 d="m 194.016,39.895 10.5,3.75 -10.5,3.75 4.203,-3.75"
                 style="fill:#000000;fill-opacity:1;fill-rule:nonzero;stroke:none"
                 id="path260" /><g
                 id="g262"
                 transform="translate(0,256)"><path
                   d="m 94.719,-212.355 103.5,0"
                   style="fill:none;stroke:#000000;stroke-opacity:1;stroke-width:2.999996;stroke-linecap:butt;stroke-linejoin:miter;stroke-miterlimit:10;stroke-dasharray:none"
                   id="path264" /></g></g></g></g></g><g
         id="g266"
         transform="translate(0,-0.880005)"><g
           id="g268"><g
             id="g270"
             clip-path="url(#clipPath272)"><g
               id="g276"><path
                 d="m 101.012,64.91 -6.293,-5.219 8.176,0.051 -3.836,1.531"
                 style="fill:#000000;fill-opacity:1;fill-rule:nonzero;stroke:none"
                 id="path278" /><g
                 id="g280"
                 transform="translate(0,256)"><path
                   d="m 99.059,-194.727 5.785,1.915 6.008,1.613 6.203,1.324 6.371,1.031 6.523,0.742 6.645,0.461 6.746,0.172 6.82,-0.101 6.871,-0.379 6.899,-0.656 6.898,-0.922 6.879,-1.192 6.832,-1.457 6.762,-1.719 6.668,-1.976 6.547,-2.231"
                   style="fill:none;stroke:#000000;stroke-opacity:1;stroke-width:2.000004;stroke-linecap:round;stroke-linejoin:miter;stroke-miterlimit:10;stroke-dasharray:0,5.118735;stroke-dashoffset:4.118732"
                   id="path282" /></g></g></g></g></g><text
         transform="matrix(1,0,0,-1,135.13754,72.288164)"
         id="text284"><tspan
           style="fill:#000000;fill-opacity:1;fill-rule:nonzero;stroke:none;font-family:FreeSerif;font-variant:normal;font-weight:normal;font-size:7.97;writing-mode:lr;-inkscape-font-specification:FreeSerif"
           x="0 2.62213 5.88186 9.61182 11.60432 14.6648"
           y="0"
           sodipodi:role="line"
           id="tspan286">revise</tspan></text>
<g
         id="g288"
         transform="translate(0,-0.880005)"><g
           id="g290"><g
             id="g292"
             clip-path="url(#clipPath294)"><g
               id="g298"><path
                 d="m 198.223,24.172 6.293,5.219 -8.176,-0.047 3.836,-1.532"
                 style="fill:#000000;fill-opacity:1;fill-rule:nonzero;stroke:none"
                 id="path300" /><g
                 id="g302"
                 transform="translate(0,256)"><path
                   d="m 200.176,-228.188 -5.785,-1.957 -6.008,-1.73 -6.203,-1.496 -6.375,-1.262 -6.52,-1.015 -6.644,-0.762 -6.746,-0.5 -6.821,-0.231 -6.871,0.043 -6.898,0.332 -6.899,0.621 -6.879,0.918 -6.832,1.227 -6.761,1.539 -6.668,1.863 -6.547,2.196"
                   style="fill:none;stroke:#000000;stroke-opacity:1;stroke-width:2.000004;stroke-linecap:round;stroke-linejoin:miter;stroke-miterlimit:10;stroke-dasharray:0,5.117242;stroke-dashoffset:4.117239"
                   id="path304" /></g></g></g></g></g><text
         transform="matrix(1,0,0,-1,132.84435,8.458924)"
         id="text306"><tspan
           style="fill:#000000;fill-opacity:1;fill-rule:nonzero;stroke:none;font-family:FreeSerif;font-variant:normal;font-weight:normal;font-size:7.97;writing-mode:lr;-inkscape-font-specification:FreeSerif"
           x="0 2.62213 5.88186 9.61182 11.60432 14.6648"
           y="0"
           sodipodi:role="line"
           id="tspan308">revise</tspan></text>
</g></g></svg>