<?xml version="1.0" encoding="UTF-8" standalone="no"?>
<!-- Created with Inkscape (http://www.inkscape.org/) -->

<svg
   xmlns:dc="http://purl.org/dc/elements/1.1/"
   xmlns:cc="http://creativecommons.org/ns#"
   xmlns:rdf="http://www.w3.org/1999/02/22-rdf-syntax-ns#"
   xmlns:svg="http://www.w3.org/2000/svg"
   xmlns="http://www.w3.org/2000/svg"
   xmlns:sodipodi="http://sodipodi.sourceforge.net/DTD/sodipodi-0.dtd"
   xmlns:inkscape="http://www.inkscape.org/namespaces/inkscape"
   id="svg2"
   version="1.1"
   inkscape:version="0.48.4 r9939"
   width="425.2"
   height="106.3"
   xml:space="preserve"
   sodipodi:docname="chain_1.pdf"><metadata
     id="metadata8"><rdf:RDF><cc:Work
         rdf:about=""><dc:format>image/svg+xml</dc:format><dc:type
           rdf:resource="http://purl.org/dc/dcmitype/StillImage" /><dc:title></dc:title></cc:Work></rdf:RDF></metadata><defs
     id="defs6"><clipPath
       clipPathUnits="userSpaceOnUse"
       id="clipPath24"><path
         d="m 0,0 2384,0 0,3370 L 0,3370 0,0 z"
         id="path26" /></clipPath><clipPath
       clipPathUnits="userSpaceOnUse"
       id="clipPath44"><path
         d="m 0,0 2384,0 0,3370 L 0,3370 0,0 z"
         id="path46" /></clipPath><clipPath
       clipPathUnits="userSpaceOnUse"
       id="clipPath62"><path
         d="m 0,0 2384,0 0,3370 L 0,3370 0,0 z"
         id="path64" /></clipPath><clipPath
       clipPathUnits="userSpaceOnUse"
       id="clipPath82"><path
         d="m 0,0 2384,0 0,3370 L 0,3370 0,0 z"
         id="path84" /></clipPath><clipPath
       clipPathUnits="userSpaceOnUse"
       id="clipPath100"><path
         d="m 0,0 2384,0 0,3370 L 0,3370 0,0 z"
         id="path102" /></clipPath><clipPath
       clipPathUnits="userSpaceOnUse"
       id="clipPath128"><path
         d="m 0,0 2384,0 0,3370 L 0,3370 0,0 z"
         id="path130" /></clipPath><clipPath
       clipPathUnits="userSpaceOnUse"
       id="clipPath148"><path
         d="m 0,0 2384,0 0,3370 L 0,3370 0,0 z"
         id="path150" /></clipPath><clipPath
       clipPathUnits="userSpaceOnUse"
       id="clipPath166"><path
         d="m 0,0 2384,0 0,3370 L 0,3370 0,0 z"
         id="path168" /></clipPath><clipPath
       clipPathUnits="userSpaceOnUse"
       id="clipPath186"><path
         d="m 0,0 2384,0 0,3370 L 0,3370 0,0 z"
         id="path188" /></clipPath><clipPath
       clipPathUnits="userSpaceOnUse"
       id="clipPath206"><path
         d="m 0,0 2384,0 0,3370 L 0,3370 0,0 z"
         id="path208" /></clipPath><clipPath
       clipPathUnits="userSpaceOnUse"
       id="clipPath230"><path
         d="m 0,0 2384,0 0,3370 L 0,3370 0,0 z"
         id="path232" /></clipPath><clipPath
       clipPathUnits="userSpaceOnUse"
       id="clipPath244"><path
         d="m 0,0 2384,0 0,3370 L 0,3370 0,0 z"
         id="path246" /></clipPath><clipPath
       clipPathUnits="userSpaceOnUse"
       id="clipPath258"><path
         d="m 0,0 2384,0 0,3370 L 0,3370 0,0 z"
         id="path260" /></clipPath><clipPath
       clipPathUnits="userSpaceOnUse"
       id="clipPath272"><path
         d="m 0,0 2384,0 0,3370 L 0,3370 0,0 z"
         id="path274" /></clipPath><clipPath
       clipPathUnits="userSpaceOnUse"
       id="clipPath286"><path
         d="m 0,0 2384,0 0,3370 L 0,3370 0,0 z"
         id="path288" /></clipPath><clipPath
       clipPathUnits="userSpaceOnUse"
       id="clipPath300"><path
         d="m 0,0 2384,0 0,3370 L 0,3370 0,0 z"
         id="path302" /></clipPath><clipPath
       clipPathUnits="userSpaceOnUse"
       id="clipPath314"><path
         d="m 0,0 2384,0 0,3370 L 0,3370 0,0 z"
         id="path316" /></clipPath><clipPath
       clipPathUnits="userSpaceOnUse"
       id="clipPath328"><path
         d="m 0,0 2384,0 0,3370 L 0,3370 0,0 z"
         id="path330" /></clipPath><clipPath
       clipPathUnits="userSpaceOnUse"
       id="clipPath342"><path
         d="m 0,0 2384,0 0,3370 L 0,3370 0,0 z"
         id="path344" /></clipPath><clipPath
       clipPathUnits="userSpaceOnUse"
       id="clipPath356"><path
         d="m 0,0 2384,0 0,3370 L 0,3370 0,0 z"
         id="path358" /></clipPath><clipPath
       clipPathUnits="userSpaceOnUse"
       id="clipPath370"><path
         d="m 0,0 2384,0 0,3370 L 0,3370 0,0 z"
         id="path372" /></clipPath><clipPath
       clipPathUnits="userSpaceOnUse"
       id="clipPath384"><path
         d="m 0,0 2384,0 0,3370 L 0,3370 0,0 z"
         id="path386" /></clipPath><clipPath
       clipPathUnits="userSpaceOnUse"
       id="clipPath398"><path
         d="m 0,0 2384,0 0,3370 L 0,3370 0,0 z"
         id="path400" /></clipPath><clipPath
       clipPathUnits="userSpaceOnUse"
       id="clipPath416"><path
         d="m 0,0 2384,0 0,3370 L 0,3370 0,0 z"
         id="path418" /></clipPath><clipPath
       clipPathUnits="userSpaceOnUse"
       id="clipPath434"><path
         d="m 0,0 2384,0 0,3370 L 0,3370 0,0 z"
         id="path436" /></clipPath></defs><sodipodi:namedview
     pagecolor="#ffffff"
     bordercolor="#666666"
     borderopacity="1"
     objecttolerance="10"
     gridtolerance="10"
     guidetolerance="10"
     inkscape:pageopacity="0"
     inkscape:pageshadow="2"
     inkscape:window-width="640"
     inkscape:window-height="480"
     id="namedview4"
     showgrid="false"
     inkscape:zoom="0.72671682"
     inkscape:cx="212.60001"
     inkscape:cy="53.150002"
     inkscape:window-x="65"
     inkscape:window-y="24"
     inkscape:window-maximized="0"
     inkscape:current-layer="g10" /><g
     id="g10"
     inkscape:groupmode="layer"
     inkscape:label="chain_1"
     transform="matrix(1.25,0,0,-1.25,0,106.3)"><g
       id="g12"
       transform="translate(72,13.04)"><text
         transform="matrix(1,0,0,-1,-66.32,48.23)"
         id="text14"><tspan
           style="fill:#ffffff;fill-opacity:1;fill-rule:nonzero;stroke:none;font-family:FreeMono;font-variant:normal;font-weight:normal;font-size:20.663;writing-mode:lr;-inkscape-font-specification:FreeMono"
           x="0"
           y="0"
           id="tspan16">0</tspan></text>
<g
         id="g18"
         transform="translate(-72,-13.04)"><g
           id="g20"><g
             id="g22"
             clip-path="url(#clipPath24)"><g
               id="g28"
               transform="scale(0.229721,0.229721)"><path
                 d="m 309.613,292.012 c 0,27.914 -23.687,50.547 -52.902,50.547 -29.215,0 -52.902,-22.633 -52.902,-50.547 0,-27.914 23.687,-50.547 52.902,-50.547 29.215,0 52.902,22.633 52.902,50.547"
                 style="fill:#000000;fill-opacity:1;fill-rule:nonzero;stroke:none"
                 id="path30" /><path
                 d="m 309.613,292.012 c 0,27.914 -23.687,50.547 -52.902,50.547 -29.215,0 -52.902,-22.633 -52.902,-50.547 0,-27.914 23.687,-50.547 52.902,-50.547 29.215,0 52.902,22.633 52.902,50.547 z"
                 style="fill:none;stroke:#000000;stroke-opacity:1;stroke-width:3.46948;stroke-linecap:butt;stroke-linejoin:miter;stroke-miterlimit:10;stroke-dasharray:none"
                 id="path32" /></g></g></g></g><text
         transform="matrix(1,0,0,-1,-19.23,48.23)"
         id="text34"><tspan
           style="fill:#000000;fill-opacity:1;fill-rule:nonzero;stroke:none;font-family:FreeMono;font-variant:normal;font-weight:normal;font-size:20.663;writing-mode:lr;-inkscape-font-specification:FreeMono"
           x="0"
           y="0"
           id="tspan36">H</tspan></text>
<g
         id="g38"
         transform="translate(-72,-13.04)"><g
           id="g40"><g
             id="g42"
             clip-path="url(#clipPath44)"><g
               id="g48"
               transform="scale(0.229721,0.229721)"><path
                 d="m 542.277,292.012 c 0,27.914 -23.683,50.547 -52.898,50.547 -29.215,0 -52.902,-22.633 -52.902,-50.547 0,-27.914 23.687,-50.547 52.902,-50.547 29.215,0 52.898,22.633 52.898,50.547 z"
                 style="fill:none;stroke:#000000;stroke-opacity:1;stroke-width:3.46948;stroke-linecap:butt;stroke-linejoin:miter;stroke-miterlimit:10;stroke-dasharray:none"
                 id="path50" /></g></g></g></g><text
         transform="matrix(1,0,0,-1,34.22,48.23)"
         id="text52"><tspan
           style="fill:#ffffff;fill-opacity:1;fill-rule:nonzero;stroke:none;font-family:FreeMono;font-variant:normal;font-weight:normal;font-size:20.663;writing-mode:lr;-inkscape-font-specification:FreeMono"
           x="0"
           y="0"
           id="tspan54">H</tspan></text>
<g
         id="g56"
         transform="translate(-72,-13.04)"><g
           id="g58"><g
             id="g60"
             clip-path="url(#clipPath62)"><g
               id="g66"
               transform="scale(0.229721,0.229721)"><path
                 d="m 774.945,292.012 c 0,27.914 -23.687,50.547 -52.902,50.547 -29.215,0 -52.902,-22.633 -52.902,-50.547 0,-27.914 23.687,-50.547 52.902,-50.547 29.215,0 52.902,22.633 52.902,50.547"
                 style="fill:#bfbfbf;fill-opacity:1;fill-rule:nonzero;stroke:none"
                 id="path68" /><path
                 d="m 774.945,292.012 c 0,27.914 -23.687,50.547 -52.902,50.547 -29.215,0 -52.902,-22.633 -52.902,-50.547 0,-27.914 23.687,-50.547 52.902,-50.547 29.215,0 52.902,22.633 52.902,50.547 z"
                 style="fill:none;stroke:#000000;stroke-opacity:1;stroke-width:3.46948;stroke-linecap:butt;stroke-linejoin:miter;stroke-miterlimit:10;stroke-dasharray:none"
                 id="path70" /></g></g></g></g><text
         transform="matrix(1,0,0,-1,87.67,48.23)"
         id="text72"><tspan
           style="fill:#bfbfbf;fill-opacity:1;fill-rule:nonzero;stroke:none;font-family:FreeMono;font-variant:normal;font-weight:normal;font-size:20.663;writing-mode:lr;-inkscape-font-specification:FreeMono"
           x="0"
           y="0"
           id="tspan74">H</tspan></text>
<g
         id="g76"
         transform="translate(-72,-13.04)"><g
           id="g78"><g
             id="g80"
             clip-path="url(#clipPath82)"><g
               id="g86"
               transform="scale(0.229721,0.229721)"><path
                 d="m 1007.61,292.012 c 0,27.914 -23.684,50.547 -52.899,50.547 -29.215,0 -52.902,-22.633 -52.902,-50.547 0,-27.914 23.687,-50.547 52.902,-50.547 29.215,0 52.899,22.633 52.899,50.547 z"
                 style="fill:none;stroke:#000000;stroke-opacity:1;stroke-width:3.46948;stroke-linecap:butt;stroke-linejoin:miter;stroke-miterlimit:10;stroke-dasharray:none"
                 id="path88" /></g></g></g></g><text
         transform="matrix(1,0,0,-1,141.12,48.23)"
         id="text90"><tspan
           style="fill:#ffffff;fill-opacity:1;fill-rule:nonzero;stroke:none;font-family:FreeMono;font-variant:normal;font-weight:normal;font-size:20.663;writing-mode:lr;-inkscape-font-specification:FreeMono"
           x="0"
           y="0"
           id="tspan92">H</tspan></text>
<g
         id="g94"
         transform="translate(-72,-13.04)"><g
           id="g96"><g
             id="g98"
             clip-path="url(#clipPath100)"><g
               id="g104"
               transform="scale(0.229721,0.229721)"><path
                 d="m 1240.28,292.012 c 0,27.914 -23.69,50.547 -52.9,50.547 -29.22,0 -52.91,-22.633 -52.91,-50.547 0,-27.914 23.69,-50.547 52.91,-50.547 29.21,0 52.9,22.633 52.9,50.547"
                 style="fill:#808080;fill-opacity:1;fill-rule:nonzero;stroke:none"
                 id="path106" /><path
                 d="m 1240.28,292.012 c 0,27.914 -23.69,50.547 -52.9,50.547 -29.22,0 -52.91,-22.633 -52.91,-50.547 0,-27.914 23.69,-50.547 52.91,-50.547 29.21,0 52.9,22.633 52.9,50.547 z"
                 style="fill:none;stroke:#000000;stroke-opacity:1;stroke-width:3.46948;stroke-linecap:butt;stroke-linejoin:miter;stroke-miterlimit:10;stroke-dasharray:none"
                 id="path108" /></g></g></g></g><text
         transform="matrix(1,0,0,-1,194.57,48.23)"
         id="text110"><tspan
           style="fill:#808080;fill-opacity:1;fill-rule:nonzero;stroke:none;font-family:FreeMono;font-variant:normal;font-weight:normal;font-size:20.663;writing-mode:lr;-inkscape-font-specification:FreeMono"
           x="0"
           y="0"
           id="tspan112">H</tspan></text>
<text
         transform="matrix(1,0,0,-1,241.66,48.23)"
         id="text114"><tspan
           style="fill:#ffffff;fill-opacity:1;fill-rule:nonzero;stroke:none;font-family:FreeMono;font-variant:normal;font-weight:normal;font-size:20.663;writing-mode:lr;-inkscape-font-specification:FreeMono"
           x="0"
           y="0"
           id="tspan116">0</tspan></text>
<text
         transform="matrix(1,0,0,-1,-66.32,-5.03)"
         id="text118"><tspan
           style="fill:#ffffff;fill-opacity:1;fill-rule:nonzero;stroke:none;font-family:FreeMono;font-variant:normal;font-weight:normal;font-size:20.663;writing-mode:lr;-inkscape-font-specification:FreeMono"
           x="0"
           y="0"
           id="tspan120">0</tspan></text>
<g
         id="g122"
         transform="translate(-72,-13.04)"><g
           id="g124"><g
             id="g126"
             clip-path="url(#clipPath128)"><g
               id="g132"
               transform="scale(0.229721,0.229721)"><path
                 d="m 309.613,60.1953 c 0,27.9141 -23.687,50.5467 -52.902,50.5467 -29.215,0 -52.902,-22.6326 -52.902,-50.5467 0,-27.9141 23.687,-50.54686 52.902,-50.54686 29.215,0 52.902,22.63276 52.902,50.54686"
                 style="fill:#000000;fill-opacity:1;fill-rule:nonzero;stroke:none"
                 id="path134" /><path
                 d="m 309.613,60.1953 c 0,27.9141 -23.687,50.5467 -52.902,50.5467 -29.215,0 -52.902,-22.6326 -52.902,-50.5467 0,-27.9141 23.687,-50.54686 52.902,-50.54686 29.215,0 52.902,22.63276 52.902,50.54686 z"
                 style="fill:none;stroke:#000000;stroke-opacity:1;stroke-width:3.46948;stroke-linecap:butt;stroke-linejoin:miter;stroke-miterlimit:10;stroke-dasharray:none"
                 id="path136" /></g></g></g></g><text
         transform="matrix(1,0,0,-1,-19.23,-5.03)"
         id="text138"><tspan
           style="fill:#000000;fill-opacity:1;fill-rule:nonzero;stroke:none;font-family:FreeMono;font-variant:normal;font-weight:normal;font-size:20.663;writing-mode:lr;-inkscape-font-specification:FreeMono"
           x="0"
           y="0"
           id="tspan140">H</tspan></text>
<g
         id="g142"
         transform="translate(-72,-13.04)"><g
           id="g144"><g
             id="g146"
             clip-path="url(#clipPath148)"><g
               id="g152"
               transform="scale(0.229721,0.229721)"><path
                 d="m 542.277,60.1953 c 0,27.9141 -23.683,50.5467 -52.898,50.5467 -29.215,0 -52.902,-22.6326 -52.902,-50.5467 0,-27.9141 23.687,-50.54686 52.902,-50.54686 29.215,0 52.898,22.63276 52.898,50.54686 z"
                 style="fill:none;stroke:#000000;stroke-opacity:1;stroke-width:3.46948;stroke-linecap:butt;stroke-linejoin:miter;stroke-miterlimit:10;stroke-dasharray:none"
                 id="path154" /></g></g></g></g><text
         transform="matrix(1,0,0,-1,34.22,-5.03)"
         id="text156"><tspan
           style="fill:#ffffff;fill-opacity:1;fill-rule:nonzero;stroke:none;font-family:FreeMono;font-variant:normal;font-weight:normal;font-size:20.663;writing-mode:lr;-inkscape-font-specification:FreeMono"
           x="0"
           y="0"
           id="tspan158">H</tspan></text>
<g
         id="g160"
         transform="translate(-72,-13.04)"><g
           id="g162"><g
             id="g164"
             clip-path="url(#clipPath166)"><g
               id="g170"
               transform="scale(0.229721,0.229721)"><path
                 d="m 774.945,60.1953 c 0,27.9141 -23.687,50.5467 -52.902,50.5467 -29.215,0 -52.902,-22.6326 -52.902,-50.5467 0,-27.9141 23.687,-50.54686 52.902,-50.54686 29.215,0 52.902,22.63276 52.902,50.54686"
                 style="fill:#808080;fill-opacity:1;fill-rule:nonzero;stroke:none"
                 id="path172" /><path
                 d="m 774.945,60.1953 c 0,27.9141 -23.687,50.5467 -52.902,50.5467 -29.215,0 -52.902,-22.6326 -52.902,-50.5467 0,-27.9141 23.687,-50.54686 52.902,-50.54686 29.215,0 52.902,22.63276 52.902,50.54686 z"
                 style="fill:none;stroke:#000000;stroke-opacity:1;stroke-width:3.46948;stroke-linecap:butt;stroke-linejoin:miter;stroke-miterlimit:10;stroke-dasharray:none"
                 id="path174" /></g></g></g></g><text
         transform="matrix(1,0,0,-1,87.67,-5.03)"
         id="text176"><tspan
           style="fill:#808080;fill-opacity:1;fill-rule:nonzero;stroke:none;font-family:FreeMono;font-variant:normal;font-weight:normal;font-size:20.663;writing-mode:lr;-inkscape-font-specification:FreeMono"
           x="0"
           y="0"
           id="tspan178">H</tspan></text>
<g
         id="g180"
         transform="translate(-72,-13.04)"><g
           id="g182"><g
             id="g184"
             clip-path="url(#clipPath186)"><g
               id="g190"
               transform="scale(0.229721,0.229721)"><path
                 d="m 1007.61,60.1953 c 0,27.9141 -23.684,50.5467 -52.899,50.5467 -29.215,0 -52.902,-22.6326 -52.902,-50.5467 0,-27.9141 23.687,-50.54686 52.902,-50.54686 29.215,0 52.899,22.63276 52.899,50.54686"
                 style="fill:#000000;fill-opacity:1;fill-rule:nonzero;stroke:none"
                 id="path192" /><path
                 d="m 1007.61,60.1953 c 0,27.9141 -23.684,50.5467 -52.899,50.5467 -29.215,0 -52.902,-22.6326 -52.902,-50.5467 0,-27.9141 23.687,-50.54686 52.902,-50.54686 29.215,0 52.899,22.63276 52.899,50.54686 z"
                 style="fill:none;stroke:#000000;stroke-opacity:1;stroke-width:3.46948;stroke-linecap:butt;stroke-linejoin:miter;stroke-miterlimit:10;stroke-dasharray:none"
                 id="path194" /></g></g></g></g><text
         transform="matrix(1,0,0,-1,141.12,-5.03)"
         id="text196"><tspan
           style="fill:#000000;fill-opacity:1;fill-rule:nonzero;stroke:none;font-family:FreeMono;font-variant:normal;font-weight:normal;font-size:20.663;writing-mode:lr;-inkscape-font-specification:FreeMono"
           x="0"
           y="0"
           id="tspan198">H</tspan></text>
<g
         id="g200"
         transform="translate(-72,-13.04)"><g
           id="g202"><g
             id="g204"
             clip-path="url(#clipPath206)"><g
               id="g210"
               transform="scale(0.229721,0.229721)"><path
                 d="m 1240.28,60.1953 c 0,27.9141 -23.69,50.5467 -52.9,50.5467 -29.22,0 -52.91,-22.6326 -52.91,-50.5467 0,-27.9141 23.69,-50.54686 52.91,-50.54686 29.21,0 52.9,22.63276 52.9,50.54686"
                 style="fill:#808080;fill-opacity:1;fill-rule:nonzero;stroke:none"
                 id="path212" /><path
                 d="m 1240.28,60.1953 c 0,27.9141 -23.69,50.5467 -52.9,50.5467 -29.22,0 -52.91,-22.6326 -52.91,-50.5467 0,-27.9141 23.69,-50.54686 52.91,-50.54686 29.21,0 52.9,22.63276 52.9,50.54686 z"
                 style="fill:none;stroke:#000000;stroke-opacity:1;stroke-width:3.46948;stroke-linecap:butt;stroke-linejoin:miter;stroke-miterlimit:10;stroke-dasharray:none"
                 id="path214" /></g></g></g></g><text
         transform="matrix(1,0,0,-1,194.57,-5.03)"
         id="text216"><tspan
           style="fill:#808080;fill-opacity:1;fill-rule:nonzero;stroke:none;font-family:FreeMono;font-variant:normal;font-weight:normal;font-size:20.663;writing-mode:lr;-inkscape-font-specification:FreeMono"
           x="0"
           y="0"
           id="tspan218">H</tspan></text>
<text
         transform="matrix(1,0,0,-1,241.66,-5.03)"
         id="text220"><tspan
           style="fill:#ffffff;fill-opacity:1;fill-rule:nonzero;stroke:none;font-family:FreeMono;font-variant:normal;font-weight:normal;font-size:20.663;writing-mode:lr;-inkscape-font-specification:FreeMono"
           x="0"
           y="0"
           id="tspan222">0</tspan></text>
<g
         id="g224"
         transform="translate(-72,-13.04)"><g
           id="g226"><g
             id="g228"
             clip-path="url(#clipPath230)"><g
               id="g234"
               transform="scale(0.229721,0.229721)"><path
                 d="m 78.8828,293.047 123.1912,0"
                 style="fill:none;stroke:#000000;stroke-opacity:1;stroke-width:6.19322;stroke-linecap:butt;stroke-linejoin:miter;stroke-miterlimit:10;stroke-dasharray:none"
                 id="path236" /></g></g></g></g><g
         id="g238"
         transform="translate(-72,-13.04)"><g
           id="g240"><g
             id="g242"
             clip-path="url(#clipPath244)"><g
               id="g248"
               transform="scale(0.229721,0.229721)"><path
                 d="m 311.758,293.047 122.984,0"
                 style="fill:none;stroke:#000000;stroke-opacity:1;stroke-width:6.19322;stroke-linecap:butt;stroke-linejoin:miter;stroke-miterlimit:10;stroke-dasharray:none"
                 id="path250" /></g></g></g></g><g
         id="g252"
         transform="translate(-72,-13.04)"><g
           id="g254"><g
             id="g256"
             clip-path="url(#clipPath258)"><g
               id="g262"
               transform="scale(0.229721,0.229721)"><path
                 d="m 544.422,293.047 122.984,0"
                 style="fill:none;stroke:#000000;stroke-opacity:1;stroke-width:6.19322;stroke-linecap:butt;stroke-linejoin:miter;stroke-miterlimit:10;stroke-dasharray:none"
                 id="path264" /></g></g></g></g><g
         id="g266"
         transform="translate(-72,-13.04)"><g
           id="g268"><g
             id="g270"
             clip-path="url(#clipPath272)"><g
               id="g276"
               transform="scale(0.229721,0.229721)"><path
                 d="m 777.09,293.047 122.984,0"
                 style="fill:none;stroke:#000000;stroke-opacity:1;stroke-width:6.19322;stroke-linecap:butt;stroke-linejoin:miter;stroke-miterlimit:10;stroke-dasharray:none"
                 id="path278" /></g></g></g></g><g
         id="g280"
         transform="translate(-72,-13.04)"><g
           id="g282"><g
             id="g284"
             clip-path="url(#clipPath286)"><g
               id="g290"
               transform="scale(0.229721,0.229721)"><path
                 d="m 1009.75,293.047 122.99,0"
                 style="fill:none;stroke:#000000;stroke-opacity:1;stroke-width:6.19322;stroke-linecap:butt;stroke-linejoin:miter;stroke-miterlimit:10;stroke-dasharray:none"
                 id="path292" /></g></g></g></g><g
         id="g294"
         transform="translate(-72,-13.04)"><g
           id="g296"><g
             id="g298"
             clip-path="url(#clipPath300)"><g
               id="g304"
               transform="scale(0.229721,0.229721)"><path
                 d="m 1242.42,293.047 122.99,0"
                 style="fill:none;stroke:#000000;stroke-opacity:1;stroke-width:6.19322;stroke-linecap:butt;stroke-linejoin:miter;stroke-miterlimit:10;stroke-dasharray:none"
                 id="path306" /></g></g></g></g><g
         id="g308"
         transform="translate(-72,-13.04)"><g
           id="g310"><g
             id="g312"
             clip-path="url(#clipPath314)"><g
               id="g318"
               transform="scale(0.229721,0.229721)"><path
                 d="m 78.8828,61.2305 123.1912,0"
                 style="fill:none;stroke:#000000;stroke-opacity:1;stroke-width:6.19322;stroke-linecap:butt;stroke-linejoin:miter;stroke-miterlimit:10;stroke-dasharray:none"
                 id="path320" /></g></g></g></g><g
         id="g322"
         transform="translate(-72,-13.04)"><g
           id="g324"><g
             id="g326"
             clip-path="url(#clipPath328)"><g
               id="g332"
               transform="scale(0.229721,0.229721)"><path
                 d="m 311.758,61.2305 122.984,0"
                 style="fill:none;stroke:#000000;stroke-opacity:1;stroke-width:6.19322;stroke-linecap:butt;stroke-linejoin:miter;stroke-miterlimit:10;stroke-dasharray:none"
                 id="path334" /></g></g></g></g><g
         id="g336"
         transform="translate(-72,-13.04)"><g
           id="g338"><g
             id="g340"
             clip-path="url(#clipPath342)"><g
               id="g346"
               transform="scale(0.229721,0.229721)"><path
                 d="m 544.422,61.2305 122.984,0"
                 style="fill:none;stroke:#000000;stroke-opacity:1;stroke-width:6.19322;stroke-linecap:butt;stroke-linejoin:miter;stroke-miterlimit:10;stroke-dasharray:none"
                 id="path348" /></g></g></g></g><g
         id="g350"
         transform="translate(-72,-13.04)"><g
           id="g352"><g
             id="g354"
             clip-path="url(#clipPath356)"><g
               id="g360"
               transform="scale(0.229721,0.229721)"><path
                 d="m 777.09,61.2305 122.984,0"
                 style="fill:none;stroke:#000000;stroke-opacity:1;stroke-width:6.19322;stroke-linecap:butt;stroke-linejoin:miter;stroke-miterlimit:10;stroke-dasharray:none"
                 id="path362" /></g></g></g></g><g
         id="g364"
         transform="translate(-72,-13.04)"><g
           id="g366"><g
             id="g368"
             clip-path="url(#clipPath370)"><g
               id="g374"
               transform="scale(0.229721,0.229721)"><path
                 d="m 1009.75,61.2305 122.99,0"
                 style="fill:none;stroke:#000000;stroke-opacity:1;stroke-width:6.19322;stroke-linecap:butt;stroke-linejoin:miter;stroke-miterlimit:10;stroke-dasharray:none"
                 id="path376" /></g></g></g></g><g
         id="g378"
         transform="translate(-72,-13.04)"><g
           id="g380"><g
             id="g382"
             clip-path="url(#clipPath384)"><g
               id="g388"
               transform="scale(0.229721,0.229721)"><path
                 d="m 1242.42,61.2305 122.99,0"
                 style="fill:none;stroke:#000000;stroke-opacity:1;stroke-width:6.19322;stroke-linecap:butt;stroke-linejoin:miter;stroke-miterlimit:10;stroke-dasharray:none"
                 id="path390" /></g></g></g></g><g
         id="g392"
         transform="translate(-72,-13.04)"><g
           id="g394"><g
             id="g396"
             clip-path="url(#clipPath398)"><g
               id="g402"
               transform="scale(0.229721,0.229721)"><path
                 d="m 266.375,213.148 -9.461,26.481 -9.457,-26.481 9.457,10.59"
                 style="fill:#000000;fill-opacity:1;fill-rule:nonzero;stroke:none"
                 id="path404" /><path
                 d="m 247.457,139.254 9.457,-26.484 9.461,26.484 -9.461,-10.594"
                 style="fill:#000000;fill-opacity:1;fill-rule:nonzero;stroke:none"
                 id="path406" /><path
                 d="m 256.914,223.738 0,-95.078"
                 style="fill:none;stroke:#000000;stroke-opacity:1;stroke-width:6.19322;stroke-linecap:butt;stroke-linejoin:miter;stroke-miterlimit:10;stroke-dasharray:none"
                 id="path408" /></g></g></g></g><g
         id="g410"
         transform="translate(-72,-13.04)"><g
           id="g412"><g
             id="g414"
             clip-path="url(#clipPath416)"><g
               id="g420"
               transform="scale(0.229721,0.229721)"><path
                 d="m 499.039,213.148 -9.457,26.481 -9.457,-26.481 9.457,10.59"
                 style="fill:#000000;fill-opacity:1;fill-rule:nonzero;stroke:none"
                 id="path422" /><path
                 d="m 480.125,139.254 9.457,-26.484 9.457,26.484 -9.457,-10.594"
                 style="fill:#000000;fill-opacity:1;fill-rule:nonzero;stroke:none"
                 id="path424" /><path
                 d="m 489.582,223.738 0,-95.078"
                 style="fill:none;stroke:#000000;stroke-opacity:1;stroke-width:6.19322;stroke-linecap:butt;stroke-linejoin:miter;stroke-miterlimit:10;stroke-dasharray:none"
                 id="path426" /></g></g></g></g><g
         id="g428"
         transform="translate(-72,-13.04)"><g
           id="g430"><g
             id="g432"
             clip-path="url(#clipPath434)"><g
               id="g438"
               transform="scale(0.229721,0.229721)"><path
                 d="m 1197.04,213.148 -9.46,26.481 -9.46,-26.481 9.46,10.59"
                 style="fill:#000000;fill-opacity:1;fill-rule:nonzero;stroke:none"
                 id="path440" /><path
                 d="m 1178.12,139.254 9.46,-26.484 9.46,26.484 -9.46,-10.594"
                 style="fill:#000000;fill-opacity:1;fill-rule:nonzero;stroke:none"
                 id="path442" /><path
                 d="m 1187.58,223.738 0,-95.078"
                 style="fill:none;stroke:#000000;stroke-opacity:1;stroke-width:6.19322;stroke-linecap:butt;stroke-linejoin:miter;stroke-miterlimit:10;stroke-dasharray:none"
                 id="path444" /></g></g></g></g></g></g></svg>