<?xml version="1.0" encoding="UTF-8" standalone="no"?>
<!-- Created with Inkscape (http://www.inkscape.org/) -->

<svg
   xmlns:dc="http://purl.org/dc/elements/1.1/"
   xmlns:cc="http://creativecommons.org/ns#"
   xmlns:rdf="http://www.w3.org/1999/02/22-rdf-syntax-ns#"
   xmlns:svg="http://www.w3.org/2000/svg"
   xmlns="http://www.w3.org/2000/svg"
   xmlns:sodipodi="http://sodipodi.sourceforge.net/DTD/sodipodi-0.dtd"
   xmlns:inkscape="http://www.inkscape.org/namespaces/inkscape"
   id="svg2"
   version="1.1"
   inkscape:version="0.48.4 r9939"
   width="425.2"
   height="124.0125"
   xml:space="preserve"
   sodipodi:docname="chain_2_new.pdf"><metadata
     id="metadata8"><rdf:RDF><cc:Work
         rdf:about=""><dc:format>image/svg+xml</dc:format><dc:type
           rdf:resource="http://purl.org/dc/dcmitype/StillImage" /><dc:title></dc:title></cc:Work></rdf:RDF></metadata><defs
     id="defs6"><clipPath
       clipPathUnits="userSpaceOnUse"
       id="clipPath24"><path
         d="m 0,0 2384,0 0,3370 L 0,3370 0,0 z"
         id="path26" /></clipPath><clipPath
       clipPathUnits="userSpaceOnUse"
       id="clipPath44"><path
         d="m 0,0 2384,0 0,3370 L 0,3370 0,0 z"
         id="path46" /></clipPath><clipPath
       clipPathUnits="userSpaceOnUse"
       id="clipPath64"><path
         d="m 0,0 2384,0 0,3370 L 0,3370 0,0 z"
         id="path66" /></clipPath><clipPath
       clipPathUnits="userSpaceOnUse"
       id="clipPath84"><path
         d="m 0,0 2384,0 0,3370 L 0,3370 0,0 z"
         id="path86" /></clipPath><clipPath
       clipPathUnits="userSpaceOnUse"
       id="clipPath104"><path
         d="m 0,0 2384,0 0,3370 L 0,3370 0,0 z"
         id="path106" /></clipPath><clipPath
       clipPathUnits="userSpaceOnUse"
       id="clipPath132"><path
         d="m 0,0 2384,0 0,3370 L 0,3370 0,0 z"
         id="path134" /></clipPath><clipPath
       clipPathUnits="userSpaceOnUse"
       id="clipPath152"><path
         d="m 0,0 2384,0 0,3370 L 0,3370 0,0 z"
         id="path154" /></clipPath><clipPath
       clipPathUnits="userSpaceOnUse"
       id="clipPath172"><path
         d="m 0,0 2384,0 0,3370 L 0,3370 0,0 z"
         id="path174" /></clipPath><clipPath
       clipPathUnits="userSpaceOnUse"
       id="clipPath192"><path
         d="m 0,0 2384,0 0,3370 L 0,3370 0,0 z"
         id="path194" /></clipPath><clipPath
       clipPathUnits="userSpaceOnUse"
       id="clipPath216"><path
         d="m 0,0 2384,0 0,3370 L 0,3370 0,0 z"
         id="path218" /></clipPath><clipPath
       clipPathUnits="userSpaceOnUse"
       id="clipPath230"><path
         d="m 0,0 2384,0 0,3370 L 0,3370 0,0 z"
         id="path232" /></clipPath><clipPath
       clipPathUnits="userSpaceOnUse"
       id="clipPath244"><path
         d="m 0,0 2384,0 0,3370 L 0,3370 0,0 z"
         id="path246" /></clipPath><clipPath
       clipPathUnits="userSpaceOnUse"
       id="clipPath258"><path
         d="m 0,0 2384,0 0,3370 L 0,3370 0,0 z"
         id="path260" /></clipPath><clipPath
       clipPathUnits="userSpaceOnUse"
       id="clipPath272"><path
         d="m 0,0 2384,0 0,3370 L 0,3370 0,0 z"
         id="path274" /></clipPath><clipPath
       clipPathUnits="userSpaceOnUse"
       id="clipPath286"><path
         d="m 0,0 2384,0 0,3370 L 0,3370 0,0 z"
         id="path288" /></clipPath><clipPath
       clipPathUnits="userSpaceOnUse"
       id="clipPath300"><path
         d="m 0,0 2384,0 0,3370 L 0,3370 0,0 z"
         id="path302" /></clipPath><clipPath
       clipPathUnits="userSpaceOnUse"
       id="clipPath314"><path
         d="m 0,0 2384,0 0,3370 L 0,3370 0,0 z"
         id="path316" /></clipPath><clipPath
       clipPathUnits="userSpaceOnUse"
       id="clipPath328"><path
         d="m 0,0 2384,0 0,3370 L 0,3370 0,0 z"
         id="path330" /></clipPath><clipPath
       clipPathUnits="userSpaceOnUse"
       id="clipPath342"><path
         d="m 0,0 2384,0 0,3370 L 0,3370 0,0 z"
         id="path344" /></clipPath><clipPath
       clipPathUnits="userSpaceOnUse"
       id="clipPath356"><path
         d="m 0,0 2384,0 0,3370 L 0,3370 0,0 z"
         id="path358" /></clipPath><clipPath
       clipPathUnits="userSpaceOnUse"
       id="clipPath370"><path
         d="m 0,0 2384,0 0,3370 L 0,3370 0,0 z"
         id="path372" /></clipPath><clipPath
       clipPathUnits="userSpaceOnUse"
       id="clipPath388"><path
         d="m 0,0 2384,0 0,3370 L 0,3370 0,0 z"
         id="path390" /></clipPath><clipPath
       clipPathUnits="userSpaceOnUse"
       id="clipPath406"><path
         d="m 0,0 2384,0 0,3370 L 0,3370 0,0 z"
         id="path408" /></clipPath><clipPath
       clipPathUnits="userSpaceOnUse"
       id="clipPath424"><path
         d="m 0,0 2384,0 0,3370 L 0,3370 0,0 z"
         id="path426" /></clipPath><clipPath
       clipPathUnits="userSpaceOnUse"
       id="clipPath442"><path
         d="m 0,0 2384,0 0,3370 L 0,3370 0,0 z"
         id="path444" /></clipPath><clipPath
       clipPathUnits="userSpaceOnUse"
       id="clipPath456"><path
         d="m 0,0 2384,0 0,3370 L 0,3370 0,0 z"
         id="path458" /></clipPath><clipPath
       clipPathUnits="userSpaceOnUse"
       id="clipPath470"><path
         d="m 0,0 2384,0 0,3370 L 0,3370 0,0 z"
         id="path472" /></clipPath><clipPath
       clipPathUnits="userSpaceOnUse"
       id="clipPath484"><path
         d="m 0,0 2384,0 0,3370 L 0,3370 0,0 z"
         id="path486" /></clipPath><clipPath
       clipPathUnits="userSpaceOnUse"
       id="clipPath498"><path
         d="m 0,0 2384,0 0,3370 L 0,3370 0,0 z"
         id="path500" /></clipPath></defs><sodipodi:namedview
     pagecolor="#ffffff"
     bordercolor="#666666"
     borderopacity="1"
     objecttolerance="10"
     gridtolerance="10"
     guidetolerance="10"
     inkscape:pageopacity="0"
     inkscape:pageshadow="2"
     inkscape:window-width="640"
     inkscape:window-height="480"
     id="namedview4"
     showgrid="false"
     inkscape:zoom="0.79727185"
     inkscape:cx="212.60001"
     inkscape:cy="62.006248"
     inkscape:window-x="65"
     inkscape:window-y="24"
     inkscape:window-maximized="0"
     inkscape:current-layer="g10" /><g
     id="g10"
     inkscape:groupmode="layer"
     inkscape:label="chain_2_new"
     transform="matrix(1.25,0,0,-1.25,0,124.0125)"><g
       id="g12"
       transform="translate(72,27.21)"><text
         transform="matrix(1,0,0,-1,-80.5,42.56)"
         id="text14"><tspan
           style="fill:#ffffff;fill-opacity:1;fill-rule:nonzero;stroke:none;font-family:FreeMono;font-variant:normal;font-weight:normal;font-size:20.663;writing-mode:lr;-inkscape-font-specification:FreeMono"
           x="0"
           y="0"
           id="tspan16">0</tspan></text>
<g
         id="g18"
         transform="translate(-72,-27.21)"><g
           id="g20"><g
             id="g22"
             clip-path="url(#clipPath24)"><g
               id="g28"
               transform="scale(0.229721,0.229721)"><path
                 d="m 247.914,329.031 c 0,27.914 -23.687,50.547 -52.902,50.547 -29.215,0 -52.899,-22.633 -52.899,-50.547 0,-27.914 23.684,-50.547 52.899,-50.547 29.215,0 52.902,22.633 52.902,50.547"
                 style="fill:#000000;fill-opacity:1;fill-rule:nonzero;stroke:none"
                 id="path30" /><path
                 d="m 247.914,329.031 c 0,27.914 -23.687,50.547 -52.902,50.547 -29.215,0 -52.899,-22.633 -52.899,-50.547 0,-27.914 23.684,-50.547 52.899,-50.547 29.215,0 52.902,22.633 52.902,50.547 z"
                 style="fill:none;stroke:#000000;stroke-opacity:1;stroke-width:3.46948;stroke-linecap:butt;stroke-linejoin:miter;stroke-miterlimit:10;stroke-dasharray:none"
                 id="path32" /></g></g></g></g><text
         transform="matrix(1,0,0,-1,-33.4,42.56)"
         id="text34"><tspan
           style="fill:#000000;fill-opacity:1;fill-rule:nonzero;stroke:none;font-family:FreeMono;font-variant:normal;font-weight:normal;font-size:20.663;writing-mode:lr;-inkscape-font-specification:FreeMono"
           x="0"
           y="0"
           id="tspan36">H</tspan></text>
<g
         id="g38"
         transform="translate(-72,-27.21)"><g
           id="g40"><g
             id="g42"
             clip-path="url(#clipPath44)"><g
               id="g48"
               transform="scale(0.229721,0.229721)"><path
                 d="m 480.578,329.031 c 0,27.914 -23.683,50.547 -52.898,50.547 -29.215,0 -52.903,-22.633 -52.903,-50.547 0,-27.914 23.688,-50.547 52.903,-50.547 29.215,0 52.898,22.633 52.898,50.547"
                 style="fill:#ffffff;fill-opacity:1;fill-rule:nonzero;stroke:none"
                 id="path50" /><path
                 d="m 480.578,329.031 c 0,27.914 -23.683,50.547 -52.898,50.547 -29.215,0 -52.903,-22.633 -52.903,-50.547 0,-27.914 23.688,-50.547 52.903,-50.547 29.215,0 52.898,22.633 52.898,50.547 z"
                 style="fill:none;stroke:#000000;stroke-opacity:1;stroke-width:3.46948;stroke-linecap:butt;stroke-linejoin:miter;stroke-miterlimit:10;stroke-dasharray:none"
                 id="path52" /></g></g></g></g><text
         transform="matrix(1,0,0,-1,20.05,42.56)"
         id="text54"><tspan
           style="fill:#ffffff;fill-opacity:1;fill-rule:nonzero;stroke:none;font-family:FreeMono;font-variant:normal;font-weight:normal;font-size:20.663;writing-mode:lr;-inkscape-font-specification:FreeMono"
           x="0"
           y="0"
           id="tspan56">H</tspan></text>
<g
         id="g58"
         transform="translate(-72,-27.21)"><g
           id="g60"><g
             id="g62"
             clip-path="url(#clipPath64)"><g
               id="g68"
               transform="scale(0.229721,0.229721)"><path
                 d="m 713.246,329.031 c 0,27.914 -23.687,50.547 -52.902,50.547 -29.215,0 -52.899,-22.633 -52.899,-50.547 0,-27.914 23.684,-50.547 52.899,-50.547 29.215,0 52.902,22.633 52.902,50.547"
                 style="fill:#bfbfbf;fill-opacity:1;fill-rule:nonzero;stroke:none"
                 id="path70" /><path
                 d="m 713.246,329.031 c 0,27.914 -23.687,50.547 -52.902,50.547 -29.215,0 -52.899,-22.633 -52.899,-50.547 0,-27.914 23.684,-50.547 52.899,-50.547 29.215,0 52.902,22.633 52.902,50.547 z"
                 style="fill:none;stroke:#000000;stroke-opacity:1;stroke-width:3.46948;stroke-linecap:butt;stroke-linejoin:miter;stroke-miterlimit:10;stroke-dasharray:none"
                 id="path72" /></g></g></g></g><text
         transform="matrix(1,0,0,-1,73.5,42.56)"
         id="text74"><tspan
           style="fill:#bfbfbf;fill-opacity:1;fill-rule:nonzero;stroke:none;font-family:FreeMono;font-variant:normal;font-weight:normal;font-size:20.663;writing-mode:lr;-inkscape-font-specification:FreeMono"
           x="0"
           y="0"
           id="tspan76">H</tspan></text>
<g
         id="g78"
         transform="translate(-72,-27.21)"><g
           id="g80"><g
             id="g82"
             clip-path="url(#clipPath84)"><g
               id="g88"
               transform="scale(0.229721,0.229721)"><path
                 d="m 945.91,329.031 c 0,27.914 -23.683,50.547 -52.898,50.547 -29.215,0 -52.903,-22.633 -52.903,-50.547 0,-27.914 23.688,-50.547 52.903,-50.547 29.215,0 52.898,22.633 52.898,50.547"
                 style="fill:#000000;fill-opacity:1;fill-rule:nonzero;stroke:none"
                 id="path90" /><path
                 d="m 945.91,329.031 c 0,27.914 -23.683,50.547 -52.898,50.547 -29.215,0 -52.903,-22.633 -52.903,-50.547 0,-27.914 23.688,-50.547 52.903,-50.547 29.215,0 52.898,22.633 52.898,50.547 z"
                 style="fill:none;stroke:#000000;stroke-opacity:1;stroke-width:3.46948;stroke-linecap:butt;stroke-linejoin:miter;stroke-miterlimit:10;stroke-dasharray:none"
                 id="path92" /></g></g></g></g><text
         transform="matrix(1,0,0,-1,126.94,42.56)"
         id="text94"><tspan
           style="fill:#000000;fill-opacity:1;fill-rule:nonzero;stroke:none;font-family:FreeMono;font-variant:normal;font-weight:normal;font-size:20.663;writing-mode:lr;-inkscape-font-specification:FreeMono"
           x="0"
           y="0"
           id="tspan96">H</tspan></text>
<g
         id="g98"
         transform="translate(-72,-27.21)"><g
           id="g100"><g
             id="g102"
             clip-path="url(#clipPath104)"><g
               id="g108"
               transform="scale(0.229721,0.229721)"><path
                 d="m 1178.58,329.031 c 0,27.914 -23.69,50.547 -52.9,50.547 -29.22,0 -52.9,-22.633 -52.9,-50.547 0,-27.914 23.68,-50.547 52.9,-50.547 29.21,0 52.9,22.633 52.9,50.547"
                 style="fill:#ffffff;fill-opacity:1;fill-rule:nonzero;stroke:none"
                 id="path110" /><path
                 d="m 1178.58,329.031 c 0,27.914 -23.69,50.547 -52.9,50.547 -29.22,0 -52.9,-22.633 -52.9,-50.547 0,-27.914 23.68,-50.547 52.9,-50.547 29.21,0 52.9,22.633 52.9,50.547 z"
                 style="fill:none;stroke:#000000;stroke-opacity:1;stroke-width:3.46948;stroke-linecap:butt;stroke-linejoin:miter;stroke-miterlimit:10;stroke-dasharray:none"
                 id="path112" /></g></g></g></g><text
         transform="matrix(1,0,0,-1,180.39,42.56)"
         id="text114"><tspan
           style="fill:#ffffff;fill-opacity:1;fill-rule:nonzero;stroke:none;font-family:FreeMono;font-variant:normal;font-weight:normal;font-size:20.663;writing-mode:lr;-inkscape-font-specification:FreeMono"
           x="0"
           y="0"
           id="tspan116">H</tspan></text>
<text
         transform="matrix(1,0,0,-1,227.49,42.56)"
         id="text118"><tspan
           style="fill:#ffffff;fill-opacity:1;fill-rule:nonzero;stroke:none;font-family:FreeMono;font-variant:normal;font-weight:normal;font-size:20.663;writing-mode:lr;-inkscape-font-specification:FreeMono"
           x="0"
           y="0"
           id="tspan120">0</tspan></text>
<text
         transform="matrix(1,0,0,-1,-80.5,-10.7)"
         id="text122"><tspan
           style="fill:#ffffff;fill-opacity:1;fill-rule:nonzero;stroke:none;font-family:FreeMono;font-variant:normal;font-weight:normal;font-size:20.663;writing-mode:lr;-inkscape-font-specification:FreeMono"
           x="0"
           y="0"
           id="tspan124">0</tspan></text>
<g
         id="g126"
         transform="translate(-72,-27.21)"><g
           id="g128"><g
             id="g130"
             clip-path="url(#clipPath132)"><g
               id="g136"
               transform="scale(0.229721,0.229721)"><path
                 d="m 247.914,97.2148 c 0,27.9142 -23.687,50.5472 -52.902,50.5472 -29.215,0 -52.899,-22.633 -52.899,-50.5472 0,-27.914 23.684,-50.5468 52.899,-50.5468 29.215,0 52.902,22.6328 52.902,50.5468"
                 style="fill:#000000;fill-opacity:1;fill-rule:nonzero;stroke:none"
                 id="path138" /><path
                 d="m 247.914,97.2148 c 0,27.9142 -23.687,50.5472 -52.902,50.5472 -29.215,0 -52.899,-22.633 -52.899,-50.5472 0,-27.914 23.684,-50.5468 52.899,-50.5468 29.215,0 52.902,22.6328 52.902,50.5468 z"
                 style="fill:none;stroke:#000000;stroke-opacity:1;stroke-width:3.46948;stroke-linecap:butt;stroke-linejoin:miter;stroke-miterlimit:10;stroke-dasharray:none"
                 id="path140" /></g></g></g></g><text
         transform="matrix(1,0,0,-1,-33.4,-10.7)"
         id="text142"><tspan
           style="fill:#000000;fill-opacity:1;fill-rule:nonzero;stroke:none;font-family:FreeMono;font-variant:normal;font-weight:normal;font-size:20.663;writing-mode:lr;-inkscape-font-specification:FreeMono"
           x="0"
           y="0"
           id="tspan144">H</tspan></text>
<g
         id="g146"
         transform="translate(-72,-27.21)"><g
           id="g148"><g
             id="g150"
             clip-path="url(#clipPath152)"><g
               id="g156"
               transform="scale(0.229721,0.229721)"><path
                 d="m 480.578,97.2148 c 0,27.9142 -23.683,50.5472 -52.898,50.5472 -29.215,0 -52.903,-22.633 -52.903,-50.5472 0,-27.914 23.688,-50.5468 52.903,-50.5468 29.215,0 52.898,22.6328 52.898,50.5468"
                 style="fill:#808080;fill-opacity:1;fill-rule:nonzero;stroke:none"
                 id="path158" /><path
                 d="m 480.578,97.2148 c 0,27.9142 -23.683,50.5472 -52.898,50.5472 -29.215,0 -52.903,-22.633 -52.903,-50.5472 0,-27.914 23.688,-50.5468 52.903,-50.5468 29.215,0 52.898,22.6328 52.898,50.5468 z"
                 style="fill:none;stroke:#000000;stroke-opacity:1;stroke-width:3.46948;stroke-linecap:butt;stroke-linejoin:miter;stroke-miterlimit:10;stroke-dasharray:none"
                 id="path160" /></g></g></g></g><text
         transform="matrix(1,0,0,-1,20.05,-10.7)"
         id="text162"><tspan
           style="fill:#808080;fill-opacity:1;fill-rule:nonzero;stroke:none;font-family:FreeMono;font-variant:normal;font-weight:normal;font-size:20.663;writing-mode:lr;-inkscape-font-specification:FreeMono"
           x="0"
           y="0"
           id="tspan164">H</tspan></text>
<g
         id="g166"
         transform="translate(-72,-27.21)"><g
           id="g168"><g
             id="g170"
             clip-path="url(#clipPath172)"><g
               id="g176"
               transform="scale(0.229721,0.229721)"><path
                 d="m 713.246,97.2148 c 0,27.9142 -23.687,50.5472 -52.902,50.5472 -29.215,0 -52.899,-22.633 -52.899,-50.5472 0,-27.914 23.684,-50.5468 52.899,-50.5468 29.215,0 52.902,22.6328 52.902,50.5468"
                 style="fill:#bfbfbf;fill-opacity:1;fill-rule:nonzero;stroke:none"
                 id="path178" /><path
                 d="m 713.246,97.2148 c 0,27.9142 -23.687,50.5472 -52.902,50.5472 -29.215,0 -52.899,-22.633 -52.899,-50.5472 0,-27.914 23.684,-50.5468 52.899,-50.5468 29.215,0 52.902,22.6328 52.902,50.5468 z"
                 style="fill:none;stroke:#000000;stroke-opacity:1;stroke-width:3.46948;stroke-linecap:butt;stroke-linejoin:miter;stroke-miterlimit:10;stroke-dasharray:none"
                 id="path180" /></g></g></g></g><text
         transform="matrix(1,0,0,-1,73.5,-10.7)"
         id="text182"><tspan
           style="fill:#bfbfbf;fill-opacity:1;fill-rule:nonzero;stroke:none;font-family:FreeMono;font-variant:normal;font-weight:normal;font-size:20.663;writing-mode:lr;-inkscape-font-specification:FreeMono"
           x="0"
           y="0"
           id="tspan184">H</tspan></text>
<g
         id="g186"
         transform="translate(-72,-27.21)"><g
           id="g188"><g
             id="g190"
             clip-path="url(#clipPath192)"><g
               id="g196"
               transform="scale(0.229721,0.229721)"><path
                 d="m 945.91,97.2148 c 0,27.9142 -23.683,50.5472 -52.898,50.5472 -29.215,0 -52.903,-22.633 -52.903,-50.5472 0,-27.914 23.688,-50.5468 52.903,-50.5468 29.215,0 52.898,22.6328 52.898,50.5468"
                 style="fill:#ffffff;fill-opacity:1;fill-rule:nonzero;stroke:none"
                 id="path198" /><path
                 d="m 945.91,97.2148 c 0,27.9142 -23.683,50.5472 -52.898,50.5472 -29.215,0 -52.903,-22.633 -52.903,-50.5472 0,-27.914 23.688,-50.5468 52.903,-50.5468 29.215,0 52.898,22.6328 52.898,50.5468 z"
                 style="fill:none;stroke:#000000;stroke-opacity:1;stroke-width:3.46948;stroke-linecap:butt;stroke-linejoin:miter;stroke-miterlimit:10;stroke-dasharray:none"
                 id="path200" /></g></g></g></g><text
         transform="matrix(1,0,0,-1,126.94,-10.7)"
         id="text202"><tspan
           style="fill:#ffffff;fill-opacity:1;fill-rule:nonzero;stroke:none;font-family:FreeMono;font-variant:normal;font-weight:normal;font-size:20.663;writing-mode:lr;-inkscape-font-specification:FreeMono"
           x="0"
           y="0"
           id="tspan204">H</tspan></text>
<text
         transform="matrix(1,0,0,-1,180.39,-10.7)"
         id="text206"><tspan
           style="fill:#ffffff;fill-opacity:1;fill-rule:nonzero;stroke:none;font-family:FreeMono;font-variant:normal;font-weight:normal;font-size:20.663;writing-mode:lr;-inkscape-font-specification:FreeMono"
           x="0"
           y="0"
           id="tspan208">0</tspan></text>
<g
         id="g210"
         transform="translate(-72,-27.21)"><g
           id="g212"><g
             id="g214"
             clip-path="url(#clipPath216)"><g
               id="g220"
               transform="scale(0.229721,0.229721)"><path
                 d="m 17.1836,330.066 123.1954,0"
                 style="fill:none;stroke:#000000;stroke-opacity:1;stroke-width:6.19322;stroke-linecap:butt;stroke-linejoin:miter;stroke-miterlimit:10;stroke-dasharray:none"
                 id="path222" /></g></g></g></g><g
         id="g224"
         transform="translate(-72,-27.21)"><g
           id="g226"><g
             id="g228"
             clip-path="url(#clipPath230)"><g
               id="g234"
               transform="scale(0.229721,0.229721)"><path
                 d="m 250.059,330.066 122.984,0"
                 style="fill:none;stroke:#000000;stroke-opacity:1;stroke-width:6.19322;stroke-linecap:butt;stroke-linejoin:miter;stroke-miterlimit:10;stroke-dasharray:none"
                 id="path236" /></g></g></g></g><g
         id="g238"
         transform="translate(-72,-27.21)"><g
           id="g240"><g
             id="g242"
             clip-path="url(#clipPath244)"><g
               id="g248"
               transform="scale(0.229721,0.229721)"><path
                 d="m 482.723,330.066 122.988,0"
                 style="fill:none;stroke:#000000;stroke-opacity:1;stroke-width:6.19322;stroke-linecap:butt;stroke-linejoin:miter;stroke-miterlimit:10;stroke-dasharray:none"
                 id="path250" /></g></g></g></g><g
         id="g252"
         transform="translate(-72,-27.21)"><g
           id="g254"><g
             id="g256"
             clip-path="url(#clipPath258)"><g
               id="g262"
               transform="scale(0.229721,0.229721)"><path
                 d="m 715.391,330.066 122.984,0"
                 style="fill:none;stroke:#000000;stroke-opacity:1;stroke-width:6.19322;stroke-linecap:butt;stroke-linejoin:miter;stroke-miterlimit:10;stroke-dasharray:none"
                 id="path264" /></g></g></g></g><g
         id="g266"
         transform="translate(-72,-27.21)"><g
           id="g268"><g
             id="g270"
             clip-path="url(#clipPath272)"><g
               id="g276"
               transform="scale(0.229721,0.229721)"><path
                 d="m 948.055,330.066 122.985,0"
                 style="fill:none;stroke:#000000;stroke-opacity:1;stroke-width:6.19322;stroke-linecap:butt;stroke-linejoin:miter;stroke-miterlimit:10;stroke-dasharray:none"
                 id="path278" /></g></g></g></g><g
         id="g280"
         transform="translate(-72,-27.21)"><g
           id="g282"><g
             id="g284"
             clip-path="url(#clipPath286)"><g
               id="g290"
               transform="scale(0.229721,0.229721)"><path
                 d="m 1180.72,330.066 122.99,0"
                 style="fill:none;stroke:#000000;stroke-opacity:1;stroke-width:6.19322;stroke-linecap:butt;stroke-linejoin:miter;stroke-miterlimit:10;stroke-dasharray:none"
                 id="path292" /></g></g></g></g><g
         id="g294"
         transform="translate(-72,-27.21)"><g
           id="g296"><g
             id="g298"
             clip-path="url(#clipPath300)"><g
               id="g304"
               transform="scale(0.229721,0.229721)"><path
                 d="m 17.1836,98.25 123.1954,0"
                 style="fill:none;stroke:#000000;stroke-opacity:1;stroke-width:6.19322;stroke-linecap:butt;stroke-linejoin:miter;stroke-miterlimit:10;stroke-dasharray:none"
                 id="path306" /></g></g></g></g><g
         id="g308"
         transform="translate(-72,-27.21)"><g
           id="g310"><g
             id="g312"
             clip-path="url(#clipPath314)"><g
               id="g318"
               transform="scale(0.229721,0.229721)"><path
                 d="m 250.059,98.25 122.984,0"
                 style="fill:none;stroke:#000000;stroke-opacity:1;stroke-width:6.19322;stroke-linecap:butt;stroke-linejoin:miter;stroke-miterlimit:10;stroke-dasharray:none"
                 id="path320" /></g></g></g></g><g
         id="g322"
         transform="translate(-72,-27.21)"><g
           id="g324"><g
             id="g326"
             clip-path="url(#clipPath328)"><g
               id="g332"
               transform="scale(0.229721,0.229721)"><path
                 d="m 482.723,98.25 122.988,0"
                 style="fill:none;stroke:#000000;stroke-opacity:1;stroke-width:6.19322;stroke-linecap:butt;stroke-linejoin:miter;stroke-miterlimit:10;stroke-dasharray:none"
                 id="path334" /></g></g></g></g><g
         id="g336"
         transform="translate(-72,-27.21)"><g
           id="g338"><g
             id="g340"
             clip-path="url(#clipPath342)"><g
               id="g346"
               transform="scale(0.229721,0.229721)"><path
                 d="m 715.391,98.25 122.984,0"
                 style="fill:none;stroke:#000000;stroke-opacity:1;stroke-width:6.19322;stroke-linecap:butt;stroke-linejoin:miter;stroke-miterlimit:10;stroke-dasharray:none"
                 id="path348" /></g></g></g></g><g
         id="g350"
         transform="translate(-72,-27.21)"><g
           id="g352"><g
             id="g354"
             clip-path="url(#clipPath356)"><g
               id="g360"
               transform="scale(0.229721,0.229721)"><path
                 d="m 948.055,98.25 150.645,0"
                 style="fill:none;stroke:#000000;stroke-opacity:1;stroke-width:6.19322;stroke-linecap:butt;stroke-linejoin:miter;stroke-miterlimit:10;stroke-dasharray:none"
                 id="path362" /></g></g></g></g><g
         id="g364"
         transform="translate(-72,-27.21)"><g
           id="g366"><g
             id="g368"
             clip-path="url(#clipPath370)"><g
               id="g374"
               transform="scale(0.229721,0.229721)"><path
                 d="m 204.676,250.164 -9.457,26.484 -9.457,-26.484 9.457,10.594"
                 style="fill:#000000;fill-opacity:1;fill-rule:nonzero;stroke:none"
                 id="path376" /><path
                 d="m 185.762,176.27 9.457,-26.481 9.457,26.481 -9.457,-10.59"
                 style="fill:#000000;fill-opacity:1;fill-rule:nonzero;stroke:none"
                 id="path378" /><path
                 d="m 195.219,260.758 0,-95.078"
                 style="fill:none;stroke:#000000;stroke-opacity:1;stroke-width:6.19322;stroke-linecap:butt;stroke-linejoin:miter;stroke-miterlimit:10;stroke-dasharray:none"
                 id="path380" /></g></g></g></g><g
         id="g382"
         transform="translate(-72,-27.21)"><g
           id="g384"><g
             id="g386"
             clip-path="url(#clipPath388)"><g
               id="g392"
               transform="scale(0.229721,0.229721)"><path
                 d="m 437.344,250.164 -9.461,26.484 -9.457,-26.484 9.457,10.594"
                 style="fill:#000000;fill-opacity:1;fill-rule:nonzero;stroke:none"
                 id="path394" /><path
                 d="m 418.426,176.27 9.457,-26.481 9.461,26.481 -9.461,-10.59"
                 style="fill:#000000;fill-opacity:1;fill-rule:nonzero;stroke:none"
                 id="path396" /><path
                 d="m 427.883,260.758 0,-95.078"
                 style="fill:none;stroke:#000000;stroke-opacity:1;stroke-width:6.19322;stroke-linecap:butt;stroke-linejoin:miter;stroke-miterlimit:10;stroke-dasharray:none"
                 id="path398" /></g></g></g></g><g
         id="g400"
         transform="translate(-72,-27.21)"><g
           id="g402"><g
             id="g404"
             clip-path="url(#clipPath406)"><g
               id="g410"
               transform="scale(0.229721,0.229721)"><path
                 d="m 670.008,250.164 -9.457,26.484 -9.457,-26.484 9.457,10.594"
                 style="fill:#000000;fill-opacity:1;fill-rule:nonzero;stroke:none"
                 id="path412" /><path
                 d="m 651.094,176.27 9.457,-26.481 9.457,26.481 -9.457,-10.59"
                 style="fill:#000000;fill-opacity:1;fill-rule:nonzero;stroke:none"
                 id="path414" /><path
                 d="m 660.551,260.758 0,-95.078"
                 style="fill:none;stroke:#000000;stroke-opacity:1;stroke-width:6.19322;stroke-linecap:butt;stroke-linejoin:miter;stroke-miterlimit:10;stroke-dasharray:none"
                 id="path416" /></g></g></g></g><g
         id="g418"
         transform="translate(-72,-27.21)"><g
           id="g420"><g
             id="g422"
             clip-path="url(#clipPath424)"><g
               id="g428"
               transform="scale(0.229721,0.229721)"><path
                 d="m 1060.18,251.258 12.09,25.39 -25.44,-11.992 14.18,0.778"
                 style="fill:#000000;fill-opacity:1;fill-rule:nonzero;stroke:none"
                 id="path430" /><path
                 d="m 957.027,175.18 -12.082,-25.391 25.434,11.992 -14.18,-0.777"
                 style="fill:#000000;fill-opacity:1;fill-rule:nonzero;stroke:none"
                 id="path432" /><path
                 d="M 1061.01,265.434 956.199,161.004"
                 style="fill:none;stroke:#000000;stroke-opacity:1;stroke-width:6.19322;stroke-linecap:butt;stroke-linejoin:miter;stroke-miterlimit:10;stroke-dasharray:none"
                 id="path434" /></g></g></g></g><g
         id="g436"
         transform="translate(-72,-27.21)"><g
           id="g438"><g
             id="g440"
             clip-path="url(#clipPath442)"><g
               id="g446"
               transform="scale(0.229721,0.229721)"><path
                 d="m 1177.61,381.605 -8.74,8.774 c -19.32,19.383 -50.69,19.441 -70.07,0.129 L 830.988,123.668 C 811.609,104.359 811.551,72.9883 830.859,53.6055 l 17.489,-17.5508 c 19.308,-19.3789 50.679,-19.4375 70.062,-0.125 l 267.82,266.8363 c 19.38,19.312 19.43,50.683 0.12,70.066 l -8.74,8.773 z"
                 style="fill:none;stroke:#000000;stroke-opacity:1;stroke-width:6.19322;stroke-linecap:butt;stroke-linejoin:miter;stroke-miterlimit:10;stroke-dasharray:none"
                 id="path448" /></g></g></g></g><g
         id="g450"
         transform="translate(-72,-27.21)"><g
           id="g452"><g
             id="g454"
             clip-path="url(#clipPath456)"><g
               id="g460"
               transform="scale(0.229721,0.229721)"><path
                 d="m 195.219,400.184 -12.387,0 c -27.359,0 -49.543,-22.184 -49.543,-49.543 l 0,-274.8441 c 0,-27.3594 22.184,-49.543 49.543,-49.543 l 24.773,0 c 27.36,0 49.543,22.1836 49.543,49.543 l 0,274.8441 c 0,27.359 -22.183,49.543 -49.543,49.543 l -12.386,0 z"
                 style="fill:none;stroke:#000000;stroke-opacity:1;stroke-width:6.19322;stroke-linecap:butt;stroke-linejoin:miter;stroke-miterlimit:10;stroke-dasharray:none"
                 id="path462" /></g></g></g></g><g
         id="g464"
         transform="translate(-72,-27.21)"><g
           id="g466"><g
             id="g468"
             clip-path="url(#clipPath470)"><g
               id="g474"
               transform="scale(0.229721,0.229721)"><path
                 d="m 427.883,400.184 -12.387,0 -9.984,-1.008 -9.301,-2.887 -8.414,-4.57 -7.332,-6.047 -6.051,-7.336 -4.566,-8.414 -2.887,-9.301 -1.004,-9.98 0,-274.8441 1.004,-9.9844 2.887,-9.3008 4.566,-8.414 6.051,-7.3321 7.332,-6.0508 8.414,-4.5703 9.301,-2.8867 9.984,-1.0039 24.774,0 9.98,1.0039 9.301,2.8867 8.414,4.5703 7.336,6.0508 6.047,7.3321 4.57,8.414 2.887,9.3008 1.007,9.9844 0,274.8441 -1.007,9.98 -2.887,9.301 -4.57,8.414 -6.047,7.336 -7.336,6.047 -8.414,4.57 -9.301,2.887 -9.98,1.008 -12.387,0 z"
                 style="fill:none;stroke:#000000;stroke-opacity:1;stroke-width:6.19322;stroke-linecap:butt;stroke-linejoin:miter;stroke-miterlimit:10;stroke-dasharray:21.8764,13.1258,0,0;stroke-dashoffset:10.9382"
                 id="path476" /></g></g></g></g><g
         id="g478"
         transform="translate(-72,-27.21)"><g
           id="g480"><g
             id="g482"
             clip-path="url(#clipPath484)"><g
               id="g488"
               transform="scale(0.229721,0.229721)"><path
                 d="m 660.551,400.184 -12.387,0 c -27.359,0 -49.543,-22.184 -49.543,-49.543 l 0,-274.8441 c 0,-27.3594 22.184,-49.543 49.543,-49.543 l 24.774,0 c 27.359,0 49.542,22.1836 49.542,49.543 l 0,274.8441 c 0,27.359 -22.183,49.543 -49.542,49.543 l -12.387,0 z"
                 style="fill:none;stroke:#000000;stroke-opacity:1;stroke-width:6.19322;stroke-linecap:butt;stroke-linejoin:miter;stroke-miterlimit:10;stroke-dasharray:none"
                 id="path490" /></g></g></g></g><g
         id="g492"
         transform="translate(-72,-27.21)"><g
           id="g494"><g
             id="g496"
             clip-path="url(#clipPath498)"><g
               id="g502"
               transform="scale(0.229721,0.229721)"><path
                 d="m 825.988,330.066 0,-12.386 1.004,-9.985 2.887,-9.3 4.57,-8.415 6.051,-7.332 7.332,-6.05 8.414,-4.571 9.301,-2.886 9.984,-1.004 35.371,0 9.981,1.004 9.301,2.886 8.414,4.571 7.332,6.05 6.05,7.332 4.567,8.415 2.887,9.3 1.007,9.985 0,24.773 -1.007,9.981 -2.887,9.3 -4.57,8.414 -6.047,7.336 -7.336,6.047 -8.414,4.571 -9.301,2.886 -9.981,1.008 -35.367,0 -9.984,-1.008 -9.301,-2.886 -8.414,-4.571 -7.332,-6.047 -6.051,-7.336 -4.57,-8.414 -2.887,-9.3 -1.004,-9.981 0,-12.387 z"
                 style="fill:none;stroke:#000000;stroke-opacity:1;stroke-width:6.19322;stroke-linecap:round;stroke-linejoin:miter;stroke-miterlimit:10;stroke-dasharray:0,19.5958;stroke-dashoffset:0"
                 id="path504" /></g></g></g></g><g
         id="g506"
         transform="matrix(0.7,0,0,0.7,56.23,-0.77)"><g
           id="g508"><path
             d="m 187.44,36.03 111.79,0"
             style="fill:none;stroke:#000000;stroke-opacity:1;stroke-width:0.398;stroke-linecap:butt;stroke-linejoin:miter;stroke-miterlimit:10;stroke-dasharray:none"
             id="path510" /></g><g
           id="g512"><path
             d="m 187.44,10.92 0,24.91"
             style="fill:none;stroke:#000000;stroke-opacity:1;stroke-width:0.398;stroke-linecap:butt;stroke-linejoin:miter;stroke-miterlimit:10;stroke-dasharray:none"
             id="path514" /></g><g
           id="g516"><path
             d="m 193.42,21.98 26.93,0"
             style="fill:none;stroke:#000000;stroke-opacity:1;stroke-width:1.494;stroke-linecap:butt;stroke-linejoin:miter;stroke-miterlimit:10;stroke-dasharray:none"
             id="path518" /></g><text
           transform="matrix(1,0,0,-1,233.72,18.39)"
           id="text520"><tspan
             style="fill:#000000;fill-opacity:1;fill-rule:nonzero;stroke:none;font-family:FreeSerifItalic;font-style:italic;font-variant:normal;font-weight:normal;font-size:11.955;writing-mode:lr;-inkscape-font-specification:FreeSerifItalic"
             x="0 5.750355 8.595645 12.88749 17.59776 22.54713 28.847415 37.311555 43.169505 46.07457 50.90439"
             y="0"
             sodipodi:role="line"
             id="tspan522">directmatch</tspan></text>
<g
           id="g524"><path
             d="m 299.23,10.92 0,24.91"
             style="fill:none;stroke:#000000;stroke-opacity:1;stroke-width:0.398;stroke-linecap:butt;stroke-linejoin:miter;stroke-miterlimit:10;stroke-dasharray:none"
             id="path526" /></g><g
           id="g528"><path
             d="m 187.44,-9.85 0,24.9"
             style="fill:none;stroke:#000000;stroke-opacity:1;stroke-width:0.398;stroke-linecap:butt;stroke-linejoin:miter;stroke-miterlimit:10;stroke-dasharray:none"
             id="path530" /></g><g
           id="g532"><path
             d="m 193.42,1.2 2.99,0"
             style="fill:none;stroke:#000000;stroke-opacity:1;stroke-width:1.494;stroke-linecap:butt;stroke-linejoin:miter;stroke-miterlimit:10;stroke-dasharray:none"
             id="path534" /></g><g
           id="g536"><path
             d="m 199.4,1.2 2.99,0"
             style="fill:none;stroke:#000000;stroke-opacity:1;stroke-width:1.494;stroke-linecap:butt;stroke-linejoin:miter;stroke-miterlimit:10;stroke-dasharray:none"
             id="path538" /></g><g
           id="g540"><path
             d="m 205.38,1.2 2.98,0"
             style="fill:none;stroke:#000000;stroke-opacity:1;stroke-width:1.494;stroke-linecap:butt;stroke-linejoin:miter;stroke-miterlimit:10;stroke-dasharray:none"
             id="path542" /></g><g
           id="g544"><path
             d="m 211.35,1.2 2.99,0"
             style="fill:none;stroke:#000000;stroke-opacity:1;stroke-width:1.494;stroke-linecap:butt;stroke-linejoin:miter;stroke-miterlimit:10;stroke-dasharray:none"
             id="path546" /></g><g
           id="g548"><path
             d="m 217.33,1.2 2.99,0"
             style="fill:none;stroke:#000000;stroke-opacity:1;stroke-width:1.494;stroke-linecap:butt;stroke-linejoin:miter;stroke-miterlimit:10;stroke-dasharray:none"
             id="path550" /></g><text
           transform="matrix(1,0,0,-1,233.72,-2.38)"
           id="text552"><tspan
             style="fill:#000000;fill-opacity:1;fill-rule:nonzero;stroke:none;font-family:FreeSerifItalic;font-style:italic;font-variant:normal;font-weight:normal;font-size:11.955;writing-mode:lr;-inkscape-font-specification:FreeSerifItalic"
             x="0 8.404365 11.369205 15.7806 24.232785 30.090735 32.9958 37.82562"
             y="0"
             sodipodi:role="line"
             id="tspan554">mismatch</tspan></text>
<g
           id="g556"><path
             d="m 299.23,-9.85 0,24.9"
             style="fill:none;stroke:#000000;stroke-opacity:1;stroke-width:0.398;stroke-linecap:butt;stroke-linejoin:miter;stroke-miterlimit:10;stroke-dasharray:none"
             id="path558" /></g><g
           id="g560"><path
             d="m 187.44,-30.63 0,24.91"
             style="fill:none;stroke:#000000;stroke-opacity:1;stroke-width:0.398;stroke-linecap:butt;stroke-linejoin:miter;stroke-miterlimit:10;stroke-dasharray:none"
             id="path562" /></g><g
           id="g564"><path
             d="m 194.07,-20.32 0,1.49"
             style="fill:none;stroke:#000000;stroke-opacity:1;stroke-width:1.295;stroke-linecap:butt;stroke-linejoin:miter;stroke-miterlimit:10;stroke-dasharray:none"
             id="path566" /></g><g
           id="g568"><path
             d="m 196.66,-20.32 0,1.49"
             style="fill:none;stroke:#000000;stroke-opacity:1;stroke-width:1.295;stroke-linecap:butt;stroke-linejoin:miter;stroke-miterlimit:10;stroke-dasharray:none"
             id="path570" /></g><g
           id="g572"><path
             d="m 199.25,-20.32 0,1.49"
             style="fill:none;stroke:#000000;stroke-opacity:1;stroke-width:1.295;stroke-linecap:butt;stroke-linejoin:miter;stroke-miterlimit:10;stroke-dasharray:none"
             id="path574" /></g><g
           id="g576"><path
             d="m 201.84,-20.32 0,1.49"
             style="fill:none;stroke:#000000;stroke-opacity:1;stroke-width:1.295;stroke-linecap:butt;stroke-linejoin:miter;stroke-miterlimit:10;stroke-dasharray:none"
             id="path578" /></g><g
           id="g580"><path
             d="m 204.43,-20.32 0,1.49"
             style="fill:none;stroke:#000000;stroke-opacity:1;stroke-width:1.295;stroke-linecap:butt;stroke-linejoin:miter;stroke-miterlimit:10;stroke-dasharray:none"
             id="path582" /></g><g
           id="g584"><path
             d="m 207.02,-20.32 0,1.49"
             style="fill:none;stroke:#000000;stroke-opacity:1;stroke-width:1.295;stroke-linecap:butt;stroke-linejoin:miter;stroke-miterlimit:10;stroke-dasharray:none"
             id="path586" /></g><g
           id="g588"><path
             d="m 209.61,-20.32 0,1.49"
             style="fill:none;stroke:#000000;stroke-opacity:1;stroke-width:1.295;stroke-linecap:butt;stroke-linejoin:miter;stroke-miterlimit:10;stroke-dasharray:none"
             id="path590" /></g><g
           id="g592"><path
             d="m 212.2,-20.32 0,1.49"
             style="fill:none;stroke:#000000;stroke-opacity:1;stroke-width:1.295;stroke-linecap:butt;stroke-linejoin:miter;stroke-miterlimit:10;stroke-dasharray:none"
             id="path594" /></g><g
           id="g596"><path
             d="m 214.79,-20.32 0,1.49"
             style="fill:none;stroke:#000000;stroke-opacity:1;stroke-width:1.295;stroke-linecap:butt;stroke-linejoin:miter;stroke-miterlimit:10;stroke-dasharray:none"
             id="path598" /></g><g
           id="g600"><path
             d="m 217.38,-20.32 0,1.49"
             style="fill:none;stroke:#000000;stroke-opacity:1;stroke-width:1.295;stroke-linecap:butt;stroke-linejoin:miter;stroke-miterlimit:10;stroke-dasharray:none"
             id="path602" /></g><g
           id="g604"><path
             d="m 219.97,-20.32 0,1.49"
             style="fill:none;stroke:#000000;stroke-opacity:1;stroke-width:1.295;stroke-linecap:butt;stroke-linejoin:miter;stroke-miterlimit:10;stroke-dasharray:none"
             id="path606" /></g><text
           transform="matrix(1,0,0,-1,233.72,-23.15)"
           id="text608"><tspan
             style="fill:#000000;fill-opacity:1;fill-rule:nonzero;stroke:none;font-family:FreeSerifItalic;font-style:italic;font-variant:normal;font-weight:normal;font-size:11.955;writing-mode:lr;-inkscape-font-specification:FreeSerifItalic"
             x="0 4.961325 13.353735 18.972585 22.296075 30.58089 39.04503 44.90298 47.808045 52.637865"
             y="0"
             sodipodi:role="line"
             id="tspan610">emptymatch</tspan></text>
<g
           id="g612"><path
             d="m 299.23,-30.63 0,24.91"
             style="fill:none;stroke:#000000;stroke-opacity:1;stroke-width:0.398;stroke-linecap:butt;stroke-linejoin:miter;stroke-miterlimit:10;stroke-dasharray:none"
             id="path614" /></g><g
           id="g616"><path
             d="m 187.44,-30.83 111.79,0"
             style="fill:none;stroke:#000000;stroke-opacity:1;stroke-width:0.398;stroke-linecap:butt;stroke-linejoin:miter;stroke-miterlimit:10;stroke-dasharray:none"
             id="path618" /></g></g><text
         transform="matrix(1,0,0,-1,255.76,-114.39)"
         id="text620"><tspan
           style="fill:#000000;fill-opacity:1;fill-rule:nonzero;stroke:none;font-family:FreeMono;font-variant:normal;font-weight:normal;font-size:20.663;writing-mode:lr;-inkscape-font-specification:FreeMono"
           x="0"
           y="0"
           id="tspan622">1</tspan></text>
</g></g></svg>