<?xml version="1.0" encoding="UTF-8" standalone="no"?>
<!-- Created with Inkscape (http://www.inkscape.org/) -->

<svg
   xmlns:dc="http://purl.org/dc/elements/1.1/"
   xmlns:cc="http://creativecommons.org/ns#"
   xmlns:rdf="http://www.w3.org/1999/02/22-rdf-syntax-ns#"
   xmlns:svg="http://www.w3.org/2000/svg"
   xmlns="http://www.w3.org/2000/svg"
   xmlns:sodipodi="http://sodipodi.sourceforge.net/DTD/sodipodi-0.dtd"
   xmlns:inkscape="http://www.inkscape.org/namespaces/inkscape"
   id="svg2"
   version="1.1"
   inkscape:version="0.48.4 r9939"
   width="425.17664"
   height="261.38193"
   xml:space="preserve"
   sodipodi:docname="slides.pdf"><metadata
     id="metadata8"><rdf:RDF><cc:Work
         rdf:about=""><dc:format>image/svg+xml</dc:format><dc:type
           rdf:resource="http://purl.org/dc/dcmitype/StillImage" /><dc:title></dc:title></cc:Work></rdf:RDF></metadata><defs
     id="defs6" /><sodipodi:namedview
     pagecolor="#ffffff"
     bordercolor="#666666"
     borderopacity="1"
     objecttolerance="10"
     gridtolerance="10"
     guidetolerance="10"
     inkscape:pageopacity="0"
     inkscape:pageshadow="2"
     inkscape:window-width="1215"
     inkscape:window-height="1000"
     id="namedview4"
     showgrid="false"
     fit-margin-top="0"
     fit-margin-left="0"
     fit-margin-right="0"
     fit-margin-bottom="0"
     inkscape:zoom="0.92610076"
     inkscape:cx="222.91056"
     inkscape:cy="122.43495"
     inkscape:window-x="65"
     inkscape:window-y="24"
     inkscape:window-maximized="1"
     inkscape:current-layer="g12" /><g
     id="g10"
     inkscape:groupmode="layer"
     inkscape:label="slides"
     transform="matrix(1.25,0,0,-1.25,-59.261119,274.79121)"><g
       id="g12"
       transform="translate(72,200.13)"><g
         id="g42"
         transform="translate(163.8093,9.5255145)"><g
           id="g44"
           transform="matrix(0.8098,0,0,0.8098,-1.2100738,-36.183596)"><g
             id="g58"><path
               d="m -231.17,57.06 420.06,0"
               style="fill:none;stroke:#000000;stroke-width:0.398;stroke-linecap:butt;stroke-linejoin:miter;stroke-miterlimit:10;stroke-opacity:1;stroke-dasharray:none"
               id="path60"
               inkscape:connector-curvature="0" /></g><g
             id="g62"><path
               d="m -230.97,29.77 0,27.09"
               style="fill:none;stroke:#000000;stroke-width:0.398;stroke-linecap:butt;stroke-linejoin:miter;stroke-miterlimit:10;stroke-opacity:1;stroke-dasharray:none"
               id="path64"
               inkscape:connector-curvature="0" /></g><text
             transform="matrix(1,0,0,-1,-224.8,47.38)"
             id="text66"><tspan
               style="font-size:10.9090004px;font-variant:normal;font-weight:normal;writing-mode:lr-tb;fill:#000000;fill-opacity:1;fill-rule:nonzero;stroke:none;font-family:FreeSans;-inkscape-font-specification:FreeSans"
               x="0 6.0654039 38.803314 46.417793 52.232292 55.286812 61.101311 64.723099 73.581207 76.003006 81.861137 91.264694 97.090103 106.53729 109.59181 115.43904 124.8426 130.22073 133.27525 136.89703 142.71153 148.56967 154.56963 157.62415 167.06042 172.88583 179.52942 185.62755 188.04935 193.97293 199.97289 205.83101 211.65642 217.03456 220.08908 222.51088 231.61989 237.43439 242.84525 245.26704 251.36517 257.17969 263.03781 268.55777 277.97223 281.02676 286.87396 292.79755 299.44113 308.9538 314.33194 320.14642 326.79001 332.61542 339.259 341.59351 347.51709 353.37524 359.37518 365.23331 371.15692 377.15686 382.97134 391.93854 397.86215 401.48392"
               y="0"
               sodipodi:role="line"
               id="tspan68">1.Determineonthestrengthofdiagnosticevidencethatasetoflanguagesare</tspan><tspan
               style="font-size:10.9090004px;font-variant:normal;font-weight:normal;writing-mode:lr-tb;fill:#000000;fill-opacity:1;fill-rule:nonzero;stroke:none;font-family:FreeSans;-inkscape-font-specification:FreeSans"
               x="38.810001 44.809952 50.624447 56.482578 62.297077 65.351601 67.773392 73.29335 79.216934 81.55146 83.885986 91.816833 95.438622 101.25311 103.58764 109.51123 112.56575 118.38025 124.47838 130.23833 133.29285 139.14008 145.06366 150.84543 153.26723 158.64537 164.40532 167.45984 173.30707 179.23065 185.01242 188.06694 193.91417 199.72865 207.67041 213.19037 219.01578 224.8739 230.25204 233.30656 235.72836 238.78288 244.64101 247.69553 256.23727 264.88812 267.61536 270.66989 276.59348 285.45157 287.87338 290.20792 295.42239 298.14966"
               y="13.55"
               sodipodi:role="line"
               id="tspan70">geneticallyrelated,thatis,thattheyconstitutea‘family’;</tspan></text>
<g
             id="g72"><path
               d="m 188.69,29.77 0,27.09"
               style="fill:none;stroke:#000000;stroke-width:0.398;stroke-linecap:butt;stroke-linejoin:miter;stroke-miterlimit:10;stroke-opacity:1;stroke-dasharray:none"
               id="path74"
               inkscape:connector-curvature="0" /></g><g
             id="g76"><path
               d="m -230.97,2.67 0,27.1"
               style="fill:none;stroke:#000000;stroke-width:0.398;stroke-linecap:butt;stroke-linejoin:miter;stroke-miterlimit:10;stroke-opacity:1;stroke-dasharray:none"
               id="path78"
               inkscape:connector-curvature="0" /></g><text
             transform="matrix(1,0,0,-1,-224.8,20.28)"
             id="text80"><tspan
               style="font-size:10.9090004px;font-variant:normal;font-weight:normal;writing-mode:lr-tb;fill:#000000;fill-opacity:1;fill-rule:nonzero;stroke:none;font-family:FreeSans;-inkscape-font-specification:FreeSans"
               x="0 6.0654039 38.803314 46.537792 52.363201 54.697727 57.032253 62.846748 68.366699 74.072113 80.170242 86.028374 89.082893 95.006477 98.061005 100.4828 105.89366 114.35905 119.879 125.70441 131.70436 137.56248 143.48608 146.5406 155.00598 160.38412 166.19861 169.25313 177.27126 180.32578 186.16208 192.42384 195.47838 201.32559 209.79099 212.8455 218.76909 227.6272 230.049 232.38351 240.2489 243.88161 249.97974 255.80515 258.85965 267.35776 276.21588 282.04129 285.66309 291.7612 297.60843 303.43384 305.76837 311.59378 317.59372 320.0155 325.53546 331.45905 336.44446 342.5426 348.46619 352.08798 358.01157 364.10968 366.53149 372.53143 381.38956 389.41858 395.34216 401.20029"
               y="0"
               sodipodi:role="line"
               id="tspan82">2.Collectputativecognatesetsforthefamily(bothmorphologicalparadigmsand</tspan><tspan
               style="font-size:10.9090004px;font-variant:normal;font-weight:normal;writing-mode:lr-tb;fill:#000000;fill-opacity:1;fill-rule:nonzero;stroke:none;font-family:FreeSans;-inkscape-font-specification:FreeSans"
               x="38.810001 41.144527 46.959023 52.151707 54.573505 60.09346 66.017044 71.067909 73.489708 76.544228 82.358727 91.216835 96.594971 100.22767"
               y="13.55"
               sodipodi:role="line"
               id="tspan84">lexicalitems).</tspan></text>
<g
             id="g86"><path
               d="m 188.69,2.67 0,27.1"
               style="fill:none;stroke:#000000;stroke-width:0.398;stroke-linecap:butt;stroke-linejoin:miter;stroke-miterlimit:10;stroke-opacity:1;stroke-dasharray:none"
               id="path88"
               inkscape:connector-curvature="0" /></g><g
             id="g90"><path
               d="m -230.97,-24.43 0,27.1"
               style="fill:none;stroke:#000000;stroke-width:0.398;stroke-linecap:butt;stroke-linejoin:miter;stroke-miterlimit:10;stroke-opacity:1;stroke-dasharray:none"
               id="path92"
               inkscape:connector-curvature="0" /></g><text
             transform="matrix(1,0,0,-1,-224.8,-6.82)"
             id="text94"><tspan
               style="font-size:10.9090004px;font-variant:normal;font-weight:normal;writing-mode:lr-tb;fill:#000000;fill-opacity:1;fill-rule:nonzero;stroke:none;font-family:FreeSans;-inkscape-font-specification:FreeSans"
               x="0 6.0654039 38.803314 49.025047 54.850452 58.47224 66.970352 72.795753 78.653893 84.610207 87.664726 93.511948 102.21733 107.59547 113.42088 119.27901 125.13714 134.12616 139.6461 145.47151 149.09331 152.71509 158.52959 163.90773 170.00586 175.83127 181.68939 187.78752 193.60202 199.46016 204.9801 210.7946 219.07454 222.12906 225.75084 231.57625 243.32524 246.37976 252.22699 260.94327 266.46323 272.28864 278.2886 284.14673 290.07031 293.12482 301.8302 307.20834 313.02286 316.07736 321.45551 327.38998 333.48813 339.34625 342.40079 345.45529 347.87711 353.73523 362.62607 365.35333 367.77512 371.39691 375.01871 380.83319 386.83313 392.69128 395.02579 400.94937 404.57117"
               y="0"
               sodipodi:role="line"
               id="tspan96">3.Workoutthesoundcorrespondencesfromthecognatesets,putting‘irregular’</tspan><tspan
               style="font-size:10.9090004px;font-variant:normal;font-weight:normal;writing-mode:lr-tb;fill:#000000;fill-opacity:1;fill-rule:nonzero;stroke:none;font-family:FreeSans;-inkscape-font-specification:FreeSans"
               x="38.810001 44.329952 50.155361 56.155312 62.013443 67.937027 70.991547 79.522385 84.900528 90.715019 93.769539 101.87493 107.70033 116.28572 122.11112 127.96925 136.511 141.88914 144.31094 150.40907 156.22357"
               y="13.55"
               sodipodi:role="line"
               id="tspan98">cognatesetsononeside;</tspan></text>
<g
             id="g100"><path
               d="m 188.69,-24.43 0,27.1"
               style="fill:none;stroke:#000000;stroke-width:0.398;stroke-linecap:butt;stroke-linejoin:miter;stroke-miterlimit:10;stroke-opacity:1;stroke-dasharray:none"
               id="path102"
               inkscape:connector-curvature="0" /></g><g
             id="g104"><path
               d="m -230.97,-37.98 0,13.55"
               style="fill:none;stroke:#000000;stroke-width:0.398;stroke-linecap:butt;stroke-linejoin:miter;stroke-miterlimit:10;stroke-opacity:1;stroke-dasharray:none"
               id="path106"
               inkscape:connector-curvature="0" /></g><text
             transform="matrix(1,0,0,-1,-224.8,-33.92)"
             id="text108"><tspan
               style="font-size:10.9090004px;font-variant:normal;font-weight:normal;writing-mode:lr-tb;fill:#000000;fill-opacity:1;fill-rule:nonzero;stroke:none;font-family:FreeSans;-inkscape-font-specification:FreeSans"
               x="0 6.0654039 38.803314 46.537792 52.352291 57.872246 63.697651 69.555786 74.933922 77.988441 81.610229 87.468361 92.988319 98.770088 101.82461 107.67183 116.21358 122.31171 125.93349 131.7589 134.81342 140.63882 142.97336 148.89694 154.75508 160.75502 166.61316 172.53674 178.5367 187.07845 192.90385 198.68562 201.74014 207.58736 216.1291 219.18362 225.10721 233.96532 236.38712 238.72165 246.66341 252.58699 260.69238 263.74689 269.5723 271.90683 274.24136 280.06674 287.94305 293.3212"
               y="0"
               sodipodi:role="line"
               id="tspan110">4.Reconstructtheprotolanguageofthefamilyasfollows:</tspan></text>
<g
             id="g112"><path
               d="m 188.69,-37.98 0,13.55"
               style="fill:none;stroke:#000000;stroke-width:0.398;stroke-linecap:butt;stroke-linejoin:miter;stroke-miterlimit:10;stroke-opacity:1;stroke-dasharray:none"
               id="path114"
               inkscape:connector-curvature="0" /></g><g
             id="g116"><path
               d="m -230.97,-65.08 0,27.1"
               style="fill:none;stroke:#000000;stroke-width:0.398;stroke-linecap:butt;stroke-linejoin:miter;stroke-miterlimit:10;stroke-opacity:1;stroke-dasharray:none"
               id="path118"
               inkscape:connector-curvature="0" /></g><text
             transform="matrix(1,0,0,-1,-204.05,-47.46)"
             id="text120"><tspan
               style="font-size:10.9090004px;font-variant:normal;font-weight:normal;writing-mode:lr-tb;fill:#000000;fill-opacity:1;fill-rule:nonzero;stroke:none;font-family:FreeSans;-inkscape-font-specification:FreeSans"
               x="0 18.054396 25.788876 31.603373 37.123325 42.948734 48.806866 54.185001 57.239525 60.861313 66.719444 72.239395 78.610252 81.664772 87.512001 96.64283 102.74096 106.36275 112.18816 115.24268 121.06808 127.16621 133.01344 138.83884 144.69698 150.52238 152.8569 158.68231 164.68227 173.22401 176.27853 179.90031 185.72572 197.90016 200.95468 206.80191 215.94365 221.32179 227.1472 233.00533 238.86346 248.27792 253.79788 259.62329 263.24509 266.86685 272.68137 278.05951 284.15762 289.98303 295.84116 301.9393 307.75378 313.61194 319.1319 324.94638 333.65176 341.52808 347.35345 350.97525 356.58249 362.39697 371.81143 377.63684 383.495"
               y="0"
               sodipodi:role="line"
               id="tspan122">aReconstructtheprotophonologyfromthesoundcorrespondencesworkedout</tspan><tspan
               style="font-size:10.9090004px;font-variant:normal;font-weight:normal;writing-mode:lr-tb;fill:#000000;fill-opacity:1;fill-rule:nonzero;stroke:none;font-family:FreeSans;-inkscape-font-specification:FreeSans"
               x="18.059999 20.481798 29.056273 32.688969 38.754372 42.38707 48.147022 54.005154 59.383293 61.805092 67.663223 76.390427 81.910378 87.735786 93.593918 99.004784 104.81927 110.67741 113.73193 116.15372 121.97913 127.83727 133.76085 138.82263 146.69893 149.12073 154.49886 160.597 166.42239 178.00775 181.62955 187.44405 193.444 199.36758 202.98936 209.08749 211.50929 217.36743 226.09464 229.14915 234.99637 243.53812 249.63625 252.05804 255.67984 261.49432 267.01428 270.06882 272.4906 278.31601 284.17413 292.27954 298.10495 303.88672 309.26483 315.09024 320.94839 326.80652 335.6319 341.15186 346.99908 352.92267 358.78079 364.78076 370.59525 375.97339"
               y="13.55"
               sodipodi:role="line"
               id="tspan124">in(3),usingconventionalwisdomregardingthedirectionsofsoundchanges.</tspan></text>
<g
             id="g126"><path
               d="m 188.69,-65.08 0,27.1"
               style="fill:none;stroke:#000000;stroke-width:0.398;stroke-linecap:butt;stroke-linejoin:miter;stroke-miterlimit:10;stroke-opacity:1;stroke-dasharray:none"
               id="path128"
               inkscape:connector-curvature="0" /></g><g
             id="g130"><path
               d="m -230.97,-105.73 0,40.65"
               style="fill:none;stroke:#000000;stroke-width:0.398;stroke-linecap:butt;stroke-linejoin:miter;stroke-miterlimit:10;stroke-opacity:1;stroke-dasharray:none"
               id="path132"
               inkscape:connector-curvature="0" /></g><text
             transform="matrix(1,0,0,-1,-204.05,-74.56)"
             id="text134"><tspan
               style="font-size:10.9090004px;font-variant:normal;font-weight:normal;writing-mode:lr-tb;fill:#000000;fill-opacity:1;fill-rule:nonzero;stroke:none;font-family:FreeSans;-inkscape-font-specification:FreeSans"
               x="0 18.054396 25.788876 31.603373 37.123325 42.948734 48.806866 54.185001 57.239525 60.861313 66.719444 72.239395 77.137543 83.235672 86.85746 92.682861 95.737381 101.56279 110.4209 116.24631 119.8681 125.96622 131.81345 137.62794 146.48605 152.30055 159.52231 163.155 169.25313 175.07854 178.13306 185.82391 194.68201 200.50742 204.12921 210.22734 216.07457 221.89996 224.2345 230.05991 236.05984 238.48164 244.0016 249.92519 254.10333 260.20148 266.12506 269.74686 275.67044 281.76855 284.19037 290.19031 299.04843 306.2811 312.20468 318.06281 326.00455 328.33908 334.15356 339.34625 341.76807 347.28802 353.21161 357.38974 359.81155 362.86606 368.68057 377.53867 382.91681"
               y="0"
               sodipodi:role="line"
               id="tspan136">bReconstructprotomorphemes(bothmorphologicalparadigmsandlexicalitems)</tspan><tspan
               style="font-size:10.9090004px;font-variant:normal;font-weight:normal;writing-mode:lr-tb;fill:#000000;fill-opacity:1;fill-rule:nonzero;stroke:none;font-family:FreeSans;-inkscape-font-specification:FreeSans"
               x="18.059999 21.114519 24.736307 30.561714 42.343433 45.397953 51.245178 59.994198 65.514153 71.339554 77.339508 83.197639 89.121223 92.175743 100.91386 106.29199 112.10649 115.16101 123.47366 128.99362 134.81903 137.15355 139.48808 145.30258 150.82253 153.87704 159.69154 168.7242 171.146 179.93864 183.57135 189.63675 193.26945 199.22577 205.08389 210.46204 212.88383 218.74196 227.67644 230.73096 236.57819 245.32719 251.42532 255.04712 260.87253 263.92703 269.75244 275.85059 281.69781 287.52322 293.38135 299.20676 301.54126 307.36667 313.36664 321.51566 325.13745 330.95193 336.47189 342.2973 348.15543 353.53357 356.58807 360.20987 366.06802 371.58795 374.64249 380.45697"
               y="13.55"
               sodipodi:role="line"
               id="tspan138">fromthecognatesetscollectedin(2),usingtheprotophonologyreconstructed</tspan><tspan
               style="font-size:10.9090004px;font-variant:normal;font-weight:normal;writing-mode:lr-tb;fill:#000000;fill-opacity:1;fill-rule:nonzero;stroke:none;font-family:FreeSans;-inkscape-font-specification:FreeSans"
               x="18.059999 20.481798 29.056273 32.688969 38.754372 44.677959 48.310658"
               y="27.1"
               sodipodi:role="line"
               id="tspan140">in(4a).</tspan></text>
<g
             id="g142"><path
               d="m 188.69,-105.73 0,40.65"
               style="fill:none;stroke:#000000;stroke-width:0.398;stroke-linecap:butt;stroke-linejoin:miter;stroke-miterlimit:10;stroke-opacity:1;stroke-dasharray:none"
               id="path144"
               inkscape:connector-curvature="0" /></g><g
             id="g146"><path
               d="m -230.97,-146.37 0,40.64"
               style="fill:none;stroke:#000000;stroke-width:0.398;stroke-linecap:butt;stroke-linejoin:miter;stroke-miterlimit:10;stroke-opacity:1;stroke-dasharray:none"
               id="path148"
               inkscape:connector-curvature="0" /></g><text
             transform="matrix(1,0,0,-1,-224.8,-115.21)"
             id="text150"><tspan
               style="font-size:10.9090004px;font-variant:normal;font-weight:normal;writing-mode:lr-tb;fill:#000000;fill-opacity:1;fill-rule:nonzero;stroke:none;font-family:FreeSans;-inkscape-font-specification:FreeSans"
               x="0 6.0654039 38.803314 45.70871 51.086845 54.141369 60.064953 66.163086 68.497612 70.919411 76.297546 85.01384 87.435638 93.29377 99.151901 104.97731 110.38817 116.31176 119.36628 121.78808 127.61348 133.47162 141.71883 145.35152 151.44965 157.29688 163.12228 168.98041 174.80582 177.14034 182.96574 188.9657 191.3875 196.90746 202.83104 205.16556 211.06734 213.40186 219.21635 224.40904 226.83084 232.35078 238.27438 240.6089 246.52158 251.89972 257.7142 266.57233 272.49591 278.35403 281.40857 283.83035 289.35031 295.25208 304.1102 309.93561 313.55737 319.65552 325.50275 331.32816 333.66269 339.48807 345.48804 347.90982 353.42978 359.35336 361.6879 367.58966 376.44778 382.27316 385.89496 391.9931 397.84033 403.66574"
               y="0"
               sodipodi:role="line"
               id="tspan152">5.Establishinnovations(phonological,lexical,semantic,morphological,morpho-</tspan><tspan
               style="font-size:10.9090004px;font-variant:normal;font-weight:normal;writing-mode:lr-tb;fill:#000000;fill-opacity:1;fill-rule:nonzero;stroke:none;font-family:FreeSans;-inkscape-font-specification:FreeSans"
               x="38.810001 44.188137 49.402637 55.260773 58.315292 64.238876 69.758835 72.813354 75.235153 80.755104 86.875053 92.253189 98.100418 104.024 107.64579 113.46029 122.04567 128.1438 135.84555 141.8455 145.4673 151.29269 157.15083 163.24896 171.12526 176.95067 182.49243 184.82697 190.75055 196.60869 202.60864 208.46677 214.39035 220.3903 226.2048 234.0811 241.9574 244.3792 247.43372 253.28094 255.70274 264.04813 267.10263 272.94986 281.26251 284.31705 290.24063 299.09875 301.52054 303.85507 311.55682 315.17862 320.9931 323.32764 329.25122 332.30573 334.72754 340.1384 348.45105 351.50558 359.81824 362.87274 368.71997 377.03262 380.65442 386.46893 391.98886 397.81427 403.67242"
               y="13.55"
               sodipodi:role="line"
               id="tspan154">syntactic)sharedbygroupsoflanguageswithinthefamilyrelativetotherecon-</tspan><tspan
               style="font-size:10.9090004px;font-variant:normal;font-weight:normal;writing-mode:lr-tb;fill:#000000;fill-opacity:1;fill-rule:nonzero;stroke:none;font-family:FreeSans;-inkscape-font-specification:FreeSans"
               x="38.810001 44.188137 47.242657 50.864445 56.722576 62.242531 65.29705 71.111549 79.926018 86.024155 89.645943 95.471344 98.525864 104.35127 106.6858 112.60938 118.46752 124.46747 130.32561 136.24919 142.24915 148.06363"
               y="27.1"
               sodipodi:role="line"
               id="tspan156">structedprotolanguage.</tspan></text>
<g
             id="g158"><path
               d="m 188.69,-146.37 0,40.64"
               style="fill:none;stroke:#000000;stroke-width:0.398;stroke-linecap:butt;stroke-linejoin:miter;stroke-miterlimit:10;stroke-opacity:1;stroke-dasharray:none"
               id="path160"
               inkscape:connector-curvature="0" /></g><g
             id="g162"><path
               d="m -230.97,-173.47 0,27.1"
               style="fill:none;stroke:#000000;stroke-width:0.398;stroke-linecap:butt;stroke-linejoin:miter;stroke-miterlimit:10;stroke-opacity:1;stroke-dasharray:none"
               id="path164"
               inkscape:connector-curvature="0" /></g><text
             transform="matrix(1,0,0,-1,-224.8,-155.86)"
             id="text166"><tspan
               style="font-size:10.9090004px;font-variant:normal;font-weight:normal;writing-mode:lr-tb;fill:#000000;fill-opacity:1;fill-rule:nonzero;stroke:none;font-family:FreeSans;-inkscape-font-specification:FreeSans"
               x="0 6.0654039 38.803314 45.6978 51.621387 57.719521 63.577652 65.912178 71.835762 74.890282 83.46476 86.519279 92.366501 100.94098 103.36278 109.22091 115.07904 120.90445 126.31531 132.23889 135.29341 137.71521 143.54062 149.39876 157.53687 163.35136 168.72951 171.78403 177.70761 183.80574 186.14027 188.56206 193.9402 199.78743 205.60193 214.46004 216.88184 225.48903 229.12173 235.18713 241.5798 244.63432 253.21971 259.14328 262.76508 266.38687 268.80865 274.21954 282.79401 288.71759 294.5321 300.45569 309.07379 311.49557 317.35373 320.40823 326.22275 329.84451 335.70267 341.62625 346.72073 352.24069 354.57523 360.49881 365.87695 371.2551 373.67688 378.69504 384.21497 390.13858 393.19308 395.6149 401.44028"
               y="0"
               sodipodi:role="line"
               id="tspan168">6.Tabulatetheinnovationsestablishedin(5)toarriveataninternalclassiﬁcation</tspan><tspan
               style="font-size:10.9090004px;font-variant:normal;font-weight:normal;writing-mode:lr-tb;fill:#000000;fill-opacity:1;fill-rule:nonzero;stroke:none;font-family:FreeSans;-inkscape-font-specification:FreeSans"
               x="38.810001 44.635406 50.406265 53.460789 59.30801 67.849754 70.904282 76.827866 85.685974 88.107773 90.442299 95.656799 101.41675 110.06759 112.79484 115.84936 121.77294 130.63106 133.05286 135.38737 143.32913 146.38365 150.00543 155.81993 161.63443 164.36168"
               y="13.55"
               sodipodi:role="line"
               id="tspan170">ofthefamily,a‘familytree’.</tspan></text>
<g
             id="g172"><path
               d="m 188.69,-173.47 0,27.1"
               style="fill:none;stroke:#000000;stroke-width:0.398;stroke-linecap:butt;stroke-linejoin:miter;stroke-miterlimit:10;stroke-opacity:1;stroke-dasharray:none"
               id="path174"
               inkscape:connector-curvature="0" /></g><g
             id="g176"><path
               d="m -230.97,-200.57 0,27.1"
               style="fill:none;stroke:#000000;stroke-width:0.398;stroke-linecap:butt;stroke-linejoin:miter;stroke-miterlimit:10;stroke-opacity:1;stroke-dasharray:none"
               id="path178"
               inkscape:connector-curvature="0" /></g><text
             transform="matrix(1,0,0,-1,-224.8,-182.96)"
             id="text180"><tspan
               style="font-size:10.9090004px;font-variant:normal;font-weight:normal;writing-mode:lr-tb;fill:#000000;fill-opacity:1;fill-rule:nonzero;stroke:none;font-family:FreeSans;-inkscape-font-specification:FreeSans"
               x="0 6.0654039 38.803314 46.537792 52.363201 58.221333 63.599468 66.653992 70.27578 76.133911 81.653862 86.704735 92.628319 100.49371 106.3082 109.36272 114.57722 123.43533 129.26074 131.59526 137.42067 143.42062 145.84242 151.36238 157.28596 161.62775 167.72588 170.14767 175.66763 178.72215 181.14395 186.96935 192.82748 198.75107 202.37286 207.58736 212.61641 215.67093 219.29272 225.21631 230.73625 233.15805 239.01619 247.02339 253.12152 258.94693 262.56873 266.19052 272.01593 279.89221 282.31403 288.17215 294.17209 299.55023 304.59018 309.96832 315.78284 324.64093 330.56451 336.42264 339.47717 341.89896 349.42618 354.94614 360.79337 366.71695 372.57507 378.57501 384.38953 389.41858 395.34216 401.20029"
               y="0"
               sodipodi:role="line"
               id="tspan182">7.Constructanetymologicaldictionary,tracingborrowings,semanticchange,and</tspan><tspan
               style="font-size:10.9090004px;font-variant:normal;font-weight:normal;writing-mode:lr-tb;fill:#000000;fill-opacity:1;fill-rule:nonzero;stroke:none;font-family:FreeSans;-inkscape-font-specification:FreeSans"
               x="38.810001 44.188137 52.729885 55.784405 61.60981 65.231598 68.286118 74.133339 79.893295 82.947815 88.773216 95.122261 98.176781 104.024 112.56575 114.90028 120.71478 125.90746 128.32925 133.84921 139.67462 148.25999 154.0854 159.86717 162.92169 168.76892 177.31067 180.36519 186.28877 195.14688 197.56868 199.9032 207.84496 211.47765 217.30305 223.6521 229.47751 235.25928 241.08467 246.94281 255.48456 257.81909 263.74268 269.6008 275.60077 281.45889 287.38248 293.38242 301.92416 307.74957 313.53134 316.58588 322.43311 330.97482 334.02936 339.95294 348.81107 351.23285 353.56738 358.78189 362.41458"
               y="13.55"
               sodipodi:role="line"
               id="tspan184">soforth,forthelexiconofthefamily(orofonelanguageofthefamily).</tspan></text>
<g
             id="g186"><path
               d="m 188.69,-200.57 0,27.1"
               style="fill:none;stroke:#000000;stroke-width:0.398;stroke-linecap:butt;stroke-linejoin:miter;stroke-miterlimit:10;stroke-opacity:1;stroke-dasharray:none"
               id="path188"
               inkscape:connector-curvature="0" /></g><g
             id="g190"><path
               d="m -231.17,-200.77 420.06,0"
               style="fill:none;stroke:#000000;stroke-width:0.398;stroke-linecap:butt;stroke-linejoin:miter;stroke-miterlimit:10;stroke-opacity:1;stroke-dasharray:none"
               id="path192"
               inkscape:connector-curvature="0" /></g></g></g></g></g></svg>