<?xml version="1.0" encoding="utf-8" standalone="no"?>
<!DOCTYPE svg PUBLIC "-//W3C//DTD SVG 1.1//EN"
  "http://www.w3.org/Graphics/SVG/1.1/DTD/svg11.dtd">
<!-- Created with matplotlib (http://matplotlib.org/) -->
<svg height="720pt" version="1.1" viewBox="0 0 1440 720" width="1440pt" xmlns="http://www.w3.org/2000/svg" xmlns:xlink="http://www.w3.org/1999/xlink">
 <defs>
  <style type="text/css">
*{stroke-linecap:butt;stroke-linejoin:round;}
  </style>
 </defs>
 <g id="figure_1">
  <g id="patch_1">
   <path d="
M0 720
L1440 720
L1440 0
L0 0
z
" style="fill:#ffffff;"/>
  </g>
  <g id="axes_1">
   <g id="patch_2">
    <path d="
M72 684
L1368 684
L1368 36
L72 36
z
" style="fill:#ffffff;"/>
   </g>
   <g id="line2d_1">
    <path clip-path="url(#pdba216da3c)" d="
M327.249 276.576
L270.742 251.257" style="fill:none;stroke:#000000;stroke-linecap:square;stroke-width:5;"/>
   </g>
   <g id="line2d_2">
    <path clip-path="url(#pdba216da3c)" d="
M327.249 276.576
L301.677 220.183" style="fill:none;stroke:#000000;stroke-linecap:square;stroke-width:5;"/>
   </g>
   <g id="line2d_3">
    <path clip-path="url(#pdba216da3c)" d="
M696.047 581.271
L732.056 550.895" style="fill:none;stroke:#000000;stroke-linecap:square;stroke-width:5;"/>
   </g>
   <g id="line2d_4">
    <path clip-path="url(#pdba216da3c)" d="
M696.047 581.271
L387.071 224.526" style="fill:none;stroke:#000000;stroke-linecap:square;stroke-width:5;"/>
   </g>
   <g id="line2d_5">
    <path clip-path="url(#pdba216da3c)" d="
M334.462 444.983
L215.14 438.995" style="fill:none;stroke:#000000;stroke-linecap:square;stroke-width:5;"/>
   </g>
   <g id="line2d_6">
    <path clip-path="url(#pdba216da3c)" d="
M334.462 444.983
L314.95 377.148" style="fill:none;stroke:#000000;stroke-linecap:square;stroke-width:5;"/>
   </g>
   <g id="line2d_7">
    <path clip-path="url(#pdba216da3c)" d="
M719.361 654.492
L409.266 514.121" style="fill:none;stroke:#000000;stroke-linecap:square;stroke-width:5;"/>
   </g>
   <g id="line2d_8">
    <path clip-path="url(#pdba216da3c)" d="
M719.361 654.492
L742.613 653.513" style="fill:none;stroke:#000000;stroke-linecap:square;stroke-width:5;"/>
   </g>
   <g id="line2d_9">
    <path clip-path="url(#pdba216da3c)" d="
M406.714 427.738
L327.249 276.576" style="fill:none;stroke:#000000;stroke-linecap:square;stroke-width:5;"/>
   </g>
   <g id="line2d_10">
    <path clip-path="url(#pdba216da3c)" d="
M406.714 427.738
L334.462 444.983" style="fill:none;stroke:#000000;stroke-linecap:square;stroke-width:5;"/>
   </g>
   <g id="line2d_11">
    <path clip-path="url(#pdba216da3c)" d="
M644.658 228.814
L654.341 58.6061" style="fill:none;stroke:#000000;stroke-linecap:square;stroke-width:5;"/>
   </g>
   <g id="line2d_12">
    <path clip-path="url(#pdba216da3c)" d="
M644.658 228.814
L605.059 182.598" style="fill:none;stroke:#000000;stroke-linecap:square;stroke-width:5;"/>
   </g>
   <g id="line2d_13">
    <path clip-path="url(#pdba216da3c)" d="
M409.266 514.121
L406.714 427.738" style="fill:none;stroke:#000000;stroke-linecap:square;stroke-width:5;"/>
   </g>
   <g id="line2d_14">
    <path clip-path="url(#pdba216da3c)" d="
M409.266 514.121
L238.862 537.499" style="fill:none;stroke:#000000;stroke-linecap:square;stroke-width:5;"/>
   </g>
   <g id="line2d_15">
    <path clip-path="url(#pdba216da3c)" d="
M679.461 275.113
L644.658 228.814" style="fill:none;stroke:#000000;stroke-linecap:square;stroke-width:5;"/>
   </g>
   <g id="line2d_16">
    <path clip-path="url(#pdba216da3c)" d="
M679.461 275.113
L698.076 55.4692" style="fill:none;stroke:#000000;stroke-linecap:square;stroke-width:5;"/>
   </g>
   <g id="line2d_17">
    <path clip-path="url(#pdba216da3c)" d="
M1239.92 475.699
L1286.66 435.082" style="fill:none;stroke:#000000;stroke-linecap:square;stroke-width:5;"/>
   </g>
   <g id="line2d_18">
    <path clip-path="url(#pdba216da3c)" d="
M1239.92 475.699
L1301.84 476.218" style="fill:none;stroke:#000000;stroke-linecap:square;stroke-width:5;"/>
   </g>
   <g id="line2d_19">
    <path clip-path="url(#pdba216da3c)" d="
M876.567 135.955
L913.958 86.598" style="fill:none;stroke:#000000;stroke-linecap:square;stroke-width:5;"/>
   </g>
   <g id="line2d_20">
    <path clip-path="url(#pdba216da3c)" d="
M876.567 135.955
L871.897 74.2105" style="fill:none;stroke:#000000;stroke-linecap:square;stroke-width:5;"/>
   </g>
   <g id="line2d_21">
    <path clip-path="url(#pdba216da3c)" d="
M986.29 181.547
L994.888 120.226" style="fill:none;stroke:#000000;stroke-linecap:square;stroke-width:5;"/>
   </g>
   <g id="line2d_22">
    <path clip-path="url(#pdba216da3c)" d="
M986.29 181.547
L1033.34 141.295" style="fill:none;stroke:#000000;stroke-linecap:square;stroke-width:5;"/>
   </g>
   <g id="line2d_23">
    <path clip-path="url(#pdba216da3c)" d="
M759.648 114.799
L785.659 58.6061" style="fill:none;stroke:#000000;stroke-linecap:square;stroke-width:5;"/>
   </g>
   <g id="line2d_24">
    <path clip-path="url(#pdba216da3c)" d="
M759.648 114.799
L741.924 55.4692" style="fill:none;stroke:#000000;stroke-linecap:square;stroke-width:5;"/>
   </g>
   <g id="line2d_25">
    <path clip-path="url(#pdba216da3c)" d="
M811.261 468.532
L1070.19 165.061" style="fill:none;stroke:#000000;stroke-linecap:square;stroke-width:5;"/>
   </g>
   <g id="line2d_26">
    <path clip-path="url(#pdba216da3c)" d="
M811.261 468.532
L784.299 416.981" style="fill:none;stroke:#000000;stroke-linecap:square;stroke-width:5;"/>
   </g>
   <g id="line2d_27">
    <path clip-path="url(#pdba216da3c)" d="
M737.762 604.945
L696.047 581.271" style="fill:none;stroke:#000000;stroke-linecap:square;stroke-width:5;"/>
   </g>
   <g id="line2d_28">
    <path clip-path="url(#pdba216da3c)" d="
M737.762 604.945
L1169.26 251.257" style="fill:none;stroke:#000000;stroke-linecap:square;stroke-width:5;"/>
   </g>
   <g id="line2d_29">
    <path clip-path="url(#pdba216da3c)" d="
M178.019 551.865
L125.963 518.334" style="fill:none;stroke:#000000;stroke-linecap:square;stroke-width:5;"/>
   </g>
   <g id="line2d_30">
    <path clip-path="url(#pdba216da3c)" d="
M178.019 551.865
L116.808 561.215" style="fill:none;stroke:#000000;stroke-linecap:square;stroke-width:5;"/>
   </g>
   <g id="line2d_31">
    <path clip-path="url(#pdba216da3c)" d="
M714.572 321.057
L759.648 114.799" style="fill:none;stroke:#000000;stroke-linecap:square;stroke-width:5;"/>
   </g>
   <g id="line2d_32">
    <path clip-path="url(#pdba216da3c)" d="
M714.572 321.057
L679.461 275.113" style="fill:none;stroke:#000000;stroke-linecap:square;stroke-width:5;"/>
   </g>
   <g id="line2d_33">
    <path clip-path="url(#pdba216da3c)" d="
M815.965 512.816
L1105.24 191.402" style="fill:none;stroke:#000000;stroke-linecap:square;stroke-width:5;"/>
   </g>
   <g id="line2d_34">
    <path clip-path="url(#pdba216da3c)" d="
M815.965 512.816
L811.261 468.532" style="fill:none;stroke:#000000;stroke-linecap:square;stroke-width:5;"/>
   </g>
   <g id="line2d_35">
    <path clip-path="url(#pdba216da3c)" d="
M314.95 377.148
L242.109 284.465" style="fill:none;stroke:#000000;stroke-linecap:square;stroke-width:5;"/>
   </g>
   <g id="line2d_36">
    <path clip-path="url(#pdba216da3c)" d="
M314.95 377.148
L252.93 369.282" style="fill:none;stroke:#000000;stroke-linecap:square;stroke-width:5;"/>
   </g>
   <g id="line2d_37">
    <path clip-path="url(#pdba216da3c)" d="
M453.71 181.547
L445.112 120.226" style="fill:none;stroke:#000000;stroke-linecap:square;stroke-width:5;"/>
   </g>
   <g id="line2d_38">
    <path clip-path="url(#pdba216da3c)" d="
M453.71 181.547
L406.658 141.295" style="fill:none;stroke:#000000;stroke-linecap:square;stroke-width:5;"/>
   </g>
   <g id="line2d_39">
    <path clip-path="url(#pdba216da3c)" d="
M810.082 549.922
L1138.32 220.183" style="fill:none;stroke:#000000;stroke-linecap:square;stroke-width:5;"/>
   </g>
   <g id="line2d_40">
    <path clip-path="url(#pdba216da3c)" d="
M810.082 549.922
L815.965 512.816" style="fill:none;stroke:#000000;stroke-linecap:square;stroke-width:5;"/>
   </g>
   <g id="line2d_41">
    <path clip-path="url(#pdba216da3c)" d="
M1105.54 444.983
L1135.19 391.832" style="fill:none;stroke:#000000;stroke-linecap:square;stroke-width:5;"/>
   </g>
   <g id="line2d_42">
    <path clip-path="url(#pdba216da3c)" d="
M1105.54 444.983
L1268.57 395.138" style="fill:none;stroke:#000000;stroke-linecap:square;stroke-width:5;"/>
   </g>
   <g id="line2d_43">
    <path clip-path="url(#pdba216da3c)" d="
M748.524 634.002
L1077.21 500.03" style="fill:none;stroke:#000000;stroke-linecap:square;stroke-width:5;"/>
   </g>
   <g id="line2d_44">
    <path clip-path="url(#pdba216da3c)" d="
M748.524 634.002
L737.762 604.945" style="fill:none;stroke:#000000;stroke-linecap:square;stroke-width:5;"/>
   </g>
   <g id="line2d_45">
    <path clip-path="url(#pdba216da3c)" d="
M238.862 537.499
L178.019 551.865" style="fill:none;stroke:#000000;stroke-linecap:square;stroke-width:5;"/>
   </g>
   <g id="line2d_46">
    <path clip-path="url(#pdba216da3c)" d="
M238.862 537.499
L138.162 476.218" style="fill:none;stroke:#000000;stroke-linecap:square;stroke-width:5;"/>
   </g>
   <g id="line2d_47">
    <path clip-path="url(#pdba216da3c)" d="
M387.071 224.526
L369.81 165.061" style="fill:none;stroke:#000000;stroke-linecap:square;stroke-width:5;"/>
   </g>
   <g id="line2d_48">
    <path clip-path="url(#pdba216da3c)" d="
M387.071 224.526
L334.756 191.402" style="fill:none;stroke:#000000;stroke-linecap:square;stroke-width:5;"/>
   </g>
   <g id="line2d_49">
    <path clip-path="url(#pdba216da3c)" d="
M784.299 416.981
L901.799 261.205" style="fill:none;stroke:#000000;stroke-linecap:square;stroke-width:5;"/>
   </g>
   <g id="line2d_50">
    <path clip-path="url(#pdba216da3c)" d="
M784.299 416.981
L744.577 367.316" style="fill:none;stroke:#000000;stroke-linecap:square;stroke-width:5;"/>
   </g>
   <g id="line2d_51">
    <path clip-path="url(#pdba216da3c)" d="
M504.322 218.245
L453.71 181.547" style="fill:none;stroke:#000000;stroke-linecap:square;stroke-width:5;"/>
   </g>
   <g id="line2d_52">
    <path clip-path="url(#pdba216da3c)" d="
M504.322 218.245
L484.975 101.963" style="fill:none;stroke:#000000;stroke-linecap:square;stroke-width:5;"/>
   </g>
   <g id="line2d_53">
    <path clip-path="url(#pdba216da3c)" d="
M252.93 369.282
L215.925 319.636" style="fill:none;stroke:#000000;stroke-linecap:square;stroke-width:5;"/>
   </g>
   <g id="line2d_54">
    <path clip-path="url(#pdba216da3c)" d="
M252.93 369.282
L192.324 356.59" style="fill:none;stroke:#000000;stroke-linecap:square;stroke-width:5;"/>
   </g>
   <g id="line2d_55">
    <path clip-path="url(#pdba216da3c)" d="
M1077.21 500.03
L1239.92 475.699" style="fill:none;stroke:#000000;stroke-linecap:square;stroke-width:5;"/>
   </g>
   <g id="line2d_56">
    <path clip-path="url(#pdba216da3c)" d="
M1077.21 500.03
L1105.54 444.983" style="fill:none;stroke:#000000;stroke-linecap:square;stroke-width:5;"/>
   </g>
   <g id="line2d_57">
    <path clip-path="url(#pdba216da3c)" d="
M215.14 438.995
L171.428 395.138" style="fill:none;stroke:#000000;stroke-linecap:square;stroke-width:5;"/>
   </g>
   <g id="line2d_58">
    <path clip-path="url(#pdba216da3c)" d="
M215.14 438.995
L153.343 435.082" style="fill:none;stroke:#000000;stroke-linecap:square;stroke-width:5;"/>
   </g>
   <g id="line2d_59">
    <path clip-path="url(#pdba216da3c)" d="
M722.429 664.531
L1323.19 561.215" style="fill:none;stroke:#000000;stroke-linecap:square;stroke-width:5;"/>
   </g>
   <g id="line2d_60">
    <path clip-path="url(#pdba216da3c)" d="
M722.429 664.531
L719.361 654.492" style="fill:none;stroke:#000000;stroke-linecap:square;stroke-width:5;"/>
   </g>
   <g id="line2d_61">
    <path clip-path="url(#pdba216da3c)" d="
M605.059 182.598
L563.433 135.955" style="fill:none;stroke:#000000;stroke-linecap:square;stroke-width:5;"/>
   </g>
   <g id="line2d_62">
    <path clip-path="url(#pdba216da3c)" d="
M605.059 182.598
L610.943 64.8639" style="fill:none;stroke:#000000;stroke-linecap:square;stroke-width:5;"/>
   </g>
   <g id="line2d_63">
    <path clip-path="url(#pdba216da3c)" d="
M742.613 653.513
L1314.04 518.334" style="fill:none;stroke:#000000;stroke-linecap:square;stroke-width:5;"/>
   </g>
   <g id="line2d_64">
    <path clip-path="url(#pdba216da3c)" d="
M742.613 653.513
L748.524 634.002" style="fill:none;stroke:#000000;stroke-linecap:square;stroke-width:5;"/>
   </g>
   <g id="line2d_65">
    <path clip-path="url(#pdba216da3c)" d="
M1135.19 391.832
L1247.68 356.59" style="fill:none;stroke:#000000;stroke-linecap:square;stroke-width:5;"/>
   </g>
   <g id="line2d_66">
    <path clip-path="url(#pdba216da3c)" d="
M1135.19 391.832
L1164.53 336.631" style="fill:none;stroke:#000000;stroke-linecap:square;stroke-width:5;"/>
   </g>
   <g id="line2d_67">
    <path clip-path="url(#pdba216da3c)" d="
M732.056 550.895
L810.082 549.922" style="fill:none;stroke:#000000;stroke-linecap:square;stroke-width:5;"/>
   </g>
   <g id="line2d_68">
    <path clip-path="url(#pdba216da3c)" d="
M732.056 550.895
L504.322 218.245" style="fill:none;stroke:#000000;stroke-linecap:square;stroke-width:5;"/>
   </g>
   <g id="line2d_69">
    <path clip-path="url(#pdba216da3c)" d="
M1164.53 336.631
L1197.89 284.465" style="fill:none;stroke:#000000;stroke-linecap:square;stroke-width:5;"/>
   </g>
   <g id="line2d_70">
    <path clip-path="url(#pdba216da3c)" d="
M1164.53 336.631
L1224.08 319.636" style="fill:none;stroke:#000000;stroke-linecap:square;stroke-width:5;"/>
   </g>
   <g id="line2d_71">
    <path clip-path="url(#pdba216da3c)" d="
M563.433 135.955
L568.103 74.2105" style="fill:none;stroke:#000000;stroke-linecap:square;stroke-width:5;"/>
   </g>
   <g id="line2d_72">
    <path clip-path="url(#pdba216da3c)" d="
M563.433 135.955
L526.042 86.598" style="fill:none;stroke:#000000;stroke-linecap:square;stroke-width:5;"/>
   </g>
   <g id="line2d_73">
    <path clip-path="url(#pdba216da3c)" d="
M886.268 197.714
L876.567 135.955" style="fill:none;stroke:#000000;stroke-linecap:square;stroke-width:5;"/>
   </g>
   <g id="line2d_74">
    <path clip-path="url(#pdba216da3c)" d="
M886.268 197.714
L955.025 101.963" style="fill:none;stroke:#000000;stroke-linecap:square;stroke-width:5;"/>
   </g>
   <g id="line2d_75">
    <path clip-path="url(#pdba216da3c)" d="
M901.799 261.205
L886.268 197.714" style="fill:none;stroke:#000000;stroke-linecap:square;stroke-width:5;"/>
   </g>
   <g id="line2d_76">
    <path clip-path="url(#pdba216da3c)" d="
M901.799 261.205
L986.29 181.547" style="fill:none;stroke:#000000;stroke-linecap:square;stroke-width:5;"/>
   </g>
   <g id="line2d_77">
    <path clip-path="url(#pdba216da3c)" d="
M744.577 367.316
L714.572 321.057" style="fill:none;stroke:#000000;stroke-linecap:square;stroke-width:5;"/>
   </g>
   <g id="line2d_78">
    <path clip-path="url(#pdba216da3c)" d="
M744.577 367.316
L829.057 64.8639" style="fill:none;stroke:#000000;stroke-linecap:square;stroke-width:5;"/>
   </g>
   <g id="line2d_79">
    <defs>
     <path d="
M0 5
C1.32602 5 2.5979 4.47317 3.53553 3.53553
C4.47317 2.5979 5 1.32602 5 0
C5 -1.32602 4.47317 -2.5979 3.53553 -3.53553
C2.5979 -4.47317 1.32602 -5 0 -5
C-1.32602 -5 -2.5979 -4.47317 -3.53553 -3.53553
C-4.47317 -2.5979 -5 -1.32602 -5 0
C-5 1.32602 -4.47317 2.5979 -3.53553 3.53553
C-2.5979 4.47317 -1.32602 5 0 5
z
" id="m08c894af0b" style="stroke:#000000;stroke-width:5;"/>
    </defs>
    <g clip-path="url(#pdba216da3c)">
     <use style="stroke:#000000;stroke-width:5;" x="327.248864404" xlink:href="#m08c894af0b" y="276.576457014"/>
    </g>
   </g>
   <g id="line2d_80">
    <g clip-path="url(#pdba216da3c)">
     <use style="stroke:#000000;stroke-width:5;" x="696.046794147" xlink:href="#m08c894af0b" y="581.270537686"/>
    </g>
   </g>
   <g id="line2d_81">
    <g clip-path="url(#pdba216da3c)">
     <use style="stroke:#000000;stroke-width:5;" x="334.461668903" xlink:href="#m08c894af0b" y="444.983213426"/>
    </g>
   </g>
   <g id="line2d_82">
    <g clip-path="url(#pdba216da3c)">
     <use style="stroke:#000000;stroke-width:5;" x="719.361022195" xlink:href="#m08c894af0b" y="654.492230899"/>
    </g>
   </g>
   <g id="line2d_83">
    <g clip-path="url(#pdba216da3c)">
     <use style="stroke:#000000;stroke-width:5;" x="406.714460593" xlink:href="#m08c894af0b" y="427.737823584"/>
    </g>
   </g>
   <g id="line2d_84">
    <g clip-path="url(#pdba216da3c)">
     <use style="stroke:#000000;stroke-width:5;" x="644.657852577" xlink:href="#m08c894af0b" y="228.814294825"/>
    </g>
   </g>
   <g id="line2d_85">
    <g clip-path="url(#pdba216da3c)">
     <use style="stroke:#000000;stroke-width:5;" x="409.265819509" xlink:href="#m08c894af0b" y="514.12057549"/>
    </g>
   </g>
   <g id="line2d_86">
    <g clip-path="url(#pdba216da3c)">
     <use style="stroke:#000000;stroke-width:5;" x="679.460838719" xlink:href="#m08c894af0b" y="275.112745874"/>
    </g>
   </g>
   <g id="line2d_87">
    <g clip-path="url(#pdba216da3c)">
     <use style="stroke:#000000;stroke-width:5;" x="1239.91976773" xlink:href="#m08c894af0b" y="475.699255577"/>
    </g>
   </g>
   <g id="line2d_88">
    <g clip-path="url(#pdba216da3c)">
     <use style="stroke:#000000;stroke-width:5;" x="876.567475827" xlink:href="#m08c894af0b" y="135.954592474"/>
    </g>
   </g>
   <g id="line2d_89">
    <g clip-path="url(#pdba216da3c)">
     <use style="stroke:#000000;stroke-width:5;" x="986.28987444" xlink:href="#m08c894af0b" y="181.546984182"/>
    </g>
   </g>
   <g id="line2d_90">
    <g clip-path="url(#pdba216da3c)">
     <use style="stroke:#000000;stroke-width:5;" x="759.64828566" xlink:href="#m08c894af0b" y="114.798649811"/>
    </g>
   </g>
   <g id="line2d_91">
    <g clip-path="url(#pdba216da3c)">
     <use style="stroke:#000000;stroke-width:5;" x="811.260584978" xlink:href="#m08c894af0b" y="468.531830094"/>
    </g>
   </g>
   <g id="line2d_92">
    <g clip-path="url(#pdba216da3c)">
     <use style="stroke:#000000;stroke-width:5;" x="737.762175468" xlink:href="#m08c894af0b" y="604.944861122"/>
    </g>
   </g>
   <g id="line2d_93">
    <g clip-path="url(#pdba216da3c)">
     <use style="stroke:#000000;stroke-width:5;" x="178.0185413" xlink:href="#m08c894af0b" y="551.86504852"/>
    </g>
   </g>
   <g id="line2d_94">
    <g clip-path="url(#pdba216da3c)">
     <use style="stroke:#000000;stroke-width:5;" x="714.571983723" xlink:href="#m08c894af0b" y="321.056655232"/>
    </g>
   </g>
   <g id="line2d_95">
    <g clip-path="url(#pdba216da3c)">
     <use style="stroke:#000000;stroke-width:5;" x="815.964602226" xlink:href="#m08c894af0b" y="512.816211632"/>
    </g>
   </g>
   <g id="line2d_96">
    <g clip-path="url(#pdba216da3c)">
     <use style="stroke:#000000;stroke-width:5;" x="314.949880283" xlink:href="#m08c894af0b" y="377.147558771"/>
    </g>
   </g>
   <g id="line2d_97">
    <g clip-path="url(#pdba216da3c)">
     <use style="stroke:#000000;stroke-width:5;" x="453.71012556" xlink:href="#m08c894af0b" y="181.546984182"/>
    </g>
   </g>
   <g id="line2d_98">
    <g clip-path="url(#pdba216da3c)">
     <use style="stroke:#000000;stroke-width:5;" x="810.081900771" xlink:href="#m08c894af0b" y="549.921547642"/>
    </g>
   </g>
   <g id="line2d_99">
    <g clip-path="url(#pdba216da3c)">
     <use style="stroke:#000000;stroke-width:5;" x="1105.5383311" xlink:href="#m08c894af0b" y="444.983213426"/>
    </g>
   </g>
   <g id="line2d_100">
    <g clip-path="url(#pdba216da3c)">
     <use style="stroke:#000000;stroke-width:5;" x="748.524429699" xlink:href="#m08c894af0b" y="634.001803755"/>
    </g>
   </g>
   <g id="line2d_101">
    <g clip-path="url(#pdba216da3c)">
     <use style="stroke:#000000;stroke-width:5;" x="238.862261111" xlink:href="#m08c894af0b" y="537.49881932"/>
    </g>
   </g>
   <g id="line2d_102">
    <g clip-path="url(#pdba216da3c)">
     <use style="stroke:#000000;stroke-width:5;" x="387.071459012" xlink:href="#m08c894af0b" y="224.526448393"/>
    </g>
   </g>
   <g id="line2d_103">
    <g clip-path="url(#pdba216da3c)">
     <use style="stroke:#000000;stroke-width:5;" x="784.299490017" xlink:href="#m08c894af0b" y="416.980949825"/>
    </g>
   </g>
   <g id="line2d_104">
    <g clip-path="url(#pdba216da3c)">
     <use style="stroke:#000000;stroke-width:5;" x="504.322129549" xlink:href="#m08c894af0b" y="218.245374256"/>
    </g>
   </g>
   <g id="line2d_105">
    <g clip-path="url(#pdba216da3c)">
     <use style="stroke:#000000;stroke-width:5;" x="252.929858938" xlink:href="#m08c894af0b" y="369.282208539"/>
    </g>
   </g>
   <g id="line2d_106">
    <g clip-path="url(#pdba216da3c)">
     <use style="stroke:#000000;stroke-width:5;" x="1077.20911294" xlink:href="#m08c894af0b" y="500.030417786"/>
    </g>
   </g>
   <g id="line2d_107">
    <g clip-path="url(#pdba216da3c)">
     <use style="stroke:#000000;stroke-width:5;" x="215.139593442" xlink:href="#m08c894af0b" y="438.994775963"/>
    </g>
   </g>
   <g id="line2d_108">
    <g clip-path="url(#pdba216da3c)">
     <use style="stroke:#000000;stroke-width:5;" x="722.429377728" xlink:href="#m08c894af0b" y="664.530839186"/>
    </g>
   </g>
   <g id="line2d_109">
    <g clip-path="url(#pdba216da3c)">
     <use style="stroke:#000000;stroke-width:5;" x="605.058624674" xlink:href="#m08c894af0b" y="182.598075823"/>
    </g>
   </g>
   <g id="line2d_110">
    <g clip-path="url(#pdba216da3c)">
     <use style="stroke:#000000;stroke-width:5;" x="742.612632002" xlink:href="#m08c894af0b" y="653.512503005"/>
    </g>
   </g>
   <g id="line2d_111">
    <g clip-path="url(#pdba216da3c)">
     <use style="stroke:#000000;stroke-width:5;" x="1135.18607275" xlink:href="#m08c894af0b" y="391.832021863"/>
    </g>
   </g>
   <g id="line2d_112">
    <g clip-path="url(#pdba216da3c)">
     <use style="stroke:#000000;stroke-width:5;" x="732.056444157" xlink:href="#m08c894af0b" y="550.894903033"/>
    </g>
   </g>
   <g id="line2d_113">
    <g clip-path="url(#pdba216da3c)">
     <use style="stroke:#000000;stroke-width:5;" x="1164.53290563" xlink:href="#m08c894af0b" y="336.631386165"/>
    </g>
   </g>
   <g id="line2d_114">
    <g clip-path="url(#pdba216da3c)">
     <use style="stroke:#000000;stroke-width:5;" x="563.432524173" xlink:href="#m08c894af0b" y="135.954592474"/>
    </g>
   </g>
   <g id="line2d_115">
    <g clip-path="url(#pdba216da3c)">
     <use style="stroke:#000000;stroke-width:5;" x="886.267717525" xlink:href="#m08c894af0b" y="197.714224053"/>
    </g>
   </g>
   <g id="line2d_116">
    <g clip-path="url(#pdba216da3c)">
     <use style="stroke:#000000;stroke-width:5;" x="901.799278731" xlink:href="#m08c894af0b" y="261.205285571"/>
    </g>
   </g>
   <g id="line2d_117">
    <g clip-path="url(#pdba216da3c)">
     <use style="stroke:#000000;stroke-width:5;" x="744.577466432" xlink:href="#m08c894af0b" y="367.316044752"/>
    </g>
   </g>
   <g id="patch_3">
    <path d="
M72 684
L1368 684" style="fill:none;"/>
   </g>
   <g id="patch_4">
    <path d="
M72 36
L1368 36" style="fill:none;"/>
   </g>
   <g id="patch_5">
    <path d="
M72 684
L72 36" style="fill:none;"/>
   </g>
   <g id="patch_6">
    <path d="
M1368 684
L1368 36" style="fill:none;"/>
   </g>
   <g id="text_1">
    <g id="patch_7">
     <path d="
M1249.45 363.531
L1299.9 333.796
L1292.91 321.945
L1242.46 351.68
z
"/>
    </g>
    <!-- Hangzhou -->
    <defs>
     <path d="
M63.375 33.2969
L63.375 0
L45.7969 0
L45.7969 5.42188
L45.7969 25.4844
Q45.7969 32.5625 45.4844 35.25
Q45.1719 37.9375 44.3906 39.2031
Q43.3594 40.9219 41.5938 41.875
Q39.8438 42.8281 37.5938 42.8281
Q32.125 42.8281 29 38.5938
Q25.875 34.375 25.875 26.9062
L25.875 0
L8.40625 0
L8.40625 54.6875
L25.875 54.6875
L25.875 46.6875
Q29.8281 51.4688 34.2656 53.7344
Q38.7188 56 44.0938 56
Q53.5625 56 58.4688 50.1875
Q63.375 44.3906 63.375 33.2969" id="BitstreamVeraSans-Bold-6e"/>
     <path d="
M5.71875 54.6875
L53.4219 54.6875
L53.4219 42.4844
L24.6094 12.5
L53.4219 12.5
L53.4219 0
L4.5 0
L4.5 12.2031
L33.2969 42.1875
L5.71875 42.1875
z
" id="BitstreamVeraSans-Bold-7a"/>
     <path d="
M34.4219 43.5
Q28.6094 43.5 25.5625 39.3281
Q22.5156 35.1562 22.5156 27.2969
Q22.5156 19.4375 25.5625 15.25
Q28.6094 11.0781 34.4219 11.0781
Q40.1406 11.0781 43.1562 15.25
Q46.1875 19.4375 46.1875 27.2969
Q46.1875 35.1562 43.1562 39.3281
Q40.1406 43.5 34.4219 43.5
M34.4219 56
Q48.5312 56 56.4688 48.375
Q64.4062 40.7656 64.4062 27.2969
Q64.4062 13.8125 56.4688 6.1875
Q48.5312 -1.42188 34.4219 -1.42188
Q20.2656 -1.42188 12.2812 6.1875
Q4.29688 13.8125 4.29688 27.2969
Q4.29688 40.7656 12.2812 48.375
Q20.2656 56 34.4219 56" id="BitstreamVeraSans-Bold-6f"/>
     <path d="
M7.8125 21.2969
L7.8125 54.6875
L25.3906 54.6875
L25.3906 49.2188
Q25.3906 44.7812 25.3438 38.0625
Q25.2969 31.3438 25.2969 29.1094
Q25.2969 22.5156 25.6406 19.6094
Q25.9844 16.7031 26.8125 15.375
Q27.875 13.6719 29.6094 12.7344
Q31.3438 11.8125 33.5938 11.8125
Q39.0625 11.8125 42.1875 16.0156
Q45.3125 20.2188 45.3125 27.6875
L45.3125 54.6875
L62.7969 54.6875
L62.7969 0
L45.3125 0
L45.3125 7.90625
Q41.3594 3.125 36.9375 0.84375
Q32.5156 -1.42188 27.2031 -1.42188
Q17.7188 -1.42188 12.7656 4.39062
Q7.8125 10.2031 7.8125 21.2969" id="BitstreamVeraSans-Bold-75"/>
     <path d="
M9.1875 72.9062
L27.9844 72.9062
L27.9844 45.125
L55.7188 45.125
L55.7188 72.9062
L74.5156 72.9062
L74.5156 0
L55.7188 0
L55.7188 30.9062
L27.9844 30.9062
L27.9844 0
L9.1875 0
z
" id="BitstreamVeraSans-Bold-48"/>
     <path d="
M45.6094 9.28125
Q42 4.5 37.6406 2.25
Q33.2969 0 27.5938 0
Q17.5781 0 11.0312 7.875
Q4.5 15.7656 4.5 27.9844
Q4.5 40.2344 11.0312 48.0625
Q17.5781 55.9062 27.5938 55.9062
Q33.2969 55.9062 37.6406 53.6562
Q42 51.4219 45.6094 46.5781
L45.6094 54.6875
L63.1875 54.6875
L63.1875 5.51562
Q63.1875 -7.67188 54.8594 -14.625
Q46.5312 -21.5781 30.7188 -21.5781
Q25.5938 -21.5781 20.7969 -20.7969
Q16.0156 -20.0156 11.1875 -18.4062
L11.1875 -4.78125
Q15.7656 -7.42188 20.1562 -8.71875
Q24.5625 -10.0156 29 -10.0156
Q37.5938 -10.0156 41.5938 -6.25
Q45.6094 -2.48438 45.6094 5.51562
z

M34.0781 43.3125
Q28.6562 43.3125 25.625 39.2969
Q22.6094 35.2969 22.6094 27.9844
Q22.6094 20.4531 25.5312 16.5781
Q28.4688 12.7031 34.0781 12.7031
Q39.5469 12.7031 42.5781 16.7031
Q45.6094 20.7031 45.6094 27.9844
Q45.6094 35.2969 42.5781 39.2969
Q39.5469 43.3125 34.0781 43.3125" id="BitstreamVeraSans-Bold-67"/>
     <path d="
M63.375 33.2969
L63.375 0
L45.7969 0
L45.7969 5.42188
L45.7969 25.3906
Q45.7969 32.5625 45.4844 35.25
Q45.1719 37.9375 44.3906 39.2031
Q43.3594 40.9219 41.5938 41.875
Q39.8438 42.8281 37.5938 42.8281
Q32.125 42.8281 29 38.5938
Q25.875 34.375 25.875 26.9062
L25.875 0
L8.40625 0
L8.40625 75.9844
L25.875 75.9844
L25.875 46.6875
Q29.8281 51.4688 34.2656 53.7344
Q38.7188 56 44.0938 56
Q53.5625 56 58.4688 50.1875
Q63.375 44.3906 63.375 33.2969" id="BitstreamVeraSans-Bold-68"/>
     <path d="
M32.9062 24.6094
Q27.4375 24.6094 24.6719 22.75
Q21.9219 20.9062 21.9219 17.2812
Q21.9219 13.9688 24.1406 12.0781
Q26.375 10.2031 30.3281 10.2031
Q35.25 10.2031 38.625 13.7344
Q42 17.2812 42 22.6094
L42 24.6094
z

M59.625 31.2031
L59.625 0
L42 0
L42 8.10938
Q38.4844 3.125 34.0781 0.84375
Q29.6875 -1.42188 23.3906 -1.42188
Q14.8906 -1.42188 9.59375 3.53125
Q4.29688 8.5 4.29688 16.4062
Q4.29688 26.0312 10.9062 30.5156
Q17.5312 35.0156 31.6875 35.0156
L42 35.0156
L42 36.375
Q42 40.5312 38.7188 42.4531
Q35.4531 44.3906 28.5156 44.3906
Q22.9062 44.3906 18.0625 43.2656
Q13.2344 42.1406 9.07812 39.8906
L9.07812 53.2188
Q14.7031 54.5938 20.3594 55.2969
Q26.0312 56 31.6875 56
Q46.4844 56 53.0469 50.1719
Q59.625 44.3438 59.625 31.2031" id="BitstreamVeraSans-Bold-61"/>
    </defs>
    <g style="fill:#ffffff;" transform="translate(1249.0570682 358.933554354)rotate(-30.512820512820507)scale(0.1 -0.1)">
     <use xlink:href="#BitstreamVeraSans-Bold-48"/>
     <use x="83.69140625" xlink:href="#BitstreamVeraSans-Bold-61"/>
     <use x="151.171875" xlink:href="#BitstreamVeraSans-Bold-6e"/>
     <use x="222.36328125" xlink:href="#BitstreamVeraSans-Bold-67"/>
     <use x="293.9453125" xlink:href="#BitstreamVeraSans-Bold-7a"/>
     <use x="352.1484375" xlink:href="#BitstreamVeraSans-Bold-68"/>
     <use x="423.33984375" xlink:href="#BitstreamVeraSans-Bold-6f"/>
     <use x="492.041015625" xlink:href="#BitstreamVeraSans-Bold-75"/>
    </g>
   </g>
   <g id="text_2">
    <g id="patch_8">
     <path d="
M507.084 51.5341
L520.151 90.6731
L533.199 86.3169
L520.133 47.178
z
"/>
    </g>
    <!-- Tianjin -->
    <defs>
     <path d="
M8.40625 54.6875
L25.875 54.6875
L25.875 0.984375
Q25.875 -10.0156 20.5938 -15.7969
Q15.3281 -21.5781 5.32812 -21.5781
L-3.32812 -21.5781
L-3.32812 -10.1094
L-0.296875 -10.1094
Q4.6875 -10.1094 6.54688 -7.85938
Q8.40625 -5.60938 8.40625 0.984375
z

M8.40625 75.9844
L25.875 75.9844
L25.875 61.7188
L8.40625 61.7188
z
" id="BitstreamVeraSans-Bold-6a"/>
     <path d="
M8.40625 54.6875
L25.875 54.6875
L25.875 0
L8.40625 0
z

M8.40625 75.9844
L25.875 75.9844
L25.875 61.7188
L8.40625 61.7188
z
" id="BitstreamVeraSans-Bold-69"/>
     <path d="
M0.484375 72.9062
L67.6719 72.9062
L67.6719 58.6875
L43.5 58.6875
L43.5 0
L24.7031 0
L24.7031 58.6875
L0.484375 58.6875
z
" id="BitstreamVeraSans-Bold-54"/>
    </defs>
    <g style="fill:#ffffff;" transform="translate(511.661581897 52.1145488863)rotate(-288.46153846153845)scale(0.1 -0.1)">
     <use xlink:href="#BitstreamVeraSans-Bold-54"/>
     <use x="68.212890625" xlink:href="#BitstreamVeraSans-Bold-69"/>
     <use x="102.490234375" xlink:href="#BitstreamVeraSans-Bold-61"/>
     <use x="169.970703125" xlink:href="#BitstreamVeraSans-Bold-6e"/>
     <use x="241.162109375" xlink:href="#BitstreamVeraSans-Bold-6a"/>
     <use x="275.439453125" xlink:href="#BitstreamVeraSans-Bold-69"/>
     <use x="309.716796875" xlink:href="#BitstreamVeraSans-Bold-6e"/>
    </g>
   </g>
   <g id="text_3">
    <g id="patch_9">
     <path d="
M1287.4 442.168
L1317.89 429.662
L1312.69 417.007
L1282.21 429.514
z
"/>
    </g>
    <!-- Tunxi -->
    <defs>
     <path d="
M22.2188 27.9844
L2.48438 54.6875
L21 54.6875
L32.1719 38.4844
L43.5 54.6875
L62.0156 54.6875
L42.2812 28.0781
L62.9844 0
L44.4844 0
L32.1719 17.2812
L20.0156 0
L1.51562 0
z
" id="BitstreamVeraSans-Bold-78"/>
    </defs>
    <g style="fill:#ffffff;" transform="translate(1287.70456374 437.634815839)rotate(-22.30769230769231)scale(0.1 -0.1)">
     <use xlink:href="#BitstreamVeraSans-Bold-54"/>
     <use x="57.212890625" xlink:href="#BitstreamVeraSans-Bold-75"/>
     <use x="128.404296875" xlink:href="#BitstreamVeraSans-Bold-6e"/>
     <use x="199.595703125" xlink:href="#BitstreamVeraSans-Bold-78"/>
     <use x="264.09765625" xlink:href="#BitstreamVeraSans-Bold-69"/>
    </g>
   </g>
   <g id="text_4">
    <g id="patch_10">
     <path d="
M236.368 228.728
L267.56 257.633
L276.857 247.6
L245.666 218.696
z
"/>
    </g>
    <!-- Jian’ou -->
    <defs>
     <path d="
M11.1875 72.9062
L27.7812 72.9062
L27.7812 58.9844
L16.7031 41.7969
L6.29688 41.7969
L11.1875 58.9844
z
" id="BitstreamVeraSans-Bold-2019"/>
     <path d="
M9.1875 72.9062
L27.9844 72.9062
L27.9844 7.07812
Q27.9844 -6.54688 20.5781 -13.2812
Q13.1875 -20.0156 -1.8125 -20.0156
L-5.60938 -20.0156
L-5.60938 -5.8125
L-2.6875 -5.8125
Q3.17188 -5.8125 6.17188 -2.53125
Q9.1875 0.734375 9.1875 7.07812
z
" id="BitstreamVeraSans-Bold-4a"/>
    </defs>
    <g style="fill:#ffffff;" transform="translate(240.60839933 227.095473529)rotate(-317.1794871794872)scale(0.1 -0.1)">
     <use xlink:href="#BitstreamVeraSans-Bold-4a"/>
     <use x="37.20703125" xlink:href="#BitstreamVeraSans-Bold-69"/>
     <use x="71.484375" xlink:href="#BitstreamVeraSans-Bold-61"/>
     <use x="138.96484375" xlink:href="#BitstreamVeraSans-Bold-6e"/>
     <use x="210.15625" xlink:href="#BitstreamVeraSans-Bold-2019"/>
     <use x="248.14453125" xlink:href="#BitstreamVeraSans-Bold-6f"/>
     <use x="316.845703125" xlink:href="#BitstreamVeraSans-Bold-75"/>
    </g>
   </g>
   <g id="text_5">
    <g id="patch_11">
     <path d="
M1000.14 125.101
L1024.3 76.9896
L1012.01 70.8158
L987.844 118.927
z
"/>
    </g>
    <!-- Xiangtan -->
    <defs>
     <path d="
M27.4844 70.2188
L27.4844 54.6875
L45.5156 54.6875
L45.5156 42.1875
L27.4844 42.1875
L27.4844 19
Q27.4844 15.1875 29 13.8438
Q30.5156 12.5 35.0156 12.5
L44 12.5
L44 0
L29 0
Q18.6562 0 14.3281 4.3125
Q10.0156 8.64062 10.0156 19
L10.0156 42.1875
L1.3125 42.1875
L1.3125 54.6875
L10.0156 54.6875
L10.0156 70.2188
z
" id="BitstreamVeraSans-Bold-74"/>
     <path d="
M49.8125 37.2031
L75.0938 0
L55.5156 0
L38.4844 24.9062
L21.5781 0
L1.90625 0
L27.2031 37.2031
L2.875 72.9062
L22.5156 72.9062
L38.4844 49.4219
L54.3906 72.9062
L74.125 72.9062
z
" id="BitstreamVeraSans-Bold-58"/>
    </defs>
    <g style="fill:#ffffff;" transform="translate(997.319203985 121.447251268)rotate(-63.33333333333333)scale(0.1 -0.1)">
     <use xlink:href="#BitstreamVeraSans-Bold-58"/>
     <use x="77.099609375" xlink:href="#BitstreamVeraSans-Bold-69"/>
     <use x="111.376953125" xlink:href="#BitstreamVeraSans-Bold-61"/>
     <use x="178.857421875" xlink:href="#BitstreamVeraSans-Bold-6e"/>
     <use x="250.048828125" xlink:href="#BitstreamVeraSans-Bold-67"/>
     <use x="321.630859375" xlink:href="#BitstreamVeraSans-Bold-74"/>
     <use x="369.43359375" xlink:href="#BitstreamVeraSans-Bold-61"/>
     <use x="436.9140625" xlink:href="#BitstreamVeraSans-Bold-6e"/>
    </g>
   </g>
   <g id="text_6">
    <g id="patch_12">
     <path d="
M596.23 21.9621
L604.569 68.0497
L618.029 65.6142
L609.689 19.5267
z
"/>
    </g>
    <!-- Haerbin -->
    <defs>
     <path d="
M49.0312 39.7969
Q46.7344 40.875 44.4531 41.375
Q42.1875 41.8906 39.8906 41.8906
Q33.1562 41.8906 29.5156 37.5625
Q25.875 33.25 25.875 25.2031
L25.875 0
L8.40625 0
L8.40625 54.6875
L25.875 54.6875
L25.875 45.7031
Q29.25 51.0781 33.6094 53.5312
Q37.9844 56 44.0938 56
Q44.9688 56 45.9844 55.9219
Q47.0156 55.8594 48.9688 55.6094
z
" id="BitstreamVeraSans-Bold-72"/>
     <path d="
M37.5 11.2812
Q43.1094 11.2812 46.0625 15.375
Q49.0312 19.4844 49.0312 27.2969
Q49.0312 35.1094 46.0625 39.2031
Q43.1094 43.3125 37.5 43.3125
Q31.8906 43.3125 28.875 39.1875
Q25.875 35.0625 25.875 27.2969
Q25.875 19.5312 28.875 15.4062
Q31.8906 11.2812 37.5 11.2812
M25.875 46.6875
Q29.5 51.4688 33.8906 53.7344
Q38.2812 56 44 56
Q54.1094 56 60.5938 47.9688
Q67.0938 39.9375 67.0938 27.2969
Q67.0938 14.6562 60.5938 6.60938
Q54.1094 -1.42188 44 -1.42188
Q38.2812 -1.42188 33.8906 0.84375
Q29.5 3.125 25.875 7.90625
L25.875 0
L8.40625 0
L8.40625 75.9844
L25.875 75.9844
z
" id="BitstreamVeraSans-Bold-62"/>
     <path d="
M62.9844 27.4844
L62.9844 22.5156
L22.125 22.5156
Q22.75 16.3594 26.5625 13.2812
Q30.375 10.2031 37.2031 10.2031
Q42.7188 10.2031 48.5 11.8438
Q54.2969 13.4844 60.4062 16.7969
L60.4062 3.32812
Q54.2031 0.984375 48 -0.21875
Q41.7969 -1.42188 35.5938 -1.42188
Q20.75 -1.42188 12.5156 6.125
Q4.29688 13.6719 4.29688 27.2969
Q4.29688 40.6719 12.375 48.3281
Q20.4531 56 34.625 56
Q47.5156 56 55.25 48.2344
Q62.9844 40.4844 62.9844 27.4844
M45.0156 33.2969
Q45.0156 38.2812 42.1094 41.3281
Q39.2031 44.3906 34.5156 44.3906
Q29.4375 44.3906 26.2656 41.5312
Q23.0938 38.6719 22.3125 33.2969
z
" id="BitstreamVeraSans-Bold-65"/>
    </defs>
    <g style="fill:#ffffff;" transform="translate(600.600266745 23.2037563022)rotate(-280.2564102564103)scale(0.1 -0.1)">
     <use xlink:href="#BitstreamVeraSans-Bold-48"/>
     <use x="83.69140625" xlink:href="#BitstreamVeraSans-Bold-61"/>
     <use x="151.171875" xlink:href="#BitstreamVeraSans-Bold-65"/>
     <use x="218.994140625" xlink:href="#BitstreamVeraSans-Bold-72"/>
     <use x="268.310546875" xlink:href="#BitstreamVeraSans-Bold-62"/>
     <use x="339.892578125" xlink:href="#BitstreamVeraSans-Bold-69"/>
     <use x="374.169921875" xlink:href="#BitstreamVeraSans-Bold-6e"/>
    </g>
   </g>
   <g id="text_7">
    <g id="patch_13">
     <path d="
M1313.76 525.454
L1366.48 512.209
L1363.15 498.943
L1310.43 512.188
z
"/>
    </g>
    <!-- Wenzhou -->
    <defs>
     <path d="
M2.98438 72.9062
L21 72.9062
L33.5938 19.9219
L46.0938 72.9062
L64.2031 72.9062
L76.7031 19.9219
L89.3125 72.9062
L107.172 72.9062
L89.9844 0
L68.3125 0
L55.0781 55.4219
L42 0
L20.3125 0
z
" id="BitstreamVeraSans-Bold-57"/>
    </defs>
    <g style="fill:#ffffff;" transform="translate(1314.70956631 521.009984584)rotate(-14.102564102564102)scale(0.1 -0.1)">
     <use xlink:href="#BitstreamVeraSans-Bold-57"/>
     <use x="106.677734375" xlink:href="#BitstreamVeraSans-Bold-65"/>
     <use x="174.5" xlink:href="#BitstreamVeraSans-Bold-6e"/>
     <use x="245.69140625" xlink:href="#BitstreamVeraSans-Bold-7a"/>
     <use x="303.89453125" xlink:href="#BitstreamVeraSans-Bold-68"/>
     <use x="375.0859375" xlink:href="#BitstreamVeraSans-Bold-6f"/>
     <use x="443.787109375" xlink:href="#BitstreamVeraSans-Bold-75"/>
    </g>
   </g>
   <g id="text_8">
    <g id="patch_14">
     <path d="
M200.9 260.245
L239.367 291.082
L247.971 280.349
L209.504 249.512
z
"/>
    </g>
    <!-- Nanning -->
    <defs>
     <path d="
M9.1875 72.9062
L30.1719 72.9062
L56.6875 22.9062
L56.6875 72.9062
L74.5156 72.9062
L74.5156 0
L53.5156 0
L27 50
L27 0
L9.1875 0
z
" id="BitstreamVeraSans-Bold-4e"/>
    </defs>
    <g style="fill:#ffffff;" transform="translate(205.061184435 258.251705896)rotate(-321.28205128205127)scale(0.1 -0.1)">
     <use xlink:href="#BitstreamVeraSans-Bold-4e"/>
     <use x="83.69140625" xlink:href="#BitstreamVeraSans-Bold-61"/>
     <use x="151.171875" xlink:href="#BitstreamVeraSans-Bold-6e"/>
     <use x="222.36328125" xlink:href="#BitstreamVeraSans-Bold-6e"/>
     <use x="293.5546875" xlink:href="#BitstreamVeraSans-Bold-69"/>
     <use x="327.83203125" xlink:href="#BitstreamVeraSans-Bold-6e"/>
     <use x="399.0234375" xlink:href="#BitstreamVeraSans-Bold-67"/>
    </g>
   </g>
   <g id="text_9">
    <g id="patch_15">
     <path d="
M73.0413 560.442
L117.59 568.297
L119.965 554.827
L75.4165 546.972
z
"/>
    </g>
    <!-- Xiamen -->
    <defs>
     <path d="
M59.0781 45.6094
Q62.4062 50.6875 66.9688 53.3438
Q71.5312 56 77 56
Q86.4219 56 91.3594 50.1875
Q96.2969 44.3906 96.2969 33.2969
L96.2969 0
L78.7188 0
L78.7188 28.5156
Q78.7656 29.1562 78.7812 29.8281
Q78.8125 30.5156 78.8125 31.7812
Q78.8125 37.5938 77.0938 40.2031
Q75.3906 42.8281 71.5781 42.8281
Q66.6094 42.8281 63.8906 38.7188
Q61.1875 34.625 61.0781 26.8594
L61.0781 0
L43.5 0
L43.5 28.5156
Q43.5 37.5938 41.9375 40.2031
Q40.375 42.8281 36.375 42.8281
Q31.3438 42.8281 28.6094 38.7031
Q25.875 34.5781 25.875 26.9062
L25.875 0
L8.29688 0
L8.29688 54.6875
L25.875 54.6875
L25.875 46.6875
Q29.1094 51.3125 33.2812 53.6562
Q37.4531 56 42.4844 56
Q48.1406 56 52.4844 53.2656
Q56.8438 50.5312 59.0781 45.6094" id="BitstreamVeraSans-Bold-6d"/>
    </defs>
    <g style="fill:#ffffff;" transform="translate(75.7193714056 556.771757505)rotate(-350.0)scale(0.1 -0.1)">
     <use xlink:href="#BitstreamVeraSans-Bold-58"/>
     <use x="77.099609375" xlink:href="#BitstreamVeraSans-Bold-69"/>
     <use x="111.376953125" xlink:href="#BitstreamVeraSans-Bold-61"/>
     <use x="178.857421875" xlink:href="#BitstreamVeraSans-Bold-6d"/>
     <use x="283.056640625" xlink:href="#BitstreamVeraSans-Bold-65"/>
     <use x="350.87890625" xlink:href="#BitstreamVeraSans-Bold-6e"/>
    </g>
   </g>
   <g id="text_10">
    <g id="patch_16">
     <path d="
M306.18 167.016
L330.667 197.283
L341.361 188.63
L316.875 158.364
z
"/>
    </g>
    <!-- Xining -->
    <g style="fill:#ffffff;" transform="translate(310.670434114 165.956177331)rotate(-308.97435897435895)scale(0.1 -0.1)">
     <use xlink:href="#BitstreamVeraSans-Bold-58"/>
     <use x="77.099609375" xlink:href="#BitstreamVeraSans-Bold-69"/>
     <use x="111.376953125" xlink:href="#BitstreamVeraSans-Bold-6e"/>
     <use x="182.568359375" xlink:href="#BitstreamVeraSans-Bold-69"/>
     <use x="216.845703125" xlink:href="#BitstreamVeraSans-Bold-6e"/>
     <use x="288.037109375" xlink:href="#BitstreamVeraSans-Bold-67"/>
    </g>
   </g>
   <g id="text_11">
    <g id="patch_17">
     <path d="
M960.61 106.449
L979.397 61.236
L966.694 55.9575
L947.906 101.17
z
"/>
    </g>
    <!-- Guiyang -->
    <defs>
     <path d="
M74.7031 5.42188
Q67.6719 2 60.1094 0.28125
Q52.5469 -1.42188 44.4844 -1.42188
Q26.2656 -1.42188 15.625 8.76562
Q4.98438 18.9531 4.98438 36.375
Q4.98438 54 15.8125 64.1094
Q26.6562 74.2188 45.5156 74.2188
Q52.7812 74.2188 59.4375 72.8438
Q66.1094 71.4844 72.0156 68.7969
L72.0156 53.7188
Q65.9219 57.1719 59.8906 58.875
Q53.8594 60.5938 47.7969 60.5938
Q36.5781 60.5938 30.5 54.3125
Q24.4219 48.0469 24.4219 36.375
Q24.4219 24.8125 30.2812 18.5
Q36.1406 12.2031 46.9219 12.2031
Q49.8594 12.2031 52.375 12.5625
Q54.8906 12.9375 56.8906 13.7188
L56.8906 27.875
L45.4062 27.875
L45.4062 40.4844
L74.7031 40.4844
z
" id="BitstreamVeraSans-Bold-47"/>
     <path d="
M1.21875 54.6875
L18.7031 54.6875
L33.4062 17.5781
L45.9062 54.6875
L63.375 54.6875
L40.375 -5.17188
Q36.9219 -14.3125 32.2969 -17.9375
Q27.6875 -21.5781 20.125 -21.5781
L10.0156 -21.5781
L10.0156 -10.1094
L15.4844 -10.1094
Q19.9219 -10.1094 21.9375 -8.6875
Q23.9688 -7.28125 25.0938 -3.60938
L25.5938 -2.09375
z
" id="BitstreamVeraSans-Bold-79"/>
    </defs>
    <g style="fill:#ffffff;" transform="translate(957.537560941 103.006662636)rotate(-67.43589743589745)scale(0.1 -0.1)">
     <use xlink:href="#BitstreamVeraSans-Bold-47"/>
     <use x="82.080078125" xlink:href="#BitstreamVeraSans-Bold-75"/>
     <use x="153.271484375" xlink:href="#BitstreamVeraSans-Bold-69"/>
     <use x="187.548828125" xlink:href="#BitstreamVeraSans-Bold-79"/>
     <use x="252.734375" xlink:href="#BitstreamVeraSans-Bold-61"/>
     <use x="320.21484375" xlink:href="#BitstreamVeraSans-Bold-6e"/>
     <use x="391.40625" xlink:href="#BitstreamVeraSans-Bold-67"/>
    </g>
   </g>
   <g id="text_12">
    <g id="patch_18">
     <path d="
M688.945 -7.31298
L691.274 57.7141
L705.022 57.2217
L702.693 -7.80537
z
"/>
    </g>
    <!-- Zhengzhou -->
    <defs>
     <path d="
M5.60938 72.9062
L66.8906 72.9062
L66.8906 61.5312
L27.7812 14.2031
L68.0156 14.2031
L68.0156 0
L4.5 0
L4.5 11.375
L43.6094 58.6875
L5.60938 58.6875
z
" id="BitstreamVeraSans-Bold-5a"/>
    </defs>
    <g style="fill:#ffffff;" transform="translate(693.171825683 -5.46308493014)rotate(-272.05128205128204)scale(0.1 -0.1)">
     <use xlink:href="#BitstreamVeraSans-Bold-5a"/>
     <use x="72.509765625" xlink:href="#BitstreamVeraSans-Bold-68"/>
     <use x="143.701171875" xlink:href="#BitstreamVeraSans-Bold-65"/>
     <use x="211.5234375" xlink:href="#BitstreamVeraSans-Bold-6e"/>
     <use x="282.71484375" xlink:href="#BitstreamVeraSans-Bold-67"/>
     <use x="354.296875" xlink:href="#BitstreamVeraSans-Bold-7a"/>
     <use x="412.5" xlink:href="#BitstreamVeraSans-Bold-68"/>
     <use x="483.69140625" xlink:href="#BitstreamVeraSans-Bold-6f"/>
     <use x="552.392578125" xlink:href="#BitstreamVeraSans-Bold-75"/>
    </g>
   </g>
   <g id="text_13">
    <g id="patch_19">
     <path d="
M1038.23 146.532
L1067.91 96.6818
L1056.09 89.6444
L1026.41 139.495
z
"/>
    </g>
    <!-- Changsha -->
    <defs>
     <path d="
M67 4
Q61.8125 1.3125 56.2031 -0.046875
Q50.5938 -1.42188 44.4844 -1.42188
Q26.2656 -1.42188 15.625 8.76562
Q4.98438 18.9531 4.98438 36.375
Q4.98438 53.8594 15.625 64.0312
Q26.2656 74.2188 44.4844 74.2188
Q50.5938 74.2188 56.2031 72.8438
Q61.8125 71.4844 67 68.7969
L67 53.7188
Q61.7656 57.2812 56.6875 58.9375
Q51.6094 60.5938 46 60.5938
Q35.9375 60.5938 30.1719 54.1406
Q24.4219 47.7031 24.4219 36.375
Q24.4219 25.0938 30.1719 18.6406
Q35.9375 12.2031 46 12.2031
Q51.6094 12.2031 56.6875 13.8594
Q61.7656 15.5312 67 19.0938
z
" id="BitstreamVeraSans-Bold-43"/>
     <path d="
M51.125 52.9844
L51.125 39.7031
Q45.5156 42.0469 40.2812 43.2188
Q35.0625 44.3906 30.4219 44.3906
Q25.4375 44.3906 23.0156 43.1406
Q20.6094 41.8906 20.6094 39.3125
Q20.6094 37.2031 22.4375 36.0781
Q24.2656 34.9688 29 34.4219
L32.0781 33.9844
Q45.5156 32.2812 50.1406 28.375
Q54.7812 24.4688 54.7812 16.1094
Q54.7812 7.375 48.3281 2.96875
Q41.8906 -1.42188 29.1094 -1.42188
Q23.6875 -1.42188 17.8906 -0.5625
Q12.1094 0.296875 6 2
L6 15.2812
Q11.2344 12.75 16.7188 11.4688
Q22.2188 10.2031 27.875 10.2031
Q33.0156 10.2031 35.5938 11.6094
Q38.1875 13.0312 38.1875 15.8281
Q38.1875 18.1719 36.4062 19.3125
Q34.625 20.4531 29.2969 21.0938
L26.2188 21.4844
Q14.5469 22.9531 9.85938 26.9062
Q5.17188 30.8594 5.17188 38.9219
Q5.17188 47.6094 11.125 51.7969
Q17.0938 56 29.3906 56
Q34.2344 56 39.5469 55.2656
Q44.875 54.5469 51.125 52.9844" id="BitstreamVeraSans-Bold-73"/>
    </defs>
    <g style="fill:#ffffff;" transform="translate(1035.67963174 142.686648968)rotate(-59.23076923076923)scale(0.1 -0.1)">
     <use xlink:href="#BitstreamVeraSans-Bold-43"/>
     <use x="73.388671875" xlink:href="#BitstreamVeraSans-Bold-68"/>
     <use x="144.580078125" xlink:href="#BitstreamVeraSans-Bold-61"/>
     <use x="212.060546875" xlink:href="#BitstreamVeraSans-Bold-6e"/>
     <use x="283.251953125" xlink:href="#BitstreamVeraSans-Bold-67"/>
     <use x="354.833984375" xlink:href="#BitstreamVeraSans-Bold-73"/>
     <use x="414.35546875" xlink:href="#BitstreamVeraSans-Bold-68"/>
     <use x="485.546875" xlink:href="#BitstreamVeraSans-Bold-61"/>
    </g>
   </g>
   <g id="text_14">
    <g id="patch_20">
     <path d="
M106.498 423.255
L152.597 442.168
L157.789 429.514
L111.69 410.6
z
"/>
    </g>
    <!-- Taoyuan -->
    <g style="fill:#ffffff;" transform="translate(109.926799411 420.167081114)rotate(-337.6923076923077)scale(0.1 -0.1)">
     <use xlink:href="#BitstreamVeraSans-Bold-54"/>
     <use x="55.337890625" xlink:href="#BitstreamVeraSans-Bold-61"/>
     <use x="122.818359375" xlink:href="#BitstreamVeraSans-Bold-6f"/>
     <use x="191.51953125" xlink:href="#BitstreamVeraSans-Bold-79"/>
     <use x="256.705078125" xlink:href="#BitstreamVeraSans-Bold-75"/>
     <use x="327.896484375" xlink:href="#BitstreamVeraSans-Bold-61"/>
     <use x="395.376953125" xlink:href="#BitstreamVeraSans-Bold-6e"/>
    </g>
   </g>
   <g id="text_15">
    <g id="patch_21">
     <path d="
M792.244 61.3277
L798.642 1.99036
L785.042 0.52409
L778.645 59.8614
z
"/>
    </g>
    <!-- Wulumuqi -->
    <defs>
     <path d="
M34.0781 43.3125
Q28.5156 43.3125 25.5625 39.2031
Q22.6094 35.1094 22.6094 27.2969
Q22.6094 19.4844 25.5625 15.375
Q28.5156 11.2812 34.0781 11.2812
Q39.7031 11.2812 42.6562 15.375
Q45.6094 19.4844 45.6094 27.2969
Q45.6094 35.1094 42.6562 39.2031
Q39.7031 43.3125 34.0781 43.3125
M45.6094 7.90625
Q42 3.07812 37.6406 0.828125
Q33.2969 -1.42188 27.5938 -1.42188
Q17.4844 -1.42188 10.9844 6.60938
Q4.5 14.6562 4.5 27.2969
Q4.5 39.9375 10.9844 47.9219
Q17.4844 55.9062 27.5938 55.9062
Q33.2969 55.9062 37.6406 53.6562
Q42 51.4219 45.6094 46.5781
L45.6094 54.6875
L63.1875 54.6875
L63.1875 -20.7969
L45.6094 -20.7969
z
" id="BitstreamVeraSans-Bold-71"/>
     <path d="
M8.40625 75.9844
L25.875 75.9844
L25.875 0
L8.40625 0
z
" id="BitstreamVeraSans-Bold-6c"/>
    </defs>
    <g style="fill:#ffffff;" transform="translate(788.402253646 58.9018975879)rotate(-83.84615384615384)scale(0.1 -0.1)">
     <use xlink:href="#BitstreamVeraSans-Bold-57"/>
     <use x="110.302734375" xlink:href="#BitstreamVeraSans-Bold-75"/>
     <use x="181.494140625" xlink:href="#BitstreamVeraSans-Bold-6c"/>
     <use x="215.771484375" xlink:href="#BitstreamVeraSans-Bold-75"/>
     <use x="286.962890625" xlink:href="#BitstreamVeraSans-Bold-6d"/>
     <use x="391.162109375" xlink:href="#BitstreamVeraSans-Bold-75"/>
     <use x="462.353515625" xlink:href="#BitstreamVeraSans-Bold-71"/>
     <use x="533.935546875" xlink:href="#BitstreamVeraSans-Bold-69"/>
    </g>
   </g>
   <g id="text_16">
    <g id="patch_22">
     <path d="
M1226.34 326.433
L1271.67 295.142
L1263.85 283.821
L1218.52 315.111
z
"/>
    </g>
    <!-- Shanghai -->
    <defs>
     <path d="
M59.9062 70.6094
L59.9062 55.1719
Q53.9062 57.8594 48.1875 59.2188
Q42.4844 60.5938 37.4062 60.5938
Q30.6719 60.5938 27.4375 58.7344
Q24.2188 56.8906 24.2188 52.9844
Q24.2188 50.0469 26.3906 48.4062
Q28.5625 46.7812 34.2812 45.6094
L42.2812 44
Q54.4375 41.5469 59.5625 36.5625
Q64.7031 31.5938 64.7031 22.4062
Q64.7031 10.3594 57.5469 4.46875
Q50.3906 -1.42188 35.6875 -1.42188
Q28.7656 -1.42188 21.7812 -0.09375
Q14.7969 1.21875 7.8125 3.8125
L7.8125 19.6719
Q14.7969 15.9688 21.3125 14.0781
Q27.8281 12.2031 33.8906 12.2031
Q40.0469 12.2031 43.3125 14.25
Q46.5781 16.3125 46.5781 20.125
Q46.5781 23.5312 44.3594 25.3906
Q42.1406 27.25 35.5 28.7188
L28.2188 30.3281
Q17.2812 32.6719 12.2188 37.7969
Q7.17188 42.9219 7.17188 51.6094
Q7.17188 62.5 14.2031 68.3594
Q21.2344 74.2188 34.4219 74.2188
Q40.4375 74.2188 46.7812 73.3125
Q53.125 72.4062 59.9062 70.6094" id="BitstreamVeraSans-Bold-53"/>
    </defs>
    <g style="fill:#ffffff;" transform="translate(1225.6206321 321.874575745)rotate(-34.61538461538462)scale(0.1 -0.1)">
     <use xlink:href="#BitstreamVeraSans-Bold-53"/>
     <use x="72.021484375" xlink:href="#BitstreamVeraSans-Bold-68"/>
     <use x="143.212890625" xlink:href="#BitstreamVeraSans-Bold-61"/>
     <use x="210.693359375" xlink:href="#BitstreamVeraSans-Bold-6e"/>
     <use x="281.884765625" xlink:href="#BitstreamVeraSans-Bold-67"/>
     <use x="353.466796875" xlink:href="#BitstreamVeraSans-Bold-68"/>
     <use x="424.658203125" xlink:href="#BitstreamVeraSans-Bold-61"/>
     <use x="492.138671875" xlink:href="#BitstreamVeraSans-Bold-69"/>
    </g>
   </g>
   <g id="text_17">
    <g id="patch_23">
     <path d="
M1322.41 568.297
L1362.95 561.149
L1360.57 547.679
L1320.03 554.827
z
"/>
    </g>
    <!-- Haikou -->
    <defs>
     <path d="
M8.40625 75.9844
L25.875 75.9844
L25.875 34.625
L46 54.6875
L66.3125 54.6875
L39.5938 29.5938
L68.4062 0
L47.2188 0
L25.875 22.7969
L25.875 0
L8.40625 0
z
" id="BitstreamVeraSans-Bold-6b"/>
    </defs>
    <g style="fill:#ffffff;" transform="translate(1323.67115764 563.932302907)rotate(-10.0)scale(0.1 -0.1)">
     <use xlink:href="#BitstreamVeraSans-Bold-48"/>
     <use x="83.69140625" xlink:href="#BitstreamVeraSans-Bold-61"/>
     <use x="151.171875" xlink:href="#BitstreamVeraSans-Bold-69"/>
     <use x="185.44921875" xlink:href="#BitstreamVeraSans-Bold-6b"/>
     <use x="249.328125" xlink:href="#BitstreamVeraSans-Bold-6f"/>
     <use x="318.029296875" xlink:href="#BitstreamVeraSans-Bold-75"/>
    </g>
   </g>
   <g id="text_18">
    <g id="patch_24">
     <path d="
M1172.44 257.633
L1195.88 235.914
L1186.58 225.881
L1163.14 247.6
z
"/>
    </g>
    <!-- Hefei -->
    <defs>
     <path d="
M44.3906 75.9844
L44.3906 64.5
L34.7188 64.5
Q31 64.5 29.5312 63.1562
Q28.0781 61.8125 28.0781 58.5
L28.0781 54.6875
L43.0156 54.6875
L43.0156 42.1875
L28.0781 42.1875
L28.0781 0
L10.5938 0
L10.5938 42.1875
L1.90625 42.1875
L1.90625 54.6875
L10.5938 54.6875
L10.5938 58.5
Q10.5938 67.4375 15.5781 71.7031
Q20.5625 75.9844 31 75.9844
z
" id="BitstreamVeraSans-Bold-66"/>
    </defs>
    <g style="fill:#ffffff;" transform="translate(1171.1340307 253.281068123)rotate(-42.82051282051282)scale(0.1 -0.1)">
     <use xlink:href="#BitstreamVeraSans-Bold-48"/>
     <use x="83.69140625" xlink:href="#BitstreamVeraSans-Bold-65"/>
     <use x="151.513671875" xlink:href="#BitstreamVeraSans-Bold-66"/>
     <use x="195.01953125" xlink:href="#BitstreamVeraSans-Bold-65"/>
     <use x="262.841796875" xlink:href="#BitstreamVeraSans-Bold-69"/>
    </g>
   </g>
   <g id="text_19">
    <g id="patch_25">
     <path d="
M748.687 57.7127
L750.66 2.61051
L736.991 2.12091
L735.017 57.2231
z
"/>
    </g>
    <!-- Yinchuan -->
    <defs>
     <path d="
M-0.984375 72.9062
L19.5781 72.9062
L36.1875 46.9219
L52.7812 72.9062
L73.3906 72.9062
L45.6094 30.7188
L45.6094 0
L26.8125 0
L26.8125 30.7188
z
" id="BitstreamVeraSans-Bold-59"/>
     <path d="
M52.5938 52.9844
L52.5938 38.7188
Q49.0312 41.1562 45.4375 42.3281
Q41.8438 43.5 37.9844 43.5
Q30.6719 43.5 26.5938 39.2344
Q22.5156 34.9688 22.5156 27.2969
Q22.5156 19.625 26.5938 15.3438
Q30.6719 11.0781 37.9844 11.0781
Q42.0938 11.0781 45.7812 12.2969
Q49.4688 13.5312 52.5938 15.9219
L52.5938 1.60938
Q48.4844 0.09375 44.2656 -0.65625
Q40.0469 -1.42188 35.7969 -1.42188
Q21 -1.42188 12.6406 6.17188
Q4.29688 13.7656 4.29688 27.2969
Q4.29688 40.8281 12.6406 48.4062
Q21 56 35.7969 56
Q40.0938 56 44.2656 55.25
Q48.4375 54.5 52.5938 52.9844" id="BitstreamVeraSans-Bold-63"/>
    </defs>
    <g style="fill:#ffffff;" transform="translate(744.681318291 55.5679298217)rotate(-87.94871794871796)scale(0.1 -0.1)">
     <use xlink:href="#BitstreamVeraSans-Bold-59"/>
     <use x="72.412109375" xlink:href="#BitstreamVeraSans-Bold-69"/>
     <use x="106.689453125" xlink:href="#BitstreamVeraSans-Bold-6e"/>
     <use x="177.880859375" xlink:href="#BitstreamVeraSans-Bold-63"/>
     <use x="237.158203125" xlink:href="#BitstreamVeraSans-Bold-68"/>
     <use x="308.349609375" xlink:href="#BitstreamVeraSans-Bold-75"/>
     <use x="379.541015625" xlink:href="#BitstreamVeraSans-Bold-61"/>
     <use x="447.021484375" xlink:href="#BitstreamVeraSans-Bold-6e"/>
    </g>
   </g>
   <g id="text_20">
    <g id="patch_26">
     <path d="
M91.1362 516.636
L126.236 525.454
L129.569 512.188
L94.469 503.37
z
"/>
    </g>
    <!-- Taibei -->
    <g style="fill:#ffffff;" transform="translate(94.0699983299 513.166467909)rotate(-345.8974358974359)scale(0.1 -0.1)">
     <use xlink:href="#BitstreamVeraSans-Bold-54"/>
     <use x="55.337890625" xlink:href="#BitstreamVeraSans-Bold-61"/>
     <use x="122.818359375" xlink:href="#BitstreamVeraSans-Bold-69"/>
     <use x="157.095703125" xlink:href="#BitstreamVeraSans-Bold-62"/>
     <use x="228.677734375" xlink:href="#BitstreamVeraSans-Bold-65"/>
     <use x="296.5" xlink:href="#BitstreamVeraSans-Bold-69"/>
    </g>
   </g>
   <g id="text_21">
    <g id="patch_27">
     <path d="
M411.046 67.635
L439.898 125.083
L452.121 118.944
L423.269 61.4963
z
"/>
    </g>
    <!-- Huhehaote -->
    <g style="fill:#ffffff;" transform="translate(415.589609162 67.5913009831)rotate(-296.6666666666667)scale(0.1 -0.1)">
     <use xlink:href="#BitstreamVeraSans-Bold-48"/>
     <use x="83.69140625" xlink:href="#BitstreamVeraSans-Bold-75"/>
     <use x="154.8828125" xlink:href="#BitstreamVeraSans-Bold-68"/>
     <use x="226.07421875" xlink:href="#BitstreamVeraSans-Bold-65"/>
     <use x="293.896484375" xlink:href="#BitstreamVeraSans-Bold-68"/>
     <use x="365.087890625" xlink:href="#BitstreamVeraSans-Bold-61"/>
     <use x="432.568359375" xlink:href="#BitstreamVeraSans-Bold-6f"/>
     <use x="501.26953125" xlink:href="#BitstreamVeraSans-Bold-74"/>
     <use x="549.072265625" xlink:href="#BitstreamVeraSans-Bold-65"/>
    </g>
   </g>
   <g id="text_22">
    <g id="patch_28">
     <path d="
M1074.69 170.634
L1104.52 127.825
L1093.24 119.96
L1063.4 162.769
z
"/>
    </g>
    <!-- Kunming -->
    <defs>
     <path d="
M9.1875 72.9062
L27.9844 72.9062
L27.9844 46.2969
L55.0781 72.9062
L76.9062 72.9062
L41.7969 38.375
L80.5156 0
L56.9844 0
L27.9844 28.7188
L27.9844 0
L9.1875 0
z
" id="BitstreamVeraSans-Bold-4b"/>
    </defs>
    <g style="fill:#ffffff;" transform="translate(1072.42225333 166.616007318)rotate(-55.128205128205124)scale(0.1 -0.1)">
     <use xlink:href="#BitstreamVeraSans-Bold-4b"/>
     <use x="75.740234375" xlink:href="#BitstreamVeraSans-Bold-75"/>
     <use x="146.931640625" xlink:href="#BitstreamVeraSans-Bold-6e"/>
     <use x="218.123046875" xlink:href="#BitstreamVeraSans-Bold-6d"/>
     <use x="322.322265625" xlink:href="#BitstreamVeraSans-Bold-69"/>
     <use x="356.599609375" xlink:href="#BitstreamVeraSans-Bold-6e"/>
     <use x="427.791015625" xlink:href="#BitstreamVeraSans-Bold-67"/>
    </g>
   </g>
   <g id="text_23">
    <g id="patch_29">
     <path d="
M1141.95 226.315
L1163.69 203.064
L1153.7 193.722
L1131.96 216.973
z
"/>
    </g>
    <!-- Xi’an -->
    <g style="fill:#ffffff;" transform="translate(1140.33866716 222.067591638)rotate(-46.92307692307692)scale(0.1 -0.1)">
     <use xlink:href="#BitstreamVeraSans-Bold-58"/>
     <use x="77.099609375" xlink:href="#BitstreamVeraSans-Bold-69"/>
     <use x="111.376953125" xlink:href="#BitstreamVeraSans-Bold-2019"/>
     <use x="149.365234375" xlink:href="#BitstreamVeraSans-Bold-61"/>
     <use x="216.845703125" xlink:href="#BitstreamVeraSans-Bold-6e"/>
    </g>
   </g>
   <g id="text_24">
    <g id="patch_30">
     <path d="
M461.04 62.2864
L479.39 106.449
L492.094 101.17
L473.743 57.0079
z
"/>
    </g>
    <!-- Pingyao -->
    <defs>
     <path d="
M9.1875 72.9062
L40.375 72.9062
Q54.2969 72.9062 61.7344 66.7188
Q69.1875 60.5469 69.1875 49.125
Q69.1875 37.6406 61.7344 31.4688
Q54.2969 25.2969 40.375 25.2969
L27.9844 25.2969
L27.9844 0
L9.1875 0
z

M27.9844 59.2812
L27.9844 38.9219
L38.375 38.9219
Q43.8438 38.9219 46.8281 41.5781
Q49.8125 44.2344 49.8125 49.125
Q49.8125 54 46.8281 56.6406
Q43.8438 59.2812 38.375 59.2812
z
" id="BitstreamVeraSans-Bold-50"/>
    </defs>
    <g style="fill:#ffffff;" transform="translate(465.64664855 62.5378738735)rotate(-292.56410256410254)scale(0.1 -0.1)">
     <use xlink:href="#BitstreamVeraSans-Bold-50"/>
     <use x="73.291015625" xlink:href="#BitstreamVeraSans-Bold-69"/>
     <use x="107.568359375" xlink:href="#BitstreamVeraSans-Bold-6e"/>
     <use x="178.759765625" xlink:href="#BitstreamVeraSans-Bold-67"/>
     <use x="250.341796875" xlink:href="#BitstreamVeraSans-Bold-79"/>
     <use x="315.52734375" xlink:href="#BitstreamVeraSans-Bold-61"/>
     <use x="383.0078125" xlink:href="#BitstreamVeraSans-Bold-6f"/>
    </g>
   </g>
   <g id="text_25">
    <g id="patch_31">
     <path d="
M878.026 77.8441
L888.456 37.1031
L875.205 33.711
L864.776 74.4519
z
"/>
    </g>
    <!-- Wuhan -->
    <g style="fill:#ffffff;" transform="translate(874.570207387 74.8947921023)rotate(-75.64102564102565)scale(0.1 -0.1)">
     <use xlink:href="#BitstreamVeraSans-Bold-57"/>
     <use x="110.302734375" xlink:href="#BitstreamVeraSans-Bold-75"/>
     <use x="181.494140625" xlink:href="#BitstreamVeraSans-Bold-68"/>
     <use x="252.685546875" xlink:href="#BitstreamVeraSans-Bold-61"/>
     <use x="320.166015625" xlink:href="#BitstreamVeraSans-Bold-6e"/>
    </g>
   </g>
   <g id="text_26">
    <g id="patch_32">
     <path d="
M159.394 288.973
L213.663 326.433
L221.478 315.111
L167.209 277.652
z
"/>
    </g>
    <!-- Guangzhou -->
    <g style="fill:#ffffff;" transform="translate(163.401946966 286.687402691)rotate(-325.38461538461536)scale(0.1 -0.1)">
     <use xlink:href="#BitstreamVeraSans-Bold-47"/>
     <use x="82.080078125" xlink:href="#BitstreamVeraSans-Bold-75"/>
     <use x="153.271484375" xlink:href="#BitstreamVeraSans-Bold-61"/>
     <use x="220.751953125" xlink:href="#BitstreamVeraSans-Bold-6e"/>
     <use x="291.943359375" xlink:href="#BitstreamVeraSans-Bold-67"/>
     <use x="363.525390625" xlink:href="#BitstreamVeraSans-Bold-7a"/>
     <use x="421.728515625" xlink:href="#BitstreamVeraSans-Bold-68"/>
     <use x="492.919921875" xlink:href="#BitstreamVeraSans-Bold-6f"/>
     <use x="561.62109375" xlink:href="#BitstreamVeraSans-Bold-75"/>
    </g>
   </g>
   <g id="text_27">
    <g id="patch_33">
     <path d="
M1269.84 402.188
L1322.28 376.145
L1316.16 363.824
L1263.72 389.867
z
"/>
    </g>
    <!-- Nanchang -->
    <g style="fill:#ffffff;" transform="translate(1269.78217388 397.574263806)rotate(-26.410256410256405)scale(0.1 -0.1)">
     <use xlink:href="#BitstreamVeraSans-Bold-4e"/>
     <use x="83.69140625" xlink:href="#BitstreamVeraSans-Bold-61"/>
     <use x="151.171875" xlink:href="#BitstreamVeraSans-Bold-6e"/>
     <use x="222.36328125" xlink:href="#BitstreamVeraSans-Bold-63"/>
     <use x="281.640625" xlink:href="#BitstreamVeraSans-Bold-68"/>
     <use x="352.83203125" xlink:href="#BitstreamVeraSans-Bold-61"/>
     <use x="420.3125" xlink:href="#BitstreamVeraSans-Bold-6e"/>
     <use x="491.50390625" xlink:href="#BitstreamVeraSans-Bold-67"/>
    </g>
   </g>
   <g id="text_28">
    <g id="patch_34">
     <path d="
M128.792 381.6
L170.177 402.153
L176.261 389.902
L134.876 369.349
z
"/>
    </g>
    <!-- Meixian -->
    <defs>
     <path d="
M9.1875 72.9062
L33.1094 72.9062
L49.7031 33.8906
L66.4062 72.9062
L90.2812 72.9062
L90.2812 0
L72.5156 0
L72.5156 53.3281
L55.7188 14.0156
L43.7969 14.0156
L27 53.3281
L27 0
L9.1875 0
z
" id="BitstreamVeraSans-Bold-4d"/>
    </defs>
    <g style="fill:#ffffff;" transform="translate(132.397777331 378.835403876)rotate(-333.58974358974353)scale(0.1 -0.1)">
     <use xlink:href="#BitstreamVeraSans-Bold-4d"/>
     <use x="99.51171875" xlink:href="#BitstreamVeraSans-Bold-65"/>
     <use x="167.333984375" xlink:href="#BitstreamVeraSans-Bold-69"/>
     <use x="201.611328125" xlink:href="#BitstreamVeraSans-Bold-78"/>
     <use x="266.11328125" xlink:href="#BitstreamVeraSans-Bold-69"/>
     <use x="300.390625" xlink:href="#BitstreamVeraSans-Bold-61"/>
     <use x="367.87109375" xlink:href="#BitstreamVeraSans-Bold-6e"/>
    </g>
   </g>
   <g id="text_29">
    <g id="patch_35">
     <path d="
M378.041 106.676
L401.771 146.532
L413.591 139.495
L389.861 99.6383
z
"/>
    </g>
    <!-- Taiyuan -->
    <g style="fill:#ffffff;" transform="translate(382.636506405 106.267178448)rotate(-300.7692307692308)scale(0.1 -0.1)">
     <use xlink:href="#BitstreamVeraSans-Bold-54"/>
     <use x="55.337890625" xlink:href="#BitstreamVeraSans-Bold-61"/>
     <use x="122.818359375" xlink:href="#BitstreamVeraSans-Bold-69"/>
     <use x="157.095703125" xlink:href="#BitstreamVeraSans-Bold-79"/>
     <use x="222.28125" xlink:href="#BitstreamVeraSans-Bold-75"/>
     <use x="293.47265625" xlink:href="#BitstreamVeraSans-Bold-61"/>
     <use x="360.953125" xlink:href="#BitstreamVeraSans-Bold-6e"/>
    </g>
   </g>
   <g id="text_30">
    <g id="patch_36">
     <path d="
M551.716 37.9332
L561.936 77.8537
L575.262 74.4422
L565.043 34.5217
z
"/>
    </g>
    <!-- Beijing -->
    <defs>
     <path d="
M38.375 44.6719
Q42.8281 44.6719 45.1094 46.625
Q47.4062 48.5781 47.4062 52.3906
Q47.4062 56.1562 45.1094 58.125
Q42.8281 60.1094 38.375 60.1094
L27.9844 60.1094
L27.9844 44.6719
z

M39.0156 12.7969
Q44.6719 12.7969 47.5312 15.1875
Q50.3906 17.5781 50.3906 22.4062
Q50.3906 27.1562 47.5625 29.5156
Q44.7344 31.8906 39.0156 31.8906
L27.9844 31.8906
L27.9844 12.7969
z

M56.5 39.0156
Q62.5469 37.25 65.8594 32.5156
Q69.1875 27.7812 69.1875 20.9062
Q69.1875 10.3594 62.0625 5.17188
Q54.9375 0 40.375 0
L9.1875 0
L9.1875 72.9062
L37.4062 72.9062
Q52.5938 72.9062 59.4062 68.3125
Q66.2188 63.7188 66.2188 53.6094
Q66.2188 48.2969 63.7188 44.5625
Q61.2344 40.8281 56.5 39.0156" id="BitstreamVeraSans-Bold-42"/>
    </defs>
    <g style="fill:#ffffff;" transform="translate(556.240235513 38.8396277398)rotate(-284.35897435897436)scale(0.1 -0.1)">
     <use xlink:href="#BitstreamVeraSans-Bold-42"/>
     <use x="76.220703125" xlink:href="#BitstreamVeraSans-Bold-65"/>
     <use x="144.04296875" xlink:href="#BitstreamVeraSans-Bold-69"/>
     <use x="178.3203125" xlink:href="#BitstreamVeraSans-Bold-6a"/>
     <use x="212.59765625" xlink:href="#BitstreamVeraSans-Bold-69"/>
     <use x="246.875" xlink:href="#BitstreamVeraSans-Bold-6e"/>
     <use x="318.06640625" xlink:href="#BitstreamVeraSans-Bold-67"/>
    </g>
   </g>
   <g id="text_31">
    <g id="patch_37">
     <path d="
M1109.33 197.283
L1140.82 158.369
L1130.12 149.717
L1098.64 188.63
z
"/>
    </g>
    <!-- Qingdao -->
    <defs>
     <path d="
M45.6094 46.6875
L45.6094 75.9844
L63.1875 75.9844
L63.1875 0
L45.6094 0
L45.6094 7.90625
Q42 3.07812 37.6406 0.828125
Q33.2969 -1.42188 27.5938 -1.42188
Q17.4844 -1.42188 10.9844 6.60938
Q4.5 14.6562 4.5 27.2969
Q4.5 39.9375 10.9844 47.9688
Q17.4844 56 27.5938 56
Q33.25 56 37.625 53.7344
Q42 51.4688 45.6094 46.6875
M34.0781 11.2812
Q39.7031 11.2812 42.6562 15.375
Q45.6094 19.4844 45.6094 27.2969
Q45.6094 35.1094 42.6562 39.2031
Q39.7031 43.3125 34.0781 43.3125
Q28.5156 43.3125 25.5625 39.2031
Q22.6094 35.1094 22.6094 27.2969
Q22.6094 19.4844 25.5625 15.375
Q28.5156 11.2812 34.0781 11.2812" id="BitstreamVeraSans-Bold-64"/>
     <path d="
M44.4844 -1.3125
L43.0156 -1.3125
Q25 -1.3125 14.9844 8.64062
Q4.98438 18.6094 4.98438 36.375
Q4.98438 54.1094 14.9688 64.1562
Q24.9531 74.2188 42.4844 74.2188
Q60.2031 74.2188 70.0938 64.25
Q79.9844 54.2969 79.9844 36.375
Q79.9844 24.0781 74.7344 15.1875
Q69.4844 6.29688 59.625 1.8125
L74.3125 -14.5938
L56.3906 -14.5938
z

M42.4844 60.5938
Q33.8906 60.5938 29.1562 54.25
Q24.4219 47.9062 24.4219 36.375
Q24.4219 24.6562 29.0469 18.4219
Q33.6875 12.2031 42.4844 12.2031
Q51.125 12.2031 55.8594 18.5469
Q60.5938 24.9062 60.5938 36.375
Q60.5938 47.9062 55.8594 54.25
Q51.125 60.5938 42.4844 60.5938" id="BitstreamVeraSans-Bold-51"/>
    </defs>
    <g style="fill:#ffffff;" transform="translate(1107.35876887 193.112692294)rotate(-51.02564102564102)scale(0.1 -0.1)">
     <use xlink:href="#BitstreamVeraSans-Bold-51"/>
     <use x="85.009765625" xlink:href="#BitstreamVeraSans-Bold-69"/>
     <use x="119.287109375" xlink:href="#BitstreamVeraSans-Bold-6e"/>
     <use x="190.478515625" xlink:href="#BitstreamVeraSans-Bold-67"/>
     <use x="262.060546875" xlink:href="#BitstreamVeraSans-Bold-64"/>
     <use x="333.642578125" xlink:href="#BitstreamVeraSans-Bold-61"/>
     <use x="401.123046875" xlink:href="#BitstreamVeraSans-Bold-6f"/>
    </g>
   </g>
   <g id="text_32">
    <g id="patch_38">
     <path d="
M337.093 130.075
L365.342 170.612
L376.564 162.791
L348.315 122.254
z
"/>
    </g>
    <!-- Lanzhou -->
    <defs>
     <path d="
M9.1875 72.9062
L27.9844 72.9062
L27.9844 14.2031
L60.9844 14.2031
L60.9844 0
L9.1875 0
z
" id="BitstreamVeraSans-Bold-4c"/>
    </defs>
    <g style="fill:#ffffff;" transform="translate(341.583248605 129.382971794)rotate(-304.87179487179486)scale(0.1 -0.1)">
     <use xlink:href="#BitstreamVeraSans-Bold-4c"/>
     <use x="63.720703125" xlink:href="#BitstreamVeraSans-Bold-61"/>
     <use x="131.201171875" xlink:href="#BitstreamVeraSans-Bold-6e"/>
     <use x="202.392578125" xlink:href="#BitstreamVeraSans-Bold-7a"/>
     <use x="260.595703125" xlink:href="#BitstreamVeraSans-Bold-68"/>
     <use x="331.787109375" xlink:href="#BitstreamVeraSans-Bold-6f"/>
     <use x="400.48828125" xlink:href="#BitstreamVeraSans-Bold-75"/>
    </g>
   </g>
   <g id="text_33">
    <g id="patch_39">
     <path d="
M644.335 29.5975
L647.756 61.3277
L661.355 59.8614
L657.934 28.1313
z
"/>
    </g>
    <!-- Jinan -->
    <g style="fill:#ffffff;" transform="translate(648.605400843 31.1486859973)rotate(-276.1538461538462)scale(0.1 -0.1)">
     <use xlink:href="#BitstreamVeraSans-Bold-4a"/>
     <use x="37.20703125" xlink:href="#BitstreamVeraSans-Bold-69"/>
     <use x="71.484375" xlink:href="#BitstreamVeraSans-Bold-6e"/>
     <use x="142.67578125" xlink:href="#BitstreamVeraSans-Bold-61"/>
     <use x="210.15625" xlink:href="#BitstreamVeraSans-Bold-6e"/>
    </g>
   </g>
   <g id="text_34">
    <g id="patch_40">
     <path d="
M835.469 68.0566
L843.591 23.1745
L830.054 20.7251
L821.933 65.6073
z
"/>
    </g>
    <!-- Nanjing -->
    <g style="fill:#ffffff;" transform="translate(831.734200395 65.3482538477)rotate(-79.74358974358975)scale(0.1 -0.1)">
     <use xlink:href="#BitstreamVeraSans-Bold-4e"/>
     <use x="83.69140625" xlink:href="#BitstreamVeraSans-Bold-61"/>
     <use x="151.171875" xlink:href="#BitstreamVeraSans-Bold-6e"/>
     <use x="222.36328125" xlink:href="#BitstreamVeraSans-Bold-6a"/>
     <use x="256.640625" xlink:href="#BitstreamVeraSans-Bold-69"/>
     <use x="290.91796875" xlink:href="#BitstreamVeraSans-Bold-6e"/>
     <use x="362.109375" xlink:href="#BitstreamVeraSans-Bold-67"/>
    </g>
   </g>
   <g id="text_35">
    <g id="patch_41">
     <path d="
M919.849 90.6731
L936.46 40.9164
L923.412 36.5603
L906.801 86.3169
z
"/>
    </g>
    <!-- Chengdu -->
    <g style="fill:#ffffff;" transform="translate(916.538576984 87.4593880544)rotate(-71.53846153846153)scale(0.1 -0.1)">
     <use xlink:href="#BitstreamVeraSans-Bold-43"/>
     <use x="73.388671875" xlink:href="#BitstreamVeraSans-Bold-68"/>
     <use x="144.580078125" xlink:href="#BitstreamVeraSans-Bold-65"/>
     <use x="212.40234375" xlink:href="#BitstreamVeraSans-Bold-6e"/>
     <use x="283.59375" xlink:href="#BitstreamVeraSans-Bold-67"/>
     <use x="355.17578125" xlink:href="#BitstreamVeraSans-Bold-64"/>
     <use x="426.7578125" xlink:href="#BitstreamVeraSans-Bold-75"/>
    </g>
   </g>
   <g id="text_36">
    <g id="patch_42">
     <path d="
M90.9979 467.906
L137.925 483.339
L142.198 470.346
L95.2712 454.912
z
"/>
    </g>
    <!-- Shantou -->
    <g style="fill:#ffffff;" transform="translate(94.1723518895 464.65491663)rotate(-341.79487179487177)scale(0.1 -0.1)">
     <use xlink:href="#BitstreamVeraSans-Bold-53"/>
     <use x="72.021484375" xlink:href="#BitstreamVeraSans-Bold-68"/>
     <use x="143.212890625" xlink:href="#BitstreamVeraSans-Bold-61"/>
     <use x="210.693359375" xlink:href="#BitstreamVeraSans-Bold-6e"/>
     <use x="281.884765625" xlink:href="#BitstreamVeraSans-Bold-74"/>
     <use x="329.6875" xlink:href="#BitstreamVeraSans-Bold-6f"/>
     <use x="398.388671875" xlink:href="#BitstreamVeraSans-Bold-75"/>
    </g>
   </g>
   <g id="text_37">
    <g id="patch_43">
     <path d="
M268.939 195.183
L298.047 226.315
L308.038 216.973
L278.93 185.841
z
"/>
    </g>
    <!-- Fuzhou -->
    <defs>
     <path d="
M9.1875 72.9062
L59.9062 72.9062
L59.9062 58.6875
L27.9844 58.6875
L27.9844 45.125
L58.0156 45.125
L58.0156 30.9062
L27.9844 30.9062
L27.9844 0
L9.1875 0
z
" id="BitstreamVeraSans-Bold-46"/>
    </defs>
    <g style="fill:#ffffff;" transform="translate(273.284446014 193.857870277)rotate(-313.07692307692304)scale(0.1 -0.1)">
     <use xlink:href="#BitstreamVeraSans-Bold-46"/>
     <use x="63.310546875" xlink:href="#BitstreamVeraSans-Bold-75"/>
     <use x="134.501953125" xlink:href="#BitstreamVeraSans-Bold-7a"/>
     <use x="192.705078125" xlink:href="#BitstreamVeraSans-Bold-68"/>
     <use x="263.896484375" xlink:href="#BitstreamVeraSans-Bold-6f"/>
     <use x="332.59765625" xlink:href="#BitstreamVeraSans-Bold-75"/>
    </g>
   </g>
   <g id="text_38">
    <g id="patch_44">
     <path d="
M1302.07 483.339
L1347.05 468.546
L1342.78 455.553
L1297.8 470.346
z
"/>
    </g>
    <!-- Shexian -->
    <g style="fill:#ffffff;" transform="translate(1302.70018631 478.83878207)rotate(-18.205128205128204)scale(0.1 -0.1)">
     <use xlink:href="#BitstreamVeraSans-Bold-53"/>
     <use x="72.021484375" xlink:href="#BitstreamVeraSans-Bold-68"/>
     <use x="143.212890625" xlink:href="#BitstreamVeraSans-Bold-65"/>
     <use x="211.03515625" xlink:href="#BitstreamVeraSans-Bold-78"/>
     <use x="275.537109375" xlink:href="#BitstreamVeraSans-Bold-69"/>
     <use x="309.814453125" xlink:href="#BitstreamVeraSans-Bold-61"/>
     <use x="377.294921875" xlink:href="#BitstreamVeraSans-Bold-6e"/>
    </g>
   </g>
   <g id="text_39">
    <g id="patch_45">
     <path d="
M136.008 331.384
L190.555 363.531
L197.539 351.68
L142.992 319.532
z
"/>
    </g>
    <!-- Xianggang -->
    <g style="fill:#ffffff;" transform="translate(139.8415972 328.817163947)rotate(-329.4871794871795)scale(0.1 -0.1)">
     <use xlink:href="#BitstreamVeraSans-Bold-58"/>
     <use x="77.099609375" xlink:href="#BitstreamVeraSans-Bold-69"/>
     <use x="111.376953125" xlink:href="#BitstreamVeraSans-Bold-61"/>
     <use x="178.857421875" xlink:href="#BitstreamVeraSans-Bold-6e"/>
     <use x="250.048828125" xlink:href="#BitstreamVeraSans-Bold-67"/>
     <use x="321.630859375" xlink:href="#BitstreamVeraSans-Bold-67"/>
     <use x="393.212890625" xlink:href="#BitstreamVeraSans-Bold-61"/>
     <use x="460.693359375" xlink:href="#BitstreamVeraSans-Bold-6e"/>
     <use x="531.884765625" xlink:href="#BitstreamVeraSans-Bold-67"/>
    </g>
   </g>
   <g id="text_40">
    <g id="patch_46">
     <path d="
M1200.61 291.052
L1234.7 263.723
L1226.14 253.051
L1192.05 280.38
z
"/>
    </g>
    <!-- Suzhou -->
    <g style="fill:#ffffff;" transform="translate(1199.61740656 286.617727058)rotate(-38.71794871794872)scale(0.1 -0.1)">
     <use xlink:href="#BitstreamVeraSans-Bold-53"/>
     <use x="72.021484375" xlink:href="#BitstreamVeraSans-Bold-75"/>
     <use x="143.212890625" xlink:href="#BitstreamVeraSans-Bold-7a"/>
     <use x="201.416015625" xlink:href="#BitstreamVeraSans-Bold-68"/>
     <use x="272.607421875" xlink:href="#BitstreamVeraSans-Bold-6f"/>
     <use x="341.30859375" xlink:href="#BitstreamVeraSans-Bold-75"/>
    </g>
   </g>
  </g>
 </g>
 <defs>
  <clipPath id="pdba216da3c">
   <rect height="648.0" width="1296.0" x="72.0" y="36.0"/>
  </clipPath>
 </defs>
</svg>
