<?xml version="1.0" encoding="UTF-8" standalone="no"?>
<!-- Created with Inkscape (http://www.inkscape.org/) -->

<svg
   xmlns:dc="http://purl.org/dc/elements/1.1/"
   xmlns:cc="http://creativecommons.org/ns#"
   xmlns:rdf="http://www.w3.org/1999/02/22-rdf-syntax-ns#"
   xmlns:svg="http://www.w3.org/2000/svg"
   xmlns="http://www.w3.org/2000/svg"
   xmlns:sodipodi="http://sodipodi.sourceforge.net/DTD/sodipodi-0.dtd"
   xmlns:inkscape="http://www.inkscape.org/namespaces/inkscape"
   id="svg2"
   version="1.1"
   inkscape:version="0.91 r13725"
   xml:space="preserve"
   width="355.3974"
   height="234.31941"
   viewBox="0 0 355.3974 234.31942"
   sodipodi:docname="rabbits.svg"><metadata
     id="metadata8"><rdf:RDF><cc:Work
         rdf:about=""><dc:format>image/svg+xml</dc:format><dc:type
           rdf:resource="http://purl.org/dc/dcmitype/StillImage" /><dc:title></dc:title></cc:Work></rdf:RDF></metadata><defs
     id="defs6"><clipPath
       clipPathUnits="userSpaceOnUse"
       id="clipPath20"><path
         d="m 0,0 2384,0 0,3370 L 0,3370 0,0 Z"
         id="path22"
         inkscape:connector-curvature="0" /></clipPath><clipPath
       clipPathUnits="userSpaceOnUse"
       id="clipPath90"><path
         d="m 0,0 2384,0 0,3370 L 0,3370 0,0 Z"
         id="path92"
         inkscape:connector-curvature="0" /></clipPath></defs><sodipodi:namedview
     pagecolor="#ffffff"
     bordercolor="#666666"
     borderopacity="1"
     objecttolerance="10"
     gridtolerance="10"
     guidetolerance="10"
     inkscape:pageopacity="0"
     inkscape:pageshadow="2"
     inkscape:window-width="640"
     inkscape:window-height="480"
     id="namedview4"
     showgrid="false"
     fit-margin-top="0"
     fit-margin-left="0"
     fit-margin-right="0"
     fit-margin-bottom="0"
     inkscape:zoom="0.95146901"
     inkscape:cx="177.16251"
     inkscape:cy="112.88765"
     inkscape:window-x="0"
     inkscape:window-y="50"
     inkscape:window-maximized="0"
     inkscape:current-layer="g10" /><g
     id="g10"
     inkscape:groupmode="layer"
     inkscape:label="rabbits"
     transform="matrix(1.25,0,0,-1.25,0,245.45051)"><g
       id="g12"
       transform="translate(72,126.43)"><g
         id="g14"
         transform="translate(-72,-126.43)"><g
           id="g16"><g
             id="g18"
             clip-path="url(#clipPath20)"><g
               id="g24"
               transform="scale(0.229721,0.229721)"><path
                 d="m 185.039,853.082 c 0,0 -9.754,-82.066 0,-123.394 10.91,-46.211 61.699,-123.399 61.699,-123.399"
                 style="fill:#bfbfbf;fill-opacity:1;fill-rule:nonzero;stroke:none"
                 id="path26"
                 inkscape:connector-curvature="0" /><path
                 d="m 185.039,853.082 c 0,0 -9.754,-82.066 0,-123.394 10.91,-46.211 61.699,-123.399 61.699,-123.399"
                 style="fill:none;stroke:#000000;stroke-width:6.17008018;stroke-linecap:butt;stroke-linejoin:miter;stroke-miterlimit:10;stroke-dasharray:none;stroke-opacity:1"
                 id="path28"
                 inkscape:connector-curvature="0" /><path
                 d="m 185.039,853.082 c 0,0 50.789,-77.187 61.699,-123.394 9.758,-41.333 0,-123.399 0,-123.399"
                 style="fill:#bfbfbf;fill-opacity:1;fill-rule:nonzero;stroke:none"
                 id="path30"
                 inkscape:connector-curvature="0" /><path
                 d="m 185.039,853.082 c 0,0 50.789,-77.187 61.699,-123.394 9.758,-41.333 0,-123.399 0,-123.399"
                 style="fill:none;stroke:#000000;stroke-width:6.17008018;stroke-linecap:butt;stroke-linejoin:miter;stroke-miterlimit:10;stroke-dasharray:none;stroke-opacity:1"
                 id="path32"
                 inkscape:connector-curvature="0" /><path
                 d="m 431.832,853.082 c 0,0 -50.789,-77.187 -61.699,-123.394 -9.758,-41.333 0,-123.399 0,-123.399"
                 style="fill:#bfbfbf;fill-opacity:1;fill-rule:nonzero;stroke:none"
                 id="path34"
                 inkscape:connector-curvature="0" /><path
                 d="m 431.832,853.082 c 0,0 -50.789,-77.187 -61.699,-123.394 -9.758,-41.333 0,-123.399 0,-123.399"
                 style="fill:none;stroke:#000000;stroke-width:6.17008018;stroke-linecap:butt;stroke-linejoin:miter;stroke-miterlimit:10;stroke-dasharray:none;stroke-opacity:1"
                 id="path36"
                 inkscape:connector-curvature="0" /><path
                 d="m 431.832,853.082 c 0,0 9.754,-82.066 0,-123.394 -10.91,-46.211 -61.699,-123.399 -61.699,-123.399"
                 style="fill:#bfbfbf;fill-opacity:1;fill-rule:nonzero;stroke:none"
                 id="path38"
                 inkscape:connector-curvature="0" /><path
                 d="m 431.832,853.082 c 0,0 9.754,-82.066 0,-123.394 -10.91,-46.211 -61.699,-123.399 -61.699,-123.399"
                 style="fill:none;stroke:#000000;stroke-width:6.17008018;stroke-linecap:butt;stroke-linejoin:miter;stroke-miterlimit:10;stroke-dasharray:none;stroke-opacity:1"
                 id="path40"
                 inkscape:connector-curvature="0" /><path
                 d="M 185.039,853.082 246.738,606.289"
                 style="fill:none;stroke:#000000;stroke-width:6.17008018;stroke-linecap:butt;stroke-linejoin:miter;stroke-miterlimit:10;stroke-dasharray:none;stroke-opacity:1"
                 id="path42"
                 inkscape:connector-curvature="0" /><path
                 d="M 431.832,853.082 370.133,606.289"
                 style="fill:none;stroke:#000000;stroke-width:6.17008018;stroke-linecap:butt;stroke-linejoin:miter;stroke-miterlimit:10;stroke-dasharray:none;stroke-opacity:1"
                 id="path44"
                 inkscape:connector-curvature="0" /><path
                 d="m 246.738,112.711 c 0,0 -132.836,-21.7032 -123.394,-61.6993 4.222,-17.8867 41.031,-4.8789 61.695,0 46.211,10.9102 132.84,21.6992 123.399,61.6993 -4.223,17.887 -61.7,0 -61.7,0"
                 style="fill:#bfbfbf;fill-opacity:1;fill-rule:nonzero;stroke:none"
                 id="path46"
                 inkscape:connector-curvature="0" /><path
                 d="m 246.738,112.711 c 0,0 -132.836,-21.7032 -123.394,-61.6993 4.222,-17.8867 41.031,-4.8789 61.695,0 46.211,10.9102 132.84,21.6992 123.399,61.6993 -4.223,17.887 -61.7,0 -61.7,0"
                 style="fill:none;stroke:#000000;stroke-width:6.17008018;stroke-linecap:butt;stroke-linejoin:miter;stroke-miterlimit:10;stroke-dasharray:none;stroke-opacity:1"
                 id="path48"
                 inkscape:connector-curvature="0" /><path
                 d="m 370.133,112.711 c 0,0 132.84,-21.7032 123.394,-61.6993 -4.222,-17.8867 -41.031,-4.8789 -61.695,0 -46.211,10.9102 -132.84,21.6992 -123.394,61.6993 4.222,17.887 61.695,0 61.695,0"
                 style="fill:#bfbfbf;fill-opacity:1;fill-rule:nonzero;stroke:none"
                 id="path50"
                 inkscape:connector-curvature="0" /><path
                 d="m 370.133,112.711 c 0,0 132.84,-21.7032 123.394,-61.6993 -4.222,-17.8867 -41.031,-4.8789 -61.695,0 -46.211,10.9102 -132.84,21.6992 -123.394,61.6993 4.222,17.887 61.695,0 61.695,0"
                 style="fill:none;stroke:#000000;stroke-width:6.17008018;stroke-linecap:butt;stroke-linejoin:miter;stroke-miterlimit:10;stroke-dasharray:none;stroke-opacity:1"
                 id="path52"
                 inkscape:connector-curvature="0" /><path
                 d="m 185.039,359.5 c 0,0 -41.031,4.879 -61.695,0 C 77.1328,348.59 -9.49609,337.801 -0.0546875,297.801 8.39062,262.027 84.3125,281.637 123.344,297.801 c 27.597,11.433 61.695,61.699 61.695,61.699"
                 style="fill:#bfbfbf;fill-opacity:1;fill-rule:nonzero;stroke:none"
                 id="path54"
                 inkscape:connector-curvature="0" /><path
                 d="m 185.039,359.5 c 0,0 -41.031,4.879 -61.695,0 C 77.1328,348.59 -9.49609,337.801 -0.0546875,297.801 8.39062,262.027 84.3125,281.637 123.344,297.801 c 27.597,11.433 61.695,61.699 61.695,61.699"
                 style="fill:none;stroke:#000000;stroke-width:6.17008018;stroke-linecap:butt;stroke-linejoin:miter;stroke-miterlimit:10;stroke-dasharray:none;stroke-opacity:1"
                 id="path56"
                 inkscape:connector-curvature="0" /><path
                 d="m 431.832,359.5 c 0,0 41.031,4.879 61.695,0 46.211,-10.91 132.84,-21.699 123.399,-61.699 -8.446,-35.774 -84.367,-16.164 -123.399,0 -27.597,11.433 -61.695,61.699 -61.695,61.699"
                 style="fill:#bfbfbf;fill-opacity:1;fill-rule:nonzero;stroke:none"
                 id="path58"
                 inkscape:connector-curvature="0" /><path
                 d="m 431.832,359.5 c 0,0 41.031,4.879 61.695,0 46.211,-10.91 132.84,-21.699 123.399,-61.699 -8.446,-35.774 -84.367,-16.164 -123.399,0 -27.597,11.433 -61.695,61.699 -61.695,61.699"
                 style="fill:none;stroke:#000000;stroke-width:6.17008018;stroke-linecap:butt;stroke-linejoin:miter;stroke-miterlimit:10;stroke-dasharray:none;stroke-opacity:1"
                 id="path60"
                 inkscape:connector-curvature="0" /><path
                 d="m 246.738,482.895 c 0,0 -40.406,-80.813 -61.699,-123.395 -21.289,-42.582 -69.164,-77.375 -61.695,-123.395 9.445,-58.214 68.195,-100.531 123.394,-123.394 39.032,-16.168 84.364,-16.168 123.395,0 55.199,22.863 113.949,65.18 123.394,123.394 7.469,46.02 -40.406,80.813 -61.695,123.395 -21.293,42.582 -61.699,123.395 -61.699,123.395"
                 style="fill:#bfbfbf;fill-opacity:1;fill-rule:nonzero;stroke:none"
                 id="path62"
                 inkscape:connector-curvature="0" /><path
                 d="m 246.738,482.895 c 0,0 -40.406,-80.813 -61.699,-123.395 -21.289,-42.582 -69.164,-77.375 -61.695,-123.395 9.445,-58.214 68.195,-100.531 123.394,-123.394 39.032,-16.168 84.364,-16.168 123.395,0 55.199,22.863 113.949,65.18 123.394,123.394 7.469,46.02 -40.406,80.813 -61.695,123.395 -21.293,42.582 -61.699,123.395 -61.699,123.395"
                 style="fill:none;stroke:#000000;stroke-width:6.17008018;stroke-linecap:butt;stroke-linejoin:miter;stroke-miterlimit:10;stroke-dasharray:none;stroke-opacity:1"
                 id="path64"
                 inkscape:connector-curvature="0" /><path
                 d="m 370.133,606.289 c 0,0 -87.754,22.027 -123.395,0 -39.847,-24.625 -74.601,-79.078 -61.699,-123.394 13.461,-46.223 74.496,-74.04 123.399,-74.04 48.898,0 109.933,27.817 123.394,74.04 12.902,44.316 -21.852,98.769 -61.699,123.394 -35.641,22.027 -123.395,0 -123.395,0"
                 style="fill:#bfbfbf;fill-opacity:1;fill-rule:nonzero;stroke:none"
                 id="path66"
                 inkscape:connector-curvature="0" /><path
                 d="m 370.133,606.289 c 0,0 -87.754,22.027 -123.395,0 -39.847,-24.625 -74.601,-79.078 -61.699,-123.394 13.461,-46.223 74.496,-74.04 123.399,-74.04 48.898,0 109.933,27.817 123.394,74.04 12.902,44.316 -21.852,98.769 -61.699,123.394 -35.641,22.027 -123.395,0 -123.395,0"
                 style="fill:none;stroke:#000000;stroke-width:6.17008018;stroke-linecap:butt;stroke-linejoin:miter;stroke-miterlimit:10;stroke-dasharray:none;stroke-opacity:1"
                 id="path68"
                 inkscape:connector-curvature="0" /><path
                 d="m 308.438,452.047 -30.852,30.848"
                 style="fill:none;stroke:#000000;stroke-width:6.17008018;stroke-linecap:butt;stroke-linejoin:miter;stroke-miterlimit:10;stroke-dasharray:none;stroke-opacity:1"
                 id="path70"
                 inkscape:connector-curvature="0" /><path
                 d="m 308.438,452.047 30.847,30.848"
                 style="fill:none;stroke:#000000;stroke-width:6.17008018;stroke-linecap:butt;stroke-linejoin:miter;stroke-miterlimit:10;stroke-dasharray:none;stroke-opacity:1"
                 id="path72"
                 inkscape:connector-curvature="0" /><path
                 d="m 308.438,452.047 0,-30.848"
                 style="fill:none;stroke:#000000;stroke-width:6.17008018;stroke-linecap:butt;stroke-linejoin:miter;stroke-miterlimit:10;stroke-dasharray:none;stroke-opacity:1"
                 id="path74"
                 inkscape:connector-curvature="0" /><path
                 d="m 282.023,544.594 c 0,5.855 -1.988,10.605 -4.437,10.605 -2.445,0 -4.434,-4.75 -4.434,-10.605 0,-5.856 1.989,-10.606 4.434,-10.606 2.449,0 4.437,4.75 4.437,10.606"
                 style="fill:#000000;fill-opacity:1;fill-rule:nonzero;stroke:none"
                 id="path76"
                 inkscape:connector-curvature="0" /><path
                 d="m 282.023,544.594 c 0,5.855 -1.988,10.605 -4.437,10.605 -2.445,0 -4.434,-4.75 -4.434,-10.605 0,-5.856 1.989,-10.606 4.434,-10.606 2.449,0 4.437,4.75 4.437,10.606 z"
                 style="fill:none;stroke:#000000;stroke-width:3.46948004;stroke-linecap:butt;stroke-linejoin:miter;stroke-miterlimit:10;stroke-dasharray:none;stroke-opacity:1"
                 id="path78"
                 inkscape:connector-curvature="0" /><path
                 d="m 343.719,544.594 c 0,5.855 -1.989,10.605 -4.434,10.605 -2.449,0 -4.437,-4.75 -4.437,-10.605 0,-5.856 1.988,-10.606 4.437,-10.606 2.445,0 4.434,4.75 4.434,10.606"
                 style="fill:#000000;fill-opacity:1;fill-rule:nonzero;stroke:none"
                 id="path80"
                 inkscape:connector-curvature="0" /><path
                 d="m 343.719,544.594 c 0,5.855 -1.989,10.605 -4.434,10.605 -2.449,0 -4.437,-4.75 -4.437,-10.605 0,-5.856 1.988,-10.606 4.437,-10.606 2.445,0 4.434,4.75 4.434,10.606 z"
                 style="fill:none;stroke:#000000;stroke-width:3.46948004;stroke-linecap:butt;stroke-linejoin:miter;stroke-miterlimit:10;stroke-dasharray:none;stroke-opacity:1"
                 id="path82"
                 inkscape:connector-curvature="0" /></g></g></g></g><g
         id="g84"
         transform="translate(-72,-126.43)"><g
           id="g86"><g
             id="g88"
             clip-path="url(#clipPath90)"><g
               id="g94"
               transform="scale(0.229721,0.229721)"><path
                 d="m 802.016,853.082 c 0,0 -9.754,-82.066 0,-123.394 10.91,-46.211 61.699,-123.399 61.699,-123.399"
                 style="fill:#bfbfbf;fill-opacity:1;fill-rule:nonzero;stroke:none"
                 id="path96"
                 inkscape:connector-curvature="0" /><path
                 d="m 802.016,853.082 c 0,0 -9.754,-82.066 0,-123.394 10.91,-46.211 61.699,-123.399 61.699,-123.399"
                 style="fill:none;stroke:#000000;stroke-width:6.17008018;stroke-linecap:butt;stroke-linejoin:miter;stroke-miterlimit:10;stroke-dasharray:none;stroke-opacity:1"
                 id="path98"
                 inkscape:connector-curvature="0" /><path
                 d="m 802.016,853.082 c 0,0 50.789,-77.187 61.699,-123.394 9.758,-41.333 0,-123.399 0,-123.399"
                 style="fill:#bfbfbf;fill-opacity:1;fill-rule:nonzero;stroke:none"
                 id="path100"
                 inkscape:connector-curvature="0" /><path
                 d="m 802.016,853.082 c 0,0 50.789,-77.187 61.699,-123.394 9.758,-41.333 0,-123.399 0,-123.399"
                 style="fill:none;stroke:#000000;stroke-width:6.17008018;stroke-linecap:butt;stroke-linejoin:miter;stroke-miterlimit:10;stroke-dasharray:none;stroke-opacity:1"
                 id="path102"
                 inkscape:connector-curvature="0" /><path
                 d="m 1048.81,853.082 c 0,0 -50.79,-77.187 -61.701,-123.394 -9.757,-41.333 0,-123.399 0,-123.399"
                 style="fill:#bfbfbf;fill-opacity:1;fill-rule:nonzero;stroke:none"
                 id="path104"
                 inkscape:connector-curvature="0" /><path
                 d="m 1048.81,853.082 c 0,0 -50.79,-77.187 -61.701,-123.394 -9.757,-41.333 0,-123.399 0,-123.399"
                 style="fill:none;stroke:#000000;stroke-width:6.17008018;stroke-linecap:butt;stroke-linejoin:miter;stroke-miterlimit:10;stroke-dasharray:none;stroke-opacity:1"
                 id="path106"
                 inkscape:connector-curvature="0" /><path
                 d="m 1048.81,853.082 c 0,0 9.76,-82.066 0,-123.394 -10.91,-46.211 -61.701,-123.399 -61.701,-123.399"
                 style="fill:#bfbfbf;fill-opacity:1;fill-rule:nonzero;stroke:none"
                 id="path108"
                 inkscape:connector-curvature="0" /><path
                 d="m 1048.81,853.082 c 0,0 9.76,-82.066 0,-123.394 -10.91,-46.211 -61.701,-123.399 -61.701,-123.399"
                 style="fill:none;stroke:#000000;stroke-width:6.17008018;stroke-linecap:butt;stroke-linejoin:miter;stroke-miterlimit:10;stroke-dasharray:none;stroke-opacity:1"
                 id="path110"
                 inkscape:connector-curvature="0" /><path
                 d="M 802.016,853.082 863.715,606.289"
                 style="fill:none;stroke:#000000;stroke-width:6.17008018;stroke-linecap:butt;stroke-linejoin:miter;stroke-miterlimit:10;stroke-dasharray:none;stroke-opacity:1"
                 id="path112"
                 inkscape:connector-curvature="0" /><path
                 d="M 1048.81,853.082 987.109,606.289"
                 style="fill:none;stroke:#000000;stroke-width:6.17008018;stroke-linecap:butt;stroke-linejoin:miter;stroke-miterlimit:10;stroke-dasharray:none;stroke-opacity:1"
                 id="path114"
                 inkscape:connector-curvature="0" /><path
                 d="m 863.715,112.711 c 0,0 -132.836,-21.7032 -123.395,-61.6993 4.223,-17.8867 41.032,-4.8789 61.696,0 46.211,10.9102 132.839,21.6992 123.398,61.6993 -4.223,17.887 -61.699,0 -61.699,0"
                 style="fill:#bfbfbf;fill-opacity:1;fill-rule:nonzero;stroke:none"
                 id="path116"
                 inkscape:connector-curvature="0" /><path
                 d="m 863.715,112.711 c 0,0 -132.836,-21.7032 -123.395,-61.6993 4.223,-17.8867 41.032,-4.8789 61.696,0 46.211,10.9102 132.839,21.6992 123.398,61.6993 -4.223,17.887 -61.699,0 -61.699,0"
                 style="fill:none;stroke:#000000;stroke-width:6.17008018;stroke-linecap:butt;stroke-linejoin:miter;stroke-miterlimit:10;stroke-dasharray:none;stroke-opacity:1"
                 id="path118"
                 inkscape:connector-curvature="0" /><path
                 d="m 987.109,112.711 c 0,0 132.841,-21.7032 123.391,-61.6993 -4.22,-17.8867 -41.03,-4.8789 -61.69,0 -46.21,10.9102 -132.841,21.6992 -123.396,61.6993 4.223,17.887 61.695,0 61.695,0"
                 style="fill:#bfbfbf;fill-opacity:1;fill-rule:nonzero;stroke:none"
                 id="path120"
                 inkscape:connector-curvature="0" /><path
                 d="m 987.109,112.711 c 0,0 132.841,-21.7032 123.391,-61.6993 -4.22,-17.8867 -41.03,-4.8789 -61.69,0 -46.21,10.9102 -132.841,21.6992 -123.396,61.6993 4.223,17.887 61.695,0 61.695,0"
                 style="fill:none;stroke:#000000;stroke-width:6.17008018;stroke-linecap:butt;stroke-linejoin:miter;stroke-miterlimit:10;stroke-dasharray:none;stroke-opacity:1"
                 id="path122"
                 inkscape:connector-curvature="0" /><path
                 d="m 802.016,359.5 c 0,0 -41.032,4.879 -61.696,0 -46.211,-10.91 -132.84,-21.699 -123.394,-61.699 8.445,-35.774 84.363,-16.164 123.394,0 27.598,11.433 61.696,61.699 61.696,61.699"
                 style="fill:#bfbfbf;fill-opacity:1;fill-rule:nonzero;stroke:none"
                 id="path124"
                 inkscape:connector-curvature="0" /><path
                 d="m 802.016,359.5 c 0,0 -41.032,4.879 -61.696,0 -46.211,-10.91 -132.84,-21.699 -123.394,-61.699 8.445,-35.774 84.363,-16.164 123.394,0 27.598,11.433 61.696,61.699 61.696,61.699"
                 style="fill:none;stroke:#000000;stroke-width:6.17008018;stroke-linecap:butt;stroke-linejoin:miter;stroke-miterlimit:10;stroke-dasharray:none;stroke-opacity:1"
                 id="path126"
                 inkscape:connector-curvature="0" /><path
                 d="m 1048.81,359.5 c 0,0 41.03,4.879 61.69,0 46.21,-10.91 132.84,-21.699 123.4,-61.699 -8.44,-35.774 -84.36,-16.164 -123.4,0 -27.59,11.433 -61.69,61.699 -61.69,61.699"
                 style="fill:#bfbfbf;fill-opacity:1;fill-rule:nonzero;stroke:none"
                 id="path128"
                 inkscape:connector-curvature="0" /><path
                 d="m 1048.81,359.5 c 0,0 41.03,4.879 61.69,0 46.21,-10.91 132.84,-21.699 123.4,-61.699 -8.44,-35.774 -84.36,-16.164 -123.4,0 -27.59,11.433 -61.69,61.699 -61.69,61.699"
                 style="fill:none;stroke:#000000;stroke-width:6.17008018;stroke-linecap:butt;stroke-linejoin:miter;stroke-miterlimit:10;stroke-dasharray:none;stroke-opacity:1"
                 id="path130"
                 inkscape:connector-curvature="0" /><path
                 d="m 863.715,482.895 c 0,0 -40.406,-80.813 -61.699,-123.395 -21.289,-42.582 -69.164,-77.375 -61.696,-123.395 9.446,-58.214 68.196,-100.531 123.395,-123.394 39.031,-16.168 84.363,-16.168 123.394,0 55.201,22.863 113.951,65.18 123.391,123.394 7.47,46.02 -40.4,80.813 -61.69,123.395 -21.29,42.582 -61.701,123.395 -61.701,123.395"
                 style="fill:#bfbfbf;fill-opacity:1;fill-rule:nonzero;stroke:none"
                 id="path132"
                 inkscape:connector-curvature="0" /><path
                 d="m 863.715,482.895 c 0,0 -40.406,-80.813 -61.699,-123.395 -21.289,-42.582 -69.164,-77.375 -61.696,-123.395 9.446,-58.214 68.196,-100.531 123.395,-123.394 39.031,-16.168 84.363,-16.168 123.394,0 55.201,22.863 113.951,65.18 123.391,123.394 7.47,46.02 -40.4,80.813 -61.69,123.395 -21.29,42.582 -61.701,123.395 -61.701,123.395"
                 style="fill:none;stroke:#000000;stroke-width:6.17008018;stroke-linecap:butt;stroke-linejoin:miter;stroke-miterlimit:10;stroke-dasharray:none;stroke-opacity:1"
                 id="path134"
                 inkscape:connector-curvature="0" /><path
                 d="m 987.109,606.289 c 0,0 -87.754,22.027 -123.394,0 -39.848,-24.625 -74.602,-79.078 -61.699,-123.394 13.461,-46.223 74.496,-74.04 123.398,-74.04 48.898,0 109.936,27.817 123.396,74.04 12.9,44.316 -21.85,98.769 -61.701,123.394 -35.64,22.027 -123.394,0 -123.394,0"
                 style="fill:#bfbfbf;fill-opacity:1;fill-rule:nonzero;stroke:none"
                 id="path136"
                 inkscape:connector-curvature="0" /><path
                 d="m 987.109,606.289 c 0,0 -87.754,22.027 -123.394,0 -39.848,-24.625 -74.602,-79.078 -61.699,-123.394 13.461,-46.223 74.496,-74.04 123.398,-74.04 48.898,0 109.936,27.817 123.396,74.04 12.9,44.316 -21.85,98.769 -61.701,123.394 -35.64,22.027 -123.394,0 -123.394,0"
                 style="fill:none;stroke:#000000;stroke-width:6.17008018;stroke-linecap:butt;stroke-linejoin:miter;stroke-miterlimit:10;stroke-dasharray:none;stroke-opacity:1"
                 id="path138"
                 inkscape:connector-curvature="0" /><path
                 d="m 925.414,452.047 -30.852,30.848"
                 style="fill:none;stroke:#000000;stroke-width:6.17008018;stroke-linecap:butt;stroke-linejoin:miter;stroke-miterlimit:10;stroke-dasharray:none;stroke-opacity:1"
                 id="path140"
                 inkscape:connector-curvature="0" /><path
                 d="m 925.414,452.047 30.848,30.848"
                 style="fill:none;stroke:#000000;stroke-width:6.17008018;stroke-linecap:butt;stroke-linejoin:miter;stroke-miterlimit:10;stroke-dasharray:none;stroke-opacity:1"
                 id="path142"
                 inkscape:connector-curvature="0" /><path
                 d="m 925.414,452.047 0,-30.848"
                 style="fill:none;stroke:#000000;stroke-width:6.17008018;stroke-linecap:butt;stroke-linejoin:miter;stroke-miterlimit:10;stroke-dasharray:none;stroke-opacity:1"
                 id="path144"
                 inkscape:connector-curvature="0" /><path
                 d="m 899,544.594 c 0,5.855 -1.988,10.605 -4.438,10.605 -2.445,0 -4.433,-4.75 -4.433,-10.605 0,-5.856 1.988,-10.606 4.433,-10.606 2.45,0 4.438,4.75 4.438,10.606"
                 style="fill:#000000;fill-opacity:1;fill-rule:nonzero;stroke:none"
                 id="path146"
                 inkscape:connector-curvature="0" /><path
                 d="m 899,544.594 c 0,5.855 -1.988,10.605 -4.438,10.605 -2.445,0 -4.433,-4.75 -4.433,-10.605 0,-5.856 1.988,-10.606 4.433,-10.606 2.45,0 4.438,4.75 4.438,10.606 z"
                 style="fill:none;stroke:#000000;stroke-width:3.46948004;stroke-linecap:butt;stroke-linejoin:miter;stroke-miterlimit:10;stroke-dasharray:none;stroke-opacity:1"
                 id="path148"
                 inkscape:connector-curvature="0" /><path
                 d="m 960.695,544.594 c 0,5.855 -1.988,10.605 -4.433,10.605 -2.45,0 -4.438,-4.75 -4.438,-10.605 0,-5.856 1.988,-10.606 4.438,-10.606 2.445,0 4.433,4.75 4.433,10.606"
                 style="fill:#000000;fill-opacity:1;fill-rule:nonzero;stroke:none"
                 id="path150"
                 inkscape:connector-curvature="0" /><path
                 d="m 960.695,544.594 c 0,5.855 -1.988,10.605 -4.433,10.605 -2.45,0 -4.438,-4.75 -4.438,-10.605 0,-5.856 1.988,-10.606 4.438,-10.606 2.445,0 4.433,4.75 4.433,10.606 z"
                 style="fill:none;stroke:#000000;stroke-width:3.46948004;stroke-linecap:butt;stroke-linejoin:miter;stroke-miterlimit:10;stroke-dasharray:none;stroke-opacity:1"
                 id="path152"
                 inkscape:connector-curvature="0" /></g></g></g></g></g></g></svg>